<?xml version="1.0" standalone="no"?>
<!DOCTYPE svg PUBLIC "-//W3C//DTD SVG 1.1//EN" "http://www.w3.org/Graphics/SVG/1.1/DTD/svg11.dtd" >
<svg>
<metadata>
Created by FontForge 20090914 at Wed Apr 19 14:03:17 2017
 By www-data
Copyright (c) 2010-2014 by tyPoland Lukasz Dziedzic with Reserved Font Name "Lato". Licensed under the SIL Open Font License, Version 1.1. 
</metadata>
<defs>
<font id="Lato-Italic" horiz-adv-x="1187" >
  <font-face 
    font-family="Lato"
    font-weight="400"
    font-style="italic"
    font-stretch="normal"
    units-per-em="2048"
    panose-1="2 15 5 2 2 2 4 3 2 3"
    ascent="1649"
    descent="-399"
    x-height="1037"
    cap-height="1466"
    bbox="-181 -425 2527 1935"
    underline-thickness="198"
    underline-position="-6"
    slope="-7"
    unicode-range="U+000D-U+25FC"
  />
<missing-glyph horiz-adv-x="748" 
d="M68 0v1365h544v-1365h-544zM136 68h408v1229h-408v-1229z" />
    <glyph glyph-name=".notdef" horiz-adv-x="748" 
d="M68 0v1365h544v-1365h-544zM136 68h408v1229h-408v-1229z" />
    <glyph glyph-name="glyph1" horiz-adv-x="0" 
 />
    <glyph glyph-name="glyph1" horiz-adv-x="0" 
 />
    <glyph glyph-name="uni000D" unicode="&#xd;" horiz-adv-x="0" 
 />
    <glyph glyph-name="space" unicode=" " horiz-adv-x="479" 
 />
    <glyph glyph-name="exclam" unicode="!" horiz-adv-x="517" 
d="M77 113c0 18 3.16602 34.668 9.49902 50.001s15.166 28.833 26.499 40.5s24.666 21 39.999 28s32.333 10.5 51 10.5c18 0 34.5 -3.5 49.5 -10.5s28.333 -16.333 40 -28s21 -25.334 28 -41.001s10.5 -32.167 10.5 -49.5c0 -18.667 -3.5 -35.667 -10.5 -51
s-16.333 -28.833 -28 -40.5s-25.167 -20.667 -40.5 -27s-31.666 -9.5 -48.999 -9.5c-18.667 0 -35.667 3.16699 -51 9.5s-28.666 15.333 -39.999 27s-20.166 25.167 -26.499 40.5s-9.5 32.333 -9.5 51zM178.999 511.001c0.666992 35.333 1.49902 68.667 2.49902 100
s2.33301 61.666 4 90.999s3.83398 58.666 6.50098 87.999s6 59.333 10 90l71 587h167l-71 -587c-4 -30.667 -8.5 -60.667 -13.5 -90s-10.333 -58.666 -16 -87.999s-12 -59.666 -19 -90.999l-22.5 -100h-119z" />
    <glyph glyph-name="quotedbl" unicode="&#x22;" horiz-adv-x="711" 
d="M184 1011l2.99902 158l38 296h153l-37 -296l-35 -158c-5.33301 -21.333 -13.166 -37.833 -23.499 -49.5s-25.5 -17.5 -45.5 -17.5c-18 0 -31 5.83301 -39 17.5s-12.667 28.167 -14 49.5zM496.999 1011l2.99902 158l38 296h153l-37 -296l-35 -158
c-5.33301 -21.333 -13.166 -37.833 -23.499 -49.5s-25.5 -17.5 -45.5 -17.5c-18 0 -31 5.83301 -39 17.5s-12.667 28.167 -14 49.5z" />
    <glyph glyph-name="numbersign" unicode="#" 
d="M48 451c-7.33301 11.333 -7.33105 30.333 0.00195312 57l15 56h210l109 339h-238l21 73c5.33301 19.333 14.666 33.333 27.999 42s33 13 59 13h165l121 372c6.66699 20 17.667 35.333 33 46s33 16 53 16h79l-141 -434h256l141 434h79c18.667 0 33 -5.83301 43 -17.5
s11.333 -27.5 4 -47.5l-120 -369h219l-23 -73c-5.33301 -19.333 -14.5 -33.333 -27.5 -42s-32.167 -13 -57.5 -13h-146l-109 -339h187c18.667 0 31.667 -5.5 39 -16.5s7.66602 -30.167 0.999023 -57.5l-17 -56h-245l-139 -434h-81c-18 -0 -31.333 7.33301 -40 22
s-9.33398 33 -2.00098 55l116 357h-256l-118 -366c-7.33301 -24.667 -19.166 -42.167 -35.499 -52.5s-34.5 -15.5 -54.5 -15.5h-79l141 434h-151c-18.667 0 -31.667 5.66699 -39 17zM419.002 564h257l108 339h-256z" />
    <glyph glyph-name="dollar" unicode="$" 
d="M46 175l63 79.9961c6 7.33301 13.333 13.5 22 18.5s18 7.5 28 7.5c12 0 25.333 -6.5 40 -19.5s33.167 -28 55.5 -45s49.166 -33.5 80.499 -49.5s70.333 -26.667 117 -32l105 553c-42 12.667 -83.333 27.5 -124 44.5s-77 38.333 -109 64s-57.667 57.334 -77 95.001
s-29 84.5 -29 140.5c0 56.667 11.333 111.334 34 164.001s55 99.5 97 140.5s93.333 74.5 154 100.5s129 40.333 205 43l28 148c2 12.667 8.16699 24 18.5 34s22.833 15 37.5 15h65l-39 -201c70 -8 129.5 -26 178.5 -54s90.833 -62 125.5 -102l-49 -66
c-15.333 -20 -31.666 -29.667 -48.999 -29c-9.33301 0 -20.333 4.33301 -33 13s-28.334 18.834 -47.001 30.501s-40.5 23.167 -65.5 34.5s-54.167 19.333 -87.5 24l-96 -503c44 -14.667 87.5 -30.334 130.5 -47.001s81.333 -37.5 115 -62.5s61.167 -56 82.5 -93
s32 -82.5 32 -136.5c0 -64.667 -12 -126.167 -36 -184.5s-58.5 -110.166 -103.5 -155.499s-99.667 -82.166 -164 -110.499s-136.166 -44.833 -215.499 -49.5l-35 -183c-1.33301 -12 -7.5 -22.833 -18.5 -32.5s-23.5 -14.5 -37.5 -14.5h-65l44 233
c-81.333 7.33301 -153.833 27.5 -217.5 60.5s-117.167 75.167 -160.5 126.5zM388 1072c0 -28.667 5.33105 -53.6689 15.998 -75.002s25 -40.5 43 -57.5s39.333 -31.667 64 -44s51 -24.166 79 -35.499l89 469c-49.333 -4 -92.166 -13.667 -128.499 -29
s-66.666 -34.666 -90.999 -57.999s-42.333 -49.5 -54 -78.5s-17.5 -59.5 -17.5 -91.5zM563.998 133.994c50.667 4.66699 95.668 15.667 135.001 33s72.666 39.333 99.999 66s48 57.834 62 93.501s21 74.167 21 115.5c0 30 -5.83301 56.167 -17.5 78.5
s-27.5 41.666 -47.5 57.999s-43.167 30.5 -69.5 42.5s-54.5 23 -84.5 33z" />
    <glyph glyph-name="percent" unicode="%" horiz-adv-x="1523" 
d="M96 0l1166 1437c7.33301 7.33301 15.833 13.833 25.5 19.5s22.167 8.5 37.5 8.5h128l-1168 -1436c-6.66699 -8 -14.834 -14.833 -24.501 -20.5s-21.5 -8.5 -35.5 -8.5h-129zM142.001 1054c0 67.333 9.33105 127.501 27.998 180.501s43.834 97.667 75.501 134
s68.834 64.166 111.501 83.499s88 29 136 29c38 0 73 -7 105 -21s59.5 -34.333 82.5 -61s40.833 -59.167 53.5 -97.5s19 -81.833 19 -130.5c0 -67.333 -10 -127.333 -30 -180s-46.333 -97 -79 -133s-70.167 -63.333 -112.5 -82s-85.833 -28 -130.5 -28
c-38 0 -72.833 7 -104.5 21s-59 34 -82 60s-40.833 58 -53.5 96s-19 81 -19 129zM278.999 1054c0 -33.333 3.33203 -61.833 9.99902 -85.5s16.167 -43.167 28.5 -58.5s26.833 -26.666 43.5 -33.999s35 -11 55 -11c26.667 0 52 5.66699 76 17s45.333 29.166 64 53.499
s33.167 55.666 43.5 93.999s15.5 85.166 15.5 140.499c0 34 -3.5 63.333 -10.5 88s-16.667 44.834 -29 60.501s-26.833 27.334 -43.5 35.001s-34.667 11.5 -54 11.5c-27.333 0 -53 -5.83301 -77 -17.5s-45.167 -30.167 -63.5 -55.5s-32.666 -57.5 -42.999 -96.5
s-15.5 -86.167 -15.5 -141.5zM798.998 288.001c0 67.333 9.16797 127.5 27.501 180.5s43.333 97.833 75 134.5s68.667 64.667 111 84s87.5 29 135.5 29c38 0 73.167 -7 105.5 -21s59.833 -34.333 82.5 -61s40.5 -59 53.5 -97s19.5 -81.333 19.5 -130
c0 -67.333 -10 -127.666 -30 -180.999s-46.5 -97.833 -79.5 -133.5s-70.5 -62.834 -112.5 -81.501s-85 -28 -129 -28c-38 0 -73 7 -105 21s-59.333 34 -82 60s-40.334 57.833 -53.001 95.5s-19 80.5 -19 128.5zM934.999 288.001c0 -33.333 3.33301 -62.001 10 -86.001
s16.167 -43.667 28.5 -59s26.833 -26.666 43.5 -33.999s35 -11 55 -11c26.667 0 52.167 5.66699 76.5 17s45.5 29.333 63.5 54s32.333 56.5 43 95.5s16 86.167 16 141.5c0 34 -3.5 63 -10.5 87s-16.667 44 -29 60s-26.833 27.5 -43.5 34.5s-34.667 10.5 -54 10.5
c-27.333 0 -53.166 -5.83301 -77.499 -17.5s-45.333 -30.167 -63 -55.5s-31.834 -57.333 -42.501 -96s-16 -85.667 -16 -141z" />
    <glyph glyph-name="ampersand" unicode="&#x26;" horiz-adv-x="1345" 
d="M56 343c0 54 9.16406 104.833 27.4971 152.5s43.333 91.5 75 131.5s68.834 75.667 111.501 107s88.667 58 138 80c-26.667 45.333 -46.334 89.833 -59.001 133.5s-19 86.834 -19 129.501c0 56 9.66699 108.833 29 158.5s47 92.5 83 128.5s79.167 64.667 129.5 86
s106.166 32 167.499 32c50 0 95 -8 135 -24s73.667 -38 101 -66s48 -61 62 -99s20.667 -79 20 -123l-104 -19c-16 -3.33301 -27.833 -2.66602 -35.5 2.00098s-13.5 14.667 -17.5 30c-3.33301 19.333 -9.16602 38.5 -17.499 57.5s-19.666 36.167 -33.999 51.5
s-31.666 28 -51.999 38s-44.5 15 -72.5 15c-34.667 0 -66 -6.5 -94 -19.5s-52.167 -31 -72.5 -54s-35.833 -50 -46.5 -81s-16 -64.167 -16 -99.5c0 -77.333 33 -159.333 99 -246l330 -419c28 45.333 51.167 92 69.5 140s32.166 96.333 41.499 145
c2.66699 12 7.16699 21.833 13.5 29.5s15.833 11.5 28.5 11.5h122c-10.667 -78.667 -31.5 -155.834 -62.5 -231.501s-70.833 -146.5 -119.5 -212.5l244 -308h-152c-14.667 0 -27.167 0.833008 -37.5 2.5s-19.666 4.5 -27.999 8.5s-16 9.5 -23 16.5l-23.5 24.5l-98 125
c-64 -59.333 -135.333 -106.333 -214 -141s-162 -52 -250 -52c-56 0 -107.167 8.33301 -153.5 25s-86.166 40.5 -119.499 71.5s-59.333 68.667 -78 113s-28 94.166 -28 149.499zM238.997 366c0 -38 5.83398 -72 17.501 -102s28 -55.167 49 -75.5s45.833 -35.833 74.5 -46.5
s59.667 -16 93 -16c64.667 0 125.667 14.667 183 44s110 68 158 116l-341 435c-78.667 -42 -137.334 -93.667 -176.001 -155s-58 -128 -58 -200z" />
    <glyph glyph-name="quotesingle" unicode="'" horiz-adv-x="398" 
d="M184 1011l2.99902 158l38 296h153l-37 -296l-35 -158c-5.33301 -21.333 -13.166 -37.833 -23.499 -49.5s-25.5 -17.5 -45.5 -17.5c-18 0 -31 5.83301 -39 17.5s-12.667 28.167 -14 49.5z" />
    <glyph glyph-name="parenleft" unicode="(" horiz-adv-x="529" 
d="M87 435c0 95.333 5.50293 188.334 16.5029 279.001s31 182 60 274s68.667 187 119 285s115.5 202.333 195.5 313l73 -48c8.66699 -6.66699 15.167 -15.5 19.5 -26.5s-0.166992 -26.5 -13.5 -46.5c-50.667 -78 -95.334 -155.667 -134.001 -233s-71.334 -157 -98.001 -239
s-47 -167.333 -61 -256s-21 -183.667 -21 -285c0 -50.667 2.33301 -103.167 7 -157.5s11.667 -108.833 21 -163.5s21.166 -108.334 35.499 -161.001s30.5 -101.667 48.5 -147c7.33301 -20.667 7.83301 -36.5 1.5 -47.5s-14.833 -19.833 -25.5 -26.5l-83 -47
c-28.667 58.667 -53.167 119.167 -73.5 181.5s-37 125 -50 188s-22.5 125.167 -28.5 186.5s-9 120.333 -9 177z" />
    <glyph glyph-name="parenright" unicode=")" horiz-adv-x="528" 
d="M-36 -224.5c-1.33301 5.66699 -0.99707 12.3311 1.00293 19.998s6.33301 16.834 13 27.501c50 78 94.5 156.5 133.5 235.5s72 160.333 99 244s47.5 169.834 61.5 258.501s21 180.667 21 276c0 50 -2.33301 102.167 -7 156.5s-12 108.833 -22 163.5
s-22 108.334 -36 161.001s-30.333 101.667 -49 147c-7.33301 20 -8 35.5 -2 46.5s14.667 19.833 26 26.5l85 48c28 -59.333 52 -120 72 -182s36.333 -124.5 49 -187.5s22 -125.167 28 -186.5s9 -120.666 9 -177.999c0 -95.333 -5.33301 -188.333 -16 -279
s-30.334 -182 -59.001 -274s-68.334 -186.833 -119.001 -284.5s-116 -201.834 -196 -312.501l-72 47c-4.66699 3.33301 -8.83398 7.16602 -12.501 11.499s-6.16699 9.33301 -7.5 15z" />
    <glyph glyph-name="asterisk" unicode="*" horiz-adv-x="808" 
d="M172 1085l171.998 104.002c12.667 7.33301 24.834 12.833 36.501 16.5s24.167 6.16699 37.5 7.5c-12 1.33301 -23.5 4 -34.5 8s-22.167 9.66699 -33.5 17l-148 104l52 75l148 -103c10 -6.66699 19.167 -14 27.5 -22s15.5 -16.667 21.5 -26
c-4 11.333 -6.5 22.666 -7.5 33.999s-0.833008 23.666 0.5 36.999l26 204h87l-26 -203c-1.33301 -13.333 -3.66602 -25.666 -6.99902 -36.999s-8 -22.333 -14 -33c7.33301 9.33301 16.166 17.666 26.499 24.999s21.166 14.333 32.499 21l173 102l33 -75l-173 -103
c-12 -6.66699 -23.667 -12.167 -35 -16.5s-23 -7.16602 -35 -8.49902c11.333 -1.33301 22.333 -3.83301 33 -7.5s21 -9.16699 31 -16.5l148 -105l-51 -73l-148 102c-10 6.66699 -19.167 13.334 -27.5 20.001s-15.166 14.667 -20.499 24c6 -22 7.66699 -44.333 5 -67
l-26 -204h-87l26 203c1.33301 12 3.5 23.667 6.5 35s7.5 22 13.5 32c-8 -8.66699 -16.667 -16.334 -26 -23.001s-19.666 -13.334 -30.999 -20.001l-173 -102z" />
    <glyph glyph-name="plus" unicode="+" 
d="M104 621l17 133h417l54 439h143l-54 -439h420l-17 -133h-419l-54 -442h-144l54 442h-417z" />
    <glyph glyph-name="comma" unicode="," horiz-adv-x="459" 
d="M44 126c0 32 11.166 59.3301 33.499 81.9971s51.833 34 88.5 34c20.667 0 38.834 -3.83301 54.501 -11.5s28.667 -18.167 39 -31.5s18.333 -28.666 24 -45.999s8.5 -36.333 8.5 -57c0 -30.667 -4.33301 -62.5 -13 -95.5s-21.334 -65.667 -38.001 -98s-37 -64 -61 -95
s-51.333 -59.5 -82 -85.5l-31 30c-8.66699 8 -13.334 17.667 -14.001 29c0 8 5.5 18.5 16.5 31.5l38 46.5c14.333 18 28.333 38.833 42 62.5s22.834 49.834 27.501 78.501h-13c-35.333 0 -64.166 11.833 -86.499 35.5s-33.5 53.834 -33.5 90.501z" />
    <glyph glyph-name="hyphen" unicode="-" horiz-adv-x="718" 
d="M115 539l18 149h468l-18 -149h-468z" />
    <glyph glyph-name="period" unicode="." horiz-adv-x="479" 
d="M53 113c0 18 3.33301 34.668 10 50.001s15.5 28.833 26.5 40.5s24.5 21 40.5 28s32.667 10.5 50 10.5c18 0 34.833 -3.5 50.5 -10.5s29.334 -16.333 41.001 -28s20.834 -25.334 27.501 -41.001s10 -32.167 10 -49.5c0 -18.667 -3.33301 -35.667 -10 -51
s-15.834 -28.833 -27.501 -40.5s-25.334 -20.667 -41.001 -27s-32.5 -9.5 -50.5 -9.5s-34.833 3.16699 -50.5 9.5s-29 15.333 -40 27s-19.833 25.167 -26.5 40.5s-10 32.333 -10 51z" />
    <glyph glyph-name="slash" unicode="/" horiz-adv-x="856" 
d="M-22 -93l743 1514c10 20 23.5 35.833 40.5 47.5s36.5 17.5 58.5 17.5h75l-738 -1512c-10.667 -22 -26 -38.667 -46 -50s-39.333 -17 -58 -17h-75z" />
    <glyph glyph-name="zero" unicode="0" 
d="M103 572c0 153.333 15.9961 287.171 47.9961 401.504s75 209.166 129 284.499s117.167 131.666 189.5 168.999s148.5 56 228.5 56c59.333 0 114.333 -12.333 165 -37s94.334 -61.334 131.001 -110.001s65.167 -110 85.5 -184s30.5 -160 30.5 -258
c0 -153.333 -16 -287 -48 -401s-75.167 -208.833 -129.5 -284.5s-117.666 -131.834 -189.999 -168.501s-148.5 -55 -228.5 -55c-60 0 -115.167 12.167 -165.5 36.5s-93.666 61 -129.999 110s-64.666 110.167 -84.999 183.5s-30.5 159 -30.5 257zM284.996 562.005
c0 -77.333 6.5 -143.168 19.5 -197.501s30.5 -98.666 52.5 -132.999s48 -59.333 78 -75s62 -23.5 96 -23.5c50 0 99 13.5 147 40.5s90.5 71 127.5 132s66.833 140.5 89.5 238.5s34 217.667 34 359c0 77.333 -6.5 143.333 -19.5 198s-30.833 99.167 -53.5 133.5
s-49.167 59.5 -79.5 75.5s-62.5 24 -96.5 24c-50 0 -98.667 -13.833 -146 -41.5s-89.5 -72 -126.5 -133s-66.667 -140.5 -89 -238.5s-33.5 -217.667 -33.5 -359z" />
    <glyph glyph-name="one" unicode="1" 
d="M209 0l17.001 134.001h288l125 1015c1.33301 13.333 3 27.166 5 41.499s4.66699 29.166 8 44.499l-262 -225c-9.33301 -6.66699 -18.5 -11.167 -27.5 -13.5s-17 -2.66602 -24 -0.999023s-13.333 4.5 -19 8.5s-9.83398 8 -12.501 12l-45 77l449 377h144l-164 -1336h263
l-17 -134h-728z" />
    <glyph glyph-name="two" unicode="2" 
d="M60 0l7.99609 59.999c1.33301 12 5.33301 25 12 39s16.667 26.333 30 37l487 474c46 45.333 87.333 88 124 128s67.667 80 93 120s44.833 80.5 58.5 121.5s20.5 85.833 20.5 134.5c0 36 -5.33301 67.5 -16 94.5s-25.167 49.667 -43.5 68s-40.166 32 -65.499 41
s-53 13.5 -83 13.5c-33.333 0 -64.666 -5.5 -93.999 -16.5s-56.166 -26.333 -80.499 -46s-45.666 -43.167 -63.999 -70.5s-32.833 -57.333 -43.5 -90c-10 -23.333 -22.167 -38.833 -36.5 -46.5s-33.5 -9.5 -57.5 -5.5l-90 15c17.333 66.667 41.833 125.667 73.5 177
s69 94.5 112 129.5s90.667 61.333 143 79s107.833 26.5 166.5 26.5c53.333 0 102 -8 146 -24s82 -39.333 114 -70s56.833 -67.667 74.5 -111s26.5 -92.666 26.5 -147.999c0 -62.667 -9.33301 -119.834 -28 -171.501s-43.834 -100.667 -75.501 -147
s-68.5 -91.166 -110.5 -134.499l-134 -133l-411 -404c28.667 8 57.334 14.5 86.001 19.5s56 7.5 82 7.5h440c19.333 0 33.833 -5.66699 43.5 -17s13.167 -26 10.5 -44l-12 -106h-906z" />
    <glyph glyph-name="three" unicode="3" 
d="M94 366l80.0039 30.998c22 8.66699 42 11 60 7s30 -14.667 36 -32l23.5 -68.5c9 -27 22.333 -53.167 40 -78.5s41.667 -46.833 72 -64.5s69.5 -26.5 117.5 -26.5c50 0 94.667 9.83301 134 29.5s72.5 45.167 99.5 76.5s47.667 66.833 62 106.5s21.5 79.834 21.5 120.501
c0 31.333 -5.16699 60.5 -15.5 87.5s-27.5 50.333 -51.5 70s-56.167 35.167 -96.5 46.5s-90.5 17 -150.5 17l16 127c120 2.66699 208.667 30.834 266 84.501s86 127.167 86 220.5c0 34.667 -5.16699 65.334 -15.5 92.001s-24.5 48.834 -42.5 66.501
s-39.667 30.834 -65 39.501s-53 13 -83 13c-33.333 0 -64.833 -5.5 -94.5 -16.5s-56.667 -26.333 -81 -46s-45.5 -43.167 -63.5 -70.5s-32 -57.333 -42 -90c-11.333 -23.333 -24 -38.833 -38 -46.5s-33 -9.5 -57 -5.5l-90 15c17.333 66.667 41.833 125.667 73.5 177
s69 94.5 112 129.5s90.667 61.333 143 79s107.833 26.5 166.5 26.5c53.333 0 101.666 -7.83301 144.999 -23.5s80.333 -37.834 111 -66.501s54.334 -63.167 71.001 -103.5s25 -85.5 25 -135.5c0 -54.667 -6.66699 -103.167 -20 -145.5s-32.333 -79 -57 -110
s-54.5 -57.333 -89.5 -79s-74.167 -38.5 -117.5 -50.5c77.333 -23.333 135.166 -60.5 173.499 -111.5s57.5 -113.833 57.5 -188.5s-14 -141.834 -42 -201.501s-65.333 -110.5 -112 -152.5s-100.834 -74.333 -162.501 -97s-125.834 -34 -192.501 -34
c-70.667 0 -130.334 9.66699 -179.001 29s-88.667 46.166 -120 80.499s-55.833 74.833 -73.5 121.5s-31.167 97 -40.5 151z" />
    <glyph glyph-name="four" unicode="4" 
d="M55 518l771.999 949h165l-115 -940h200l-12 -101c-1.33301 -10.667 -5.83301 -19.667 -13.5 -27s-17.5 -11 -29.5 -11h-163l-47 -388h-154l48 388h-596c-13.333 0 -24.166 3.83301 -32.499 11.5s-13.5 17.167 -15.5 28.5zM242.999 527h480l76 617
c1.33301 16 3.5 32.667 6.5 50s6.83301 35.333 11.5 54z" />
    <glyph glyph-name="five" unicode="5" 
d="M89 136l63.001 76.0029c14.667 16.667 31.334 25 50.001 25c12.667 0 26.334 -5.33301 41.001 -16s32.5 -22.334 53.5 -35.001s46 -24.334 75 -35.001s64.167 -16 105.5 -16c52.667 0 100.5 10 143.5 30s79.667 47.667 110 83s53.666 77.333 69.999 126
s24.5 102.334 24.5 161.001c0 38 -5.16699 72.667 -15.5 104s-26.333 58.166 -48 80.499s-48.667 39.666 -81 51.999s-70.166 18.5 -113.499 18.5c-33.333 0 -68.333 -3.16699 -105 -9.5s-75.334 -15.833 -116.001 -28.5l-106 31l193 683h644l-10 -76
c-2.66699 -24.667 -12.834 -45.167 -30.501 -61.5s-45.5 -24.5 -83.5 -24.5h-415l-111 -392c72 16.667 137 25 195 25c63.333 0 119 -9.66699 167 -29s87.833 -46.333 119.5 -81s55.667 -75.167 72 -121.5s24.5 -96.5 24.5 -150.5c0 -86.667 -15 -165.167 -45 -235.5
s-70.333 -130.333 -121 -180s-109.667 -88 -177 -115s-138.333 -40.5 -213 -40.5c-40 0 -77.833 4.16699 -113.5 12.5s-68.667 19.5 -99 33.5s-57.833 30.167 -82.5 48.5s-46.334 37.5 -65.001 57.5z" />
    <glyph glyph-name="six" unicode="6" horiz-adv-x="1092" 
d="M123 409c0 43.333 4.49805 85.333 13.498 126s22.667 81.834 41 123.501s41.5 84.167 69.5 127.5s61 88.666 99 135.999l403 501c10 12 23.833 22.167 41.5 30.5s36.834 12.5 57.501 12.5h157l-469 -551c-12.667 -16 -25.167 -31 -37.5 -45s-23.833 -28 -34.5 -42
c33.333 22 69.333 39 108 51s79.667 18 123 18c49.333 0 95.333 -8.5 138 -25.5s79.667 -41.5 111 -73.5s56.166 -71.333 74.499 -118s27.5 -99.667 27.5 -159c0 -76 -13.5 -146.667 -40.5 -212s-64.167 -122 -111.5 -170s-103.166 -85.833 -167.499 -113.5
s-134.166 -41.5 -209.499 -41.5c-61.333 0 -116.333 10 -165 30s-90 48.667 -124 86s-60 82 -78 134s-27 110.333 -27 175zM290.998 400c0 -38.667 5.33105 -74.499 15.998 -107.499s26 -61.667 46 -86s45 -43.166 75 -56.499s64.333 -20 103 -20
c48.667 0 93.5 9.16699 134.5 27.5s76.333 43.833 106 76.5s52.834 71.167 69.501 115.5s25 92.833 25 145.5c0 40.667 -5.83301 77.5 -17.5 110.5s-28 61 -49 84s-46.667 40.833 -77 53.5s-64.166 19 -101.499 19c-48.667 0 -93.167 -9.83301 -133.5 -29.5
s-75 -45.834 -104 -78.501s-51.667 -70.834 -68 -114.501s-24.5 -90.167 -24.5 -139.5z" />
    <glyph glyph-name="seven" unicode="7" 
d="M187 0l710.997 1218c10.667 17.333 21.334 32.833 32.001 46.5s22.334 26.834 35.001 39.501h-698c-11.333 0 -20.666 4.33301 -27.999 13s-10.333 19 -9 31l15 118h920l-9 -78c-3.33301 -22 -8.5 -40.333 -15.5 -55l-18.5 -38l-705 -1233
c-10 -18 -23.333 -32.833 -40 -44.5s-38 -17.5 -64 -17.5h-126z" />
    <glyph glyph-name="eight" unicode="8" 
d="M105 349c0 110 27.001 200.169 81.001 270.502s132 119.166 234 146.499c-60.667 26 -106.167 63.5 -136.5 112.5s-45.5 106.833 -45.5 173.5c0 60 11.5 116.167 34.5 168.5s55 98 96 137s89.667 69.667 146 92s117.833 33.5 184.5 33.5
c56.667 0 107.667 -8.83301 153 -26.5s83.833 -42 115.5 -73s56 -67.167 73 -108.5s25.5 -85.666 25.5 -132.999c0 -90.667 -22.5 -168.834 -67.5 -234.501s-110.167 -113.5 -195.5 -143.5c73.333 -24 129.166 -62 167.499 -114s57.5 -117.333 57.5 -196
c0 -72.667 -13 -138 -39 -196s-61.667 -107.333 -107 -148s-99.333 -71.834 -162 -93.501s-131 -32.5 -205 -32.5c-62 0 -118.333 8.66699 -169 26s-93.667 41.833 -129 73.5s-62.833 70 -82.5 115s-29.5 95.167 -29.5 150.5zM288.001 362.002
c0 -34.667 5.50293 -66.667 16.5029 -96s26.667 -54.333 47 -75s45.666 -37 75.999 -49s64.833 -18 103.5 -18c48.667 0 92.5 8 131.5 24s72.167 38.5 99.5 67.5s48.333 63.833 63 104.5s22 85.667 22 135c0 42 -6.66699 77.833 -20 107.5s-31.333 54.167 -54 73.5
s-48.834 33.166 -78.501 41.499s-60.834 12.5 -93.501 12.5c-38 0 -75.667 -5.66699 -113 -17s-70.833 -29.666 -100.5 -54.999s-53.667 -59 -72 -101s-27.5 -93.667 -27.5 -155zM410.004 1051c0 -28.667 3.66406 -56.167 10.9971 -82.5s19.333 -49.666 36 -69.999
s38.334 -36.666 65.001 -48.999s58.667 -18.5 96 -18.5c46 0 86.333 8.16699 121 24.5s63.334 38.166 86.001 65.499s39.667 59.166 51 95.499s17 74.833 17 115.5c0 29.333 -4.5 57 -13.5 83s-22.167 48.833 -39.5 68.5s-39.166 35.167 -65.499 46.5s-56.833 17 -91.5 17
c-44.667 0 -84 -8 -118 -24s-62.5 -37.167 -85.5 -63.5s-40.333 -57.5 -52 -93.5s-17.5 -74.333 -17.5 -115z" />
    <glyph glyph-name="nine" unicode="9" 
d="M187 966c0 72.667 13.1709 140.334 39.5039 203.001s62.333 117.167 108 163.5s99.667 83 162 110s129.166 40.5 200.499 40.5c59.333 0 112.666 -10.167 159.999 -30.5s87.166 -48.333 119.499 -84s57.166 -78.334 74.499 -128.001s26 -104.167 26 -163.5
c0 -50.667 -4.83301 -97.5 -14.5 -140.5s-23.834 -84.667 -42.501 -125s-41.5 -80.833 -68.5 -121.5s-57.5 -83.667 -91.5 -129l-390 -520c-9.33301 -11.333 -22.666 -21 -39.999 -29s-36 -12 -56 -12h-162l484 587l44.5 55l39.5 51
c-37.333 -28.667 -78.333 -50.667 -123 -66s-91 -23 -139 -23c-46 0 -88.833 8.16699 -128.5 24.5s-74.5 40 -104.5 71s-53.833 69 -71.5 114s-26.5 95.833 -26.5 152.5zM367.004 986c0 -77.333 19.833 -137.834 59.5 -181.501s95.834 -65.5 168.501 -65.5
c48 0 91.333 9.33301 130 28s71.667 43.5 99 74.5s48.333 66.833 63 107.5s22 83.334 22 128.001c0 38.667 -5.33301 74 -16 106s-26.334 59.333 -47.001 82s-45.167 40.167 -73.5 52.5s-59.833 18.5 -94.5 18.5c-45.333 0 -87 -8.5 -125 -25.5s-70.833 -40.833 -98.5 -71.5
s-49.167 -67.5 -64.5 -110.5s-23 -90.5 -23 -142.5z" />
    <glyph glyph-name="colon" unicode=":" horiz-adv-x="508" 
d="M68 113c0 18 3.33301 34.668 10 50.001s15.5 28.833 26.5 40.5s24.5 21 40.5 28s32.667 10.5 50 10.5c18 0 34.833 -3.5 50.5 -10.5s29.334 -16.333 41.001 -28s20.834 -25.334 27.501 -41.001s10 -32.167 10 -49.5c0 -18.667 -3.33301 -35.667 -10 -51
s-15.834 -28.833 -27.501 -40.5s-25.334 -20.667 -41.001 -27s-32.5 -9.5 -50.5 -9.5s-34.833 3.16699 -50.5 9.5s-29 15.333 -40 27s-19.833 25.167 -26.5 40.5s-10 32.333 -10 51zM154 881.001c0 18 3.33301 34.668 10 50.001s15.5 28.833 26.5 40.5s24.5 21 40.5 28
s32.667 10.5 50 10.5c18 0 34.833 -3.5 50.5 -10.5s29.334 -16.333 41.001 -28s20.834 -25.334 27.501 -41.001s10 -32.167 10 -49.5c0 -18.667 -3.33301 -35.667 -10 -51s-15.834 -28.833 -27.501 -40.5s-25.334 -20.667 -41.001 -27s-32.5 -9.5 -50.5 -9.5
s-34.833 3.16699 -50.5 9.5s-29 15.333 -40 27s-19.833 25.167 -26.5 40.5s-10 32.333 -10 51z" />
    <glyph glyph-name="semicolon" unicode=";" horiz-adv-x="531" 
d="M83 126c0 32 11.166 59.3301 33.499 81.9971s51.833 34 88.5 34c20.667 0 38.834 -3.83301 54.501 -11.5s28.667 -18.167 39 -31.5s18.333 -28.666 24 -45.999s8.5 -36.333 8.5 -57c0 -30.667 -4.33301 -62.5 -13 -95.5s-21.334 -65.667 -38.001 -98s-37 -64 -61 -95
s-51.333 -59.5 -82 -85.5l-31 30c-8.66699 8 -13.334 17.667 -14.001 29c0 8 5.5 18.5 16.5 31.5l38 46.5c14.333 18 28.333 38.833 42 62.5s22.834 49.834 27.501 78.501h-13c-35.333 0 -64.166 11.833 -86.499 35.5s-33.5 53.834 -33.5 90.501zM164.999 880.997
c0 18 3.33301 34.668 10 50.001s15.5 28.833 26.5 40.5s24.5 21 40.5 28s32.667 10.5 50 10.5c18 0 34.833 -3.5 50.5 -10.5s29.334 -16.333 41.001 -28s20.834 -25.334 27.501 -41.001s10 -32.167 10 -49.5c0 -18.667 -3.33301 -35.667 -10 -51
s-15.834 -28.833 -27.501 -40.5s-25.334 -20.667 -41.001 -27s-32.5 -9.5 -50.5 -9.5s-34.833 3.16699 -50.5 9.5s-29 15.333 -40 27s-19.833 25.167 -26.5 40.5s-10 32.333 -10 51z" />
    <glyph glyph-name="less" unicode="&#x3c;" 
d="M171 651l6 57l3 19l842 411l-15 -130c-1.33301 -11.333 -5.5 -21.333 -12.5 -30s-17.167 -16.667 -30.5 -24l-490 -233c-27.333 -13.333 -59 -24 -95 -32c32 -8 61.333 -19 88 -33l431 -232c12 -6.66699 20.5 -14.5 25.5 -23.5s6.83301 -18.833 5.5 -29.5l-18 -131z" />
    <glyph glyph-name="equal" unicode="=" 
d="M131 453l16 134h878l-16 -134h-878zM174 794l16 134h877l-15 -134h-878z" />
    <glyph glyph-name="greater" unicode="&#x3e;" 
d="M180 240l17 130.999c1.33301 10.667 5.16602 20.5 11.499 29.5s16.833 16.833 31.5 23.5l488 232c14.667 6.66699 29.834 12.834 45.501 18.501s31.834 10.167 48.501 13.5c-16.667 4 -32 8.66699 -46 14s-27.667 11.666 -41 18.999l-431 233
c-12 6.66699 -20.333 14.334 -25 23.001s-6.33398 19 -5.00098 31l16 130l742 -411l-7 -57l-2 -19z" />
    <glyph glyph-name="question" unicode="?" horiz-adv-x="857" 
d="M162 1334c22.667 20 46.666 38.8281 71.999 56.4951s52.833 33.334 82.5 47.001s61.667 24.5 96 32.5s70.5 12 108.5 12c48 0 91.333 -7.16699 130 -21.5s71.5 -34.166 98.5 -59.499s47.667 -55.166 62 -89.499s21.5 -71.833 21.5 -112.5
c0 -57.333 -8.16699 -106.166 -24.5 -146.499s-36.666 -75.333 -60.999 -105s-51.166 -55.167 -80.499 -76.5l-84.5 -62.5c-27 -20.333 -51 -41.333 -72 -63s-35.167 -47.167 -42.5 -76.5l-38 -158h-122l11 170c1.33301 32.667 11.166 61.5 29.499 86.5s40.333 48.5 66 70.5
s53.334 43.667 83.001 65s57.167 44.5 82.5 69.5s46.5 53 63.5 84s25.5 67.167 25.5 108.5c0 53.333 -16.333 95.333 -49 126s-76.667 46 -132 46c-38 0 -71 -5 -99 -15s-52 -21.167 -72 -33.5s-36.667 -23.666 -50 -33.999s-24.666 -15.5 -33.999 -15.5
c-8.66699 0 -15.334 1.66699 -20.001 5s-9.33398 9.33301 -14.001 18zM217.999 112.995c0 18 3.33301 34.668 10 50.001s15.5 28.833 26.5 40.5s24.333 21 40 28s32.5 10.5 50.5 10.5s34.833 -3.5 50.5 -10.5s29.334 -16.333 41.001 -28s20.834 -25.334 27.501 -41.001
s10 -32.167 10 -49.5c0 -18.667 -3.33301 -35.667 -10 -51s-15.834 -28.833 -27.501 -40.5s-25.334 -20.667 -41.001 -27s-32.5 -9.5 -50.5 -9.5s-34.833 3.16699 -50.5 9.5s-29 15.333 -40 27s-19.833 25.167 -26.5 40.5s-10 32.333 -10 51z" />
    <glyph glyph-name="at" unicode="@" horiz-adv-x="1573" 
d="M90 461c0 86.667 10.334 169.666 31.001 248.999s49.167 153.333 85.5 222s80.166 131.167 131.499 187.5s107.666 104.5 168.999 144.5s126.833 71 196.5 93s141.834 33 216.501 33c80 0 155.167 -13.5 225.5 -40.5s132 -66.167 185 -117.5
s94.833 -113.833 125.5 -187.5s46 -157.5 46 -251.5c0 -86.667 -11.667 -166.834 -35 -240.501s-55.166 -137.167 -95.499 -190.5s-87.166 -95.333 -140.499 -126s-109.666 -46 -168.999 -46c-48 0 -86 12.667 -114 38s-43.333 64.333 -46 117
c-43.333 -54.667 -87.833 -93.667 -133.5 -117s-92.834 -35 -141.501 -35c-32.667 0 -61.167 5.83301 -85.5 17.5s-44.5 27.834 -60.5 48.501s-27.833 45 -35.5 73s-11.5 58.333 -11.5 91c0 40.667 5.5 82.5 16.5 125.5s27.167 84.5 48.5 124.5s47.666 77.833 78.999 113.5
s67 66.834 107 93.501s84.667 47.667 134 63s102.666 23 159.999 23c43.333 0 80.666 -3.5 111.999 -10.5s60.666 -17.167 87.999 -30.5l-135 -369c-18.667 -52.667 -29.667 -95.5 -33 -128.5s-1.66602 -58.667 5.00098 -77s17.5 -30.833 32.5 -37.5s32.167 -10 51.5 -10
c35.333 0 69.5 12 102.5 36s62.333 57.667 88 101s46.334 95 62.001 155s23.5 126 23.5 198c0 79.333 -11.5 149 -34.5 209s-55.333 110 -97 150s-91.334 70.333 -149.001 91s-121.167 31 -190.5 31c-92 0 -179.5 -20 -262.5 -60s-155.667 -95.833 -218 -167.5
s-112 -156.667 -149 -255s-55.5 -205.833 -55.5 -322.5c0 -96 13.667 -181.333 41 -256s65.5 -137 114.5 -187s107.167 -88 174.5 -114s141.333 -39 222 -39c96 0 181 10.833 255 32.5s136 48.5 186 80.5c10.667 6 20.334 9.5 29.001 10.5s16 0.333008 22 -2
s10.667 -6.33301 14 -12s6 -11.5 8 -17.5l13 -52c-73.333 -49.333 -154.333 -88 -243 -116s-187.667 -42 -297 -42c-100 0 -190.833 16.333 -272.5 49s-152 79.5 -211 140.5s-104.667 135 -137 222s-48.5 185.167 -48.5 294.5zM573.001 441.999
c0 -38.667 8.66797 -70.333 26.001 -95s43.333 -37 78 -37c18.667 0 38.167 3.5 58.5 10.5s40.333 19.167 60 36.5s39.167 40.833 58.5 70.5s36.666 67.5 51.999 113.5l111 303c-24 6 -50 9 -78 9c-50 0 -97.167 -12.167 -141.5 -36.5s-83 -55.833 -116 -94.5
s-59.333 -82.5 -79 -131.5s-29.5 -98.5 -29.5 -148.5z" />
    <glyph glyph-name="A" unicode="A" horiz-adv-x="1292" 
d="M-67 0l718.999 1467h195l359 -1467h-147c-17.333 -0 -30.666 4.33301 -39.999 13s-16.333 19.667 -21 33l-79 358h-597l-168 -358c-6 -12 -15.5 -22.667 -28.5 -32s-27.167 -14 -42.5 -14h-150zM385.999 544l501.999 -0.000976562l-134 607
c-3.33301 18.667 -7.5 39.834 -12.5 63.501s-9.5 49.5 -13.5 77.5c-10 -28 -20.167 -54 -30.5 -78s-19.166 -45.333 -26.499 -64z" />
    <glyph glyph-name="B" unicode="B" horiz-adv-x="1232" 
d="M100 0l181.002 1467h435c76 0 141.333 -7.66699 196 -23s99.834 -37.166 135.501 -65.499s62 -62.833 79 -103.5s25.5 -85.667 25.5 -135c0 -44 -6.33301 -85.833 -19 -125.5s-31.667 -76.167 -57 -109.5s-56.833 -63 -94.5 -89s-81.834 -46.667 -132.501 -62
c88 -20 154.167 -54.833 198.5 -104.5s66.5 -112.5 66.5 -188.5c0 -67.333 -12.167 -129.333 -36.5 -186s-59.333 -105.334 -105 -146.001s-101.334 -72.334 -167.001 -95.001s-139.834 -34 -222.501 -34h-483zM310.002 152.001h288c54.667 0 102.5 7.16699 143.5 21.5
s75 34.666 102 60.999s47.333 58.333 61 96s20.5 80.167 20.5 127.5c0 64.667 -21.667 116.334 -65 155.001s-109.333 58 -198 58h-288zM390.002 806.001l238.001 -0.000976562c55.333 0 103.666 7.33301 144.999 22s75.833 35.167 103.5 61.5s48.167 57.833 61.5 94.5
s20 77.334 20 122.001c0 70 -21.167 122.667 -63.5 158s-107.833 53 -196.5 53h-244z" />
    <glyph glyph-name="C" unicode="C" horiz-adv-x="1278" 
d="M100 621c0 127.333 19.8311 243.834 59.498 349.501s94.167 196.667 163.5 273s150.833 135.5 244.5 177.5s194.167 63 301.5 63c52 0 99.167 -4.5 141.5 -13.5s81 -22 116 -39s66.667 -37.5 95 -61.5s54.5 -50.667 78.5 -80l-65 -80
c-5.33301 -6.66699 -11.5 -12.167 -18.5 -16.5s-15.5 -6.5 -25.5 -6.5c-12 0 -24.833 6.83301 -38.5 20.5s-32.334 28.5 -56.001 44.5s-54.167 30.833 -91.5 44.5s-85.666 20.5 -144.999 20.5c-80 0 -154.167 -15.833 -222.5 -47.5s-127.833 -77.167 -178.5 -136.5
s-90.5 -130.833 -119.5 -214.5s-43.5 -177.834 -43.5 -282.501c0 -76 9.83301 -144 29.5 -204s47.167 -111 82.5 -153s77.166 -74.333 125.499 -97s101.5 -34 159.5 -34c45.333 0 85.333 3.83301 120 11.5s65.334 17 92.001 28s49.334 23.167 68.001 36.5l49 36l35.5 27.5
c9.66699 7.66699 18.167 11.5 25.5 11.5c6 0 11.167 -1.16699 15.5 -3.5s7.83301 -5.16602 10.5 -8.49902l67 -83c-64 -69.333 -138 -123.333 -222 -162s-181.333 -58 -292 -58c-88 0 -166.667 15.667 -236 47s-128.166 75.166 -176.499 131.499s-85.333 123.333 -111 201
s-38.5 163.5 -38.5 257.5z" />
    <glyph glyph-name="D" unicode="D" horiz-adv-x="1448" 
d="M100 0l180.999 1467h506c90 0 171.333 -15.333 244 -46s134.334 -73.834 185.001 -129.501s89.667 -122.167 117 -199.5s41 -162.333 41 -255c0 -124.667 -19.333 -238.5 -58 -341.5s-92 -191.167 -160 -264.5s-149 -130.166 -243 -170.499s-196.333 -60.5 -307 -60.5
h-506zM310.999 155l315.001 0.000976562c81.333 0 155.666 15.5 222.999 46.5s125.333 75.667 174 134s86.5 129.333 113.5 213s40.5 178.5 40.5 284.5c0 74 -9.33301 140.5 -28 199.5s-45.5 109.167 -80.5 150.5s-77.833 73.166 -128.5 95.499s-107.667 33.5 -171 33.5
h-314z" />
    <glyph glyph-name="E" unicode="E" horiz-adv-x="1101" 
d="M100 0l181 1467h835l-19 -156h-643l-62 -495h520l-19 -150h-519l-63 -510h645l-19 -156h-837z" />
    <glyph glyph-name="F" unicode="F" horiz-adv-x="1085" 
d="M100 0l181 1467h835l-19 -156h-643l-65 -523h550l-20 -155h-548l-78 -633h-193z" />
    <glyph glyph-name="G" unicode="G" horiz-adv-x="1393" 
d="M100 629c0 126 19.667 241.499 59 346.499s93.666 195.167 162.999 270.5s151.666 133.833 246.999 175.5s199.333 62.5 312 62.5c57.333 0 109 -4.83301 155 -14.5s88 -23 126 -40s72.167 -37.167 102.5 -60.5s58.166 -48.666 83.499 -75.999l-62 -80
c-10 -14.667 -22 -23.5 -36 -26.5s-28.667 0.166992 -44 9.5c-15.333 8.66699 -32 20 -50 34s-39.833 27.333 -65.5 40s-56.667 23.667 -93 33s-80.166 14 -131.499 14c-84 0 -161 -16 -231 -48s-130 -77.833 -180 -137.5s-88.833 -131.334 -116.5 -215.001
s-41.5 -177.167 -41.5 -280.5c0 -77.333 10 -146.666 30 -207.999s48.5 -113.5 85.5 -156.5s81.5 -76 133.5 -99s109.667 -34.5 173 -34.5c35.333 0 68.333 2 99 6s59.667 9.66699 87 17s53.333 16.333 78 27s49.334 22.667 74.001 36l41 332h-205
c-12 0 -21.5 3.66699 -28.5 11s-9.83301 16 -8.5 26l12 109h421l-69 -560c-36.667 -26.667 -74.667 -49.834 -114 -69.501s-80.833 -36.167 -124.5 -49.5s-89.667 -23.166 -138 -29.499s-100.5 -9.5 -156.5 -9.5c-88.667 0 -169.167 15.833 -241.5 47.5
s-134.166 76 -185.499 133s-90.833 125 -118.5 204s-41.5 165.833 -41.5 260.5z" />
    <glyph glyph-name="H" unicode="H" horiz-adv-x="1454" 
d="M100 0l181 1467h192l-81 -658h716l81 658h193l-181 -1467h-192l82 670h-716l-82 -670h-193z" />
    <glyph glyph-name="I" unicode="I" horiz-adv-x="545" 
d="M100 0l180 1467h192l-179 -1467h-193z" />
    <glyph glyph-name="J" unicode="J" horiz-adv-x="820" 
d="M-37 12l13.002 111.999c2 10 6.16699 18.833 12.5 26.5s16.166 11.5 29.499 11.5c7.33301 0 15.333 -0.833008 24 -2.5l30 -6c11.333 -2.33301 24.333 -4.5 39 -6.5s32 -3 52 -3c35.333 0 68.666 5.83301 99.999 17.5s59.5 30.834 84.5 57.501s46.167 61.5 63.5 104.5
s30 95.833 38 158.5l120 985h192l-121 -981c-10 -81.333 -27.833 -153.166 -53.5 -215.499s-58.834 -114.833 -99.501 -157.5s-88.167 -74.834 -142.5 -96.501s-115.166 -32.5 -182.499 -32.5c-36.667 0 -71 2.33301 -103 7s-64 11.667 -96 21z" />
    <glyph glyph-name="K" unicode="K" horiz-adv-x="1265" 
d="M100 0l179.996 1467h191l-80 -646h68c24 0 43.667 3.33301 59 10s30 17.667 44 33l508 557c14.667 18.667 29.834 31 45.501 37s33.5 9 53.5 9h163l-586 -634c-27.333 -31.333 -53.666 -53 -78.999 -65c16.667 -6.66699 31.167 -15.667 43.5 -27
s23.5 -26.666 33.5 -45.999l443 -695h-165c-25.333 0 -43.166 3.66699 -53.499 11s-19.166 17.333 -26.499 30l-385 586c-10 17.333 -21.833 29.5 -35.5 36.5s-35.167 10.5 -64.5 10.5h-83l-83 -674h-191z" />
    <glyph glyph-name="L" unicode="L" horiz-adv-x="973" 
d="M100 0l181 1467h191l-161 -1305h580l-20 -162h-771z" />
    <glyph glyph-name="M" unicode="M" horiz-adv-x="1766" 
d="M100 0l181.002 1467h141c17.333 0 29.666 -2.16699 36.999 -6.5s15.666 -12.833 24.999 -25.5l356 -923c4 -13.333 7.83301 -26.833 11.5 -40.5s7.16699 -27.834 10.5 -42.501c6.66699 14.667 13.5 28.834 20.5 42.501s14.5 27.167 22.5 40.5l578 923
c11.333 13.333 21.5 22 30.5 26s21.833 6 38.5 6h143l-182 -1467h-166l133 1084c2 13.333 4.5 28.333 7.5 45l9.5 51l-571 -922c-18 -29.333 -42.667 -44 -74 -44h-28c-15.333 0 -28.5 3.83301 -39.5 11.5s-18.833 18.5 -23.5 32.5l-354 923
c-0.666992 -17.333 -1.5 -33.833 -2.5 -49.5s-2.16699 -30.5 -3.5 -44.5l-132 -1087h-169z" />
    <glyph glyph-name="N" unicode="N" horiz-adv-x="1454" 
d="M100 0l181 1467h99c17.333 0 29.666 -2 36.999 -6s15 -12.667 23 -26l634 -1122c0.666992 16 1.66699 31 3 45l4 40l132 1069h169l-181 -1467h-95c-16 0 -28.667 2.83301 -38 8.5s-18.666 14.834 -27.999 27.501l-632 1121l-7 -72l-132 -1085h-169z" />
    <glyph glyph-name="O" unicode="O" horiz-adv-x="1526" 
d="M100 628c0 124.667 19.501 239.334 58.501 344.001s93 195 162 271s150.5 135.167 244.5 177.5s195.667 63.5 305 63.5c90 0 171.167 -16.333 243.5 -49s133.666 -77.667 183.999 -135s89 -125.333 116 -204s40.5 -164.667 40.5 -258
c0 -124.667 -19.333 -239.334 -58 -344.001s-92.167 -194.667 -160.5 -270s-149.5 -134 -243.5 -176s-196.333 -63 -307 -63c-90 0 -171 16 -243 48s-133.5 76.5 -184.5 133.5s-90 124.667 -117 203s-40.5 164.5 -40.5 258.5zM297.001 633
c0 -74.667 9.33203 -141.999 27.999 -201.999s45.834 -111.167 81.501 -153.5s78.667 -75 129 -98s107.5 -34.5 171.5 -34.5c81.333 0 155.666 16.167 222.999 48.5s125.333 78.333 174 138s86.334 132 113.001 217s40 180.167 40 285.5c0 74.667 -9.5 142 -28.5 202
s-46 111.167 -81 153.5s-78 75.166 -129 98.499s-108.167 35 -171.5 35c-80.667 0 -154.667 -16.167 -222 -48.5s-125.333 -78.5 -174 -138.5s-86.5 -132.5 -113.5 -217.5s-40.5 -180.167 -40.5 -285.5z" />
    <glyph glyph-name="P" unicode="P" horiz-adv-x="1150" 
d="M100 0l180 1467h404c78 0 145.667 -9.16699 203 -27.5s104.5 -44.5 141.5 -78.5s64.833 -75 83.5 -123s28 -101.333 28 -160c0 -77.333 -12.667 -148.166 -38 -212.499s-62 -119.666 -110 -165.999s-107.333 -82.666 -178 -108.999s-151.667 -39.5 -243 -39.5h-213
l-67 -551h-191zM377 701.997l213.001 0.00195312c58 0 109.167 9 153.5 27s81.5 42.833 111.5 74.5s52.833 69.5 68.5 113.5s23.5 92 23.5 144c0 39.333 -5.83301 74.666 -17.5 105.999s-29 58.166 -52 80.499s-52.333 39.5 -88 51.5s-76.834 18 -123.501 18h-213z" />
    <glyph glyph-name="Q" unicode="Q" horiz-adv-x="1526" 
d="M100 628c0 124.667 19.501 239.332 58.501 343.999s93 195 162 271s150.5 135.167 244.5 177.5s195.667 63.5 305 63.5c90 0 171.167 -16.333 243.5 -49s133.666 -77.667 183.999 -135s89 -125.333 116 -204s40.5 -164.667 40.5 -258
c0 -82.667 -8.66699 -160.834 -26 -234.501s-41.833 -142.167 -73.5 -205.5s-70.5 -120.166 -116.5 -170.499s-97 -93.5 -153 -129.5l297 -402h-154c-24 0 -44.667 3.33301 -62 10s-33 18.334 -47 35.001l-200 279c-36.667 -11.333 -74.667 -20 -114 -26s-79.333 -9 -120 -9
c-90 0 -171 16 -243 48s-133.5 76.5 -184.5 133.5s-90 124.667 -117 203s-40.5 164.5 -40.5 258.5zM297.001 632.998c0 -74.667 9.33203 -141.999 27.999 -201.999s45.834 -111.167 81.501 -153.5s78.667 -75 129 -98s107.5 -34.5 171.5 -34.5
c81.333 0 155.666 16.167 222.999 48.5s125.333 78.333 174 138s86.334 132 113.001 217s40 180.167 40 285.5c0 74.667 -9.5 142 -28.5 202s-46 111.167 -81 153.5s-78 75.166 -129 98.499s-108.167 35 -171.5 35c-80.667 0 -154.667 -16.167 -222 -48.5
s-125.333 -78.5 -174 -138.5s-86.5 -132.5 -113.5 -217.5s-40.5 -180.167 -40.5 -285.5z" />
    <glyph glyph-name="R" unicode="R" horiz-adv-x="1195" 
d="M100 0l179.999 1466.99h386c78 0 145.333 -8.16699 202 -24.5s103.667 -39.666 141 -69.999s65 -67.166 83 -110.499s27 -91.666 27 -144.999c0 -59.333 -8.83301 -114.666 -26.5 -165.999s-43.167 -97.166 -76.5 -137.499s-73.666 -74.666 -120.999 -102.999
s-100.666 -49.5 -159.999 -63.5c22 -15.333 40.333 -35.666 55 -60.999l316 -586h-170c-34.667 0 -58.667 13.667 -72 41l-276 528c-8.66699 17.333 -18.834 29.333 -30.501 36s-30.167 10 -55.5 10h-135l-76 -615h-191zM383.999 754.993l187.001 -0.000976562
c58 0 109.333 8.16699 154 24.5s82.167 39.333 112.5 69s53.166 64.834 68.499 105.501s23 85 23 133c0 74.667 -23.5 131.667 -70.5 171s-117.167 59 -210.5 59h-194z" />
    <glyph glyph-name="S" unicode="S" horiz-adv-x="1040" 
d="M13 175l68.0029 90.999c5.33301 7.33301 12.166 13.5 20.499 18.5s17.166 7.5 26.499 7.5c12.667 0 26.667 -7.66699 42 -23s34.5 -32.5 57.5 -51.5s51.667 -36.167 86 -51.5s76.833 -23 127.5 -23c47.333 0 90 7.5 128 22.5s70.167 35.833 96.5 62.5
s46.666 58.667 60.999 96s21.5 78.333 21.5 123c0 37.333 -8.33301 68.666 -25 93.999s-38.334 46.5 -65.001 63.5s-57 31.833 -91 44.5l-104 38.5c-35.333 13 -70.166 27.667 -104.499 44s-64.833 37 -91.5 62s-48.167 56 -64.5 93s-24.5 82.5 -24.5 136.5
c0 60 11 117.667 33 173s53.5 104.166 94.5 146.499s91 76.166 150 101.499s125.167 38 198.5 38c75.333 0 143 -14.333 203 -43s109.667 -68 149 -118l-57 -81c-7.33301 -9.33301 -14.333 -16.666 -21 -21.999s-15 -8 -25 -8c-11.333 0 -23.5 6 -36.5 18s-29.667 25 -50 39
s-44.833 27 -73.5 39s-64.334 18 -107.001 18c-44 0 -83 -6.83301 -117 -20.5s-62.833 -32.334 -86.5 -56.001s-41.667 -51.167 -54 -82.5s-18.5 -65 -18.5 -101c0 -35.333 8.33301 -65.166 25 -89.499s38.167 -45.166 64.5 -62.499s56.833 -32.666 91.5 -45.999l105 -41
c35.333 -14 70.333 -29.5 105 -46.5s65.334 -38.167 92.001 -63.5s48.167 -55.833 64.5 -91.5s24.5 -78.5 24.5 -128.5c0 -69.333 -12 -135 -36 -197s-58.333 -116.167 -103 -162.5s-98.667 -83.166 -162 -110.499s-134.666 -41 -213.999 -41
c-87.333 0 -165.333 17.167 -234 51.5s-125.334 80.833 -170.001 139.5z" />
    <glyph glyph-name="T" unicode="T" horiz-adv-x="1118" 
d="M113 1307l18 160h1060l-20 -160h-433l-160 -1307h-191l160 1307h-434z" />
    <glyph glyph-name="U" unicode="U" horiz-adv-x="1402" 
d="M155 573l107.997 894.001h192l-110 -893c-3.33301 -26.667 -4.66602 -52.667 -3.99902 -78c0 -32 2.33301 -62.667 7 -92c9.33301 -52 26.666 -96.667 51.999 -134s58.333 -66.5 99 -87.5s88.667 -31.5 144 -31.5s105.833 10.5 151.5 31.5s86 50.167 121 87.5
s63.5 81.833 85.5 133.5s37 108.167 45 169.5l109 894h192l-110 -894c-10 -84 -32.167 -162 -66.5 -234s-78.166 -134.333 -131.499 -187s-115 -94 -185 -124s-147 -45 -231 -45c-83.333 0 -156.666 15 -219.999 45s-115.166 71.333 -155.499 124s-68.5 115 -84.5 187
c-9.33301 43.333 -14 88.666 -14 135.999c0 32 2 64.667 6 98z" />
    <glyph glyph-name="V" unicode="V" horiz-adv-x="1289" 
d="M112 1467h153.001c17.333 0 31 -4.33301 41 -13s16 -19.667 18 -33l245 -1048c5.33301 -22 10.5 -46.167 15.5 -72.5s9.16699 -53.833 12.5 -82.5c9.33301 28.667 19.166 56.167 29.499 82.5s21.166 50.5 32.499 72.5l501 1048c5.33301 11.333 14.333 21.833 27 31.5
s27.334 14.5 44.001 14.5h153l-729 -1467h-173z" />
    <glyph glyph-name="W" unicode="W" horiz-adv-x="1955" 
d="M128 1467h151.003c17.333 0 31 -4.16699 41 -12.5s15.667 -19.5 17 -33.5l159 -1038l4 -58.5c1.33301 -20.333 2.66602 -41.833 3.99902 -64.5l22 65c7.33301 20.667 14.666 40 21.999 58l438 1038c5.33301 11.333 14.166 21.833 26.499 31.5s26.833 14.5 43.5 14.5h44
c17.333 0 30.833 -4.16699 40.5 -12.5s16.167 -19.5 19.5 -33.5l183 -1038l8 -56.5c2.66699 -19.667 4.66699 -40.5 6 -62.5c6 22 12.167 42.833 18.5 62.5s12.833 38.5 19.5 56.5l412 1038c3.33301 11.333 12 21.833 26 31.5s29.333 14.5 46 14.5h151l-603 -1467h-173
l-198 1129c-2 10.667 -3.83301 22.5 -5.5 35.5s-3.16699 26.167 -4.5 39.5l-14 -39l-13 -36l-477 -1129h-172z" />
    <glyph glyph-name="X" unicode="X" horiz-adv-x="1247" 
d="M-70 0l583.003 782.999l-344 684h173c13.333 0 23.166 -2.33301 29.499 -7s12.166 -11.667 17.499 -21l262 -553l10 18c3.33301 6 7.33301 12.667 12 20l373 514c7.33301 10 14.5 17.333 21.5 22s15.833 7 26.5 7h197l-513 -675l387 -792h-172
c-13.333 0 -23.833 4 -31.5 12s-13.5 16.333 -17.5 25l-299 640c-2.66699 -5.33301 -5.5 -10.666 -8.5 -15.999s-6.16699 -10.333 -9.5 -15l-443 -609c-8.66699 -13.333 -18.334 -22.833 -29.001 -28.5s-22 -8.5 -34 -8.5h-191z" />
    <glyph glyph-name="Y" unicode="Y" horiz-adv-x="1191" 
d="M110 1467l169.002 0.000976562c17.333 0 30.666 -4 39.999 -12s16.333 -19 21 -33l243 -587c12.667 -38.667 22.667 -75.667 30 -111c8 18 17 36 27 54l33 57l389 587c7.33301 11.333 16.666 21.666 27.999 30.999s25.333 14 42 14h158l-602 -880l-73 -587h-191l73 585z
" />
    <glyph glyph-name="Z" unicode="Z" horiz-adv-x="1137" 
d="M-27 0l8.99902 59.999c1.33301 9.33301 4 17.833 8 25.5s8.66699 15.834 14 24.501l897 1201h-730l19 156h991l-9 -61c-1.33301 -9.33301 -4.16602 -17.833 -8.49902 -25.5l-14.5 -24.5l-897 -1200h756l-21 -156h-1014z" />
    <glyph glyph-name="bracketleft" unicode="[" horiz-adv-x="593" 
d="M70 -294l228 1863h350l-7 -69c-1.33301 -13.333 -7.33301 -24.5 -18 -33.5s-22.667 -13.5 -36 -13.5h-155l-202 -1630h157c13.333 0 24 -4.66699 32 -14s11.333 -20.666 10 -33.999l-8 -69h-351z" />
    <glyph glyph-name="backslash" unicode="\" horiz-adv-x="848" 
d="M169 1486h75c22 0 40.333 -5.83301 55 -17.5s24.667 -27.5 30 -47.5l368 -1514h-72c-19.333 0 -37.5 5.83301 -54.5 17.5s-28.167 28.167 -33.5 49.5z" />
    <glyph glyph-name="bracketright" unicode="]" horiz-adv-x="594" 
d="M-51 -294l8 69.001c1.33301 13.333 7.16602 24.666 17.499 33.999s22.5 14 36.5 14h156l201 1630h-156c-15.333 0 -26.666 4.5 -33.999 13.5s-10.333 20.167 -9 33.5l8 69h352l-229 -1863h-351z" />
    <glyph glyph-name="asciicircum" unicode="^" 
d="M220 806l367.999 661h117l367 -661h-133c-11.333 0 -21.166 3.33301 -29.499 10s-15.166 15 -20.499 25l-201 360c-8.66699 16 -16.334 31.333 -23.001 46s-12.334 29 -17.001 43c-9.33301 -30 -22 -59.667 -38 -89l-197 -360
c-5.33301 -9.33301 -12.166 -17.5 -20.499 -24.5s-19.5 -10.5 -33.5 -10.5h-139z" />
    <glyph glyph-name="underscore" unicode="_" horiz-adv-x="909" 
d="M-28 -291l15 119h743l-15 -119h-743z" />
    <glyph glyph-name="grave" unicode="`" horiz-adv-x="753" 
d="M291 1484l159 -0.000976562c20.667 0 35.667 -3.66699 45 -11s17.333 -18.666 24 -33.999l112 -248h-95c-12.667 0 -23 2.16699 -31 6.5s-16 11.833 -24 22.5z" />
    <glyph glyph-name="a" unicode="a" horiz-adv-x="1046" 
d="M51 351c0 61.333 7.66797 121.167 23.001 179.5s37.166 113.5 65.499 165.5s62.333 99.667 102 143s83.834 80.833 132.501 112.5s101 56.334 157 74.001s115 26.5 177 26.5c44.667 0 87.834 -3.66699 129.501 -11s83.167 -19.666 124.5 -36.999l-124 -1004h-95
c-24 0 -40.167 6.16699 -48.5 18.5s-12.5 27.166 -12.5 44.499l18 210c-24.667 -44 -51 -83.667 -79 -119s-58 -65.333 -90 -90s-65.333 -43.834 -100 -57.501s-70.667 -20.5 -108 -20.5c-40.667 0 -77.834 8 -111.501 24s-62.334 39.5 -86.001 70.5s-42 69.167 -55 114.5
s-19.5 97.333 -19.5 156zM233.001 384.001c0 -164.667 52.6641 -246.998 157.997 -246.998c33.333 0 66.166 10.5 98.499 31.5s62.833 49.833 91.5 86.5s55.334 80.5 80.001 131.5s46.667 106.833 66 167.5l44 356c-15.333 3.33301 -30.166 5.66602 -44.499 6.99902
s-28.833 2 -43.5 2c-40.667 0 -80.167 -6.66699 -118.5 -20s-74.166 -32 -107.499 -56s-63.666 -52.5 -90.999 -85.5s-50.833 -69.333 -70.5 -109s-35 -81.834 -46 -126.501s-16.5 -90.667 -16.5 -138z" />
    <glyph glyph-name="b" unicode="b" horiz-adv-x="1082" 
d="M60 0l182.997 1508h178l-90 -734c26 42 54 80.167 84 114.5s61.333 63.666 94 87.999s66.834 43.166 102.501 56.499s71.834 20 108.501 20c88.667 0 157.5 -32.167 206.5 -96.5s73.5 -158.166 73.5 -281.499c0 -56 -5.66699 -112 -17 -168s-27.833 -109.5 -49.5 -160.5
s-47.667 -98.5 -78 -142.5s-64.166 -82.167 -101.499 -114.5s-77.833 -57.666 -121.5 -75.999s-89.167 -27.5 -136.5 -27.5c-55.333 0 -105.333 11.5 -150 34.5s-81.334 56.167 -110.001 99.5l-15 -67c-5.33301 -18 -12.166 -31.333 -20.499 -40s-22.833 -13 -43.5 -13h-97z
M263.997 227c26 -36.667 57.3359 -62.498 94.0029 -77.498s73.667 -22.5 111 -22.5c35.333 0 68.666 7.5 99.999 22.5s60 35.333 86 61s49.167 55.667 69.5 90s37.666 71.166 51.999 110.499s25 80 32 122s10.5 83.333 10.5 124c0 81.333 -14.5 143.166 -43.5 185.499
s-70.167 63.5 -123.5 63.5c-32.667 0 -65.834 -10.167 -99.501 -30.5s-66.167 -48.833 -97.5 -85.5s-60.5 -80 -87.5 -130s-50.5 -104.667 -70.5 -164z" />
    <glyph glyph-name="c" unicode="c" horiz-adv-x="930" 
d="M59 410c0 84 13.1631 164.499 39.4961 241.499s63.166 145.167 110.499 204.5s103.5 106.833 168.5 142.5s136.167 53.5 213.5 53.5c68.667 0 126.334 -12.167 173.001 -36.5s87.334 -59.833 122.001 -106.5l-58 -68c-4.66699 -5.33301 -9.83398 -9.83301 -15.501 -13.5
s-12.167 -5.5 -19.5 -5.5c-9.33301 0 -18.666 4.33301 -27.999 13s-21.5 18.334 -36.5 29.001s-33.667 20.167 -56 28.5s-50.833 12.5 -85.5 12.5c-47.333 0 -91.833 -12.833 -133.5 -38.5s-78.167 -60.667 -109.5 -105s-56 -96.833 -74 -157.5s-27 -125.667 -27 -195
c0 -42 4.66699 -80.333 14 -115s23.666 -64.167 42.999 -88.5s42.833 -43.166 70.5 -56.499s59.834 -20 96.501 -20c46 0 84.5 6.83301 115.5 20.5s57 28.5 78 44.5s38.833 30.833 53.5 44.5s29.334 20.5 44.001 20.5c12.667 0 24.334 -5.66699 35.001 -17l45 -56
c-35.333 -38.667 -69.166 -71 -101.499 -97s-64.5 -46.667 -96.5 -62s-65.333 -26 -100 -32s-71.667 -9 -111 -9c-60 0 -113 10.167 -159 30.5s-84.5 49.166 -115.5 86.499s-54.667 82 -71 134s-24.5 109.667 -24.5 173z" />
    <glyph glyph-name="d" unicode="d" horiz-adv-x="1083" 
d="M56 364c0 56 5.83594 111.834 17.5029 167.501s28.334 109.167 50.001 160.5s47.667 99 78 143s64.166 82 101.499 114s77.666 57.333 120.999 76s89 28 137 28c51.333 0 98 -10.167 140 -30.5s77.333 -48.833 106 -85.5l72 571h178l-186 -1508h-95
c-24 0 -40 6.16699 -48 18.5s-12 27.166 -12 44.499l19 219c-26 -45.333 -54.333 -86.166 -85 -122.499s-62.834 -67.333 -96.501 -93s-68.834 -45.5 -105.501 -59.5s-73.667 -21 -111 -21c-88.667 0 -157.667 32.167 -207 96.5s-74 158.166 -74 281.499zM238.003 382.001
c0 -81.333 14.5 -143.332 43.5 -185.999s70.5 -64 124.5 -64c32.667 0 65.5 10.333 98.5 31s65 49 96 85s60.167 79.167 87.5 129.5s51 105.166 71 164.499l33 269c-26 36 -57.333 61.5 -94 76.5s-73.334 22.5 -110.001 22.5c-54 0 -102.5 -16 -145.5 -48
s-79.667 -73.333 -110 -124s-53.666 -107.5 -69.999 -170.5s-24.5 -124.833 -24.5 -185.5z" />
    <glyph glyph-name="e" unicode="e" horiz-adv-x="979" 
d="M59 407c0 53.333 5.66602 106.327 16.999 158.994s27.833 102.834 49.5 150.501s48 92 79 133s66.5 76.333 106.5 106s84 53.167 132 70.5s99.667 26 155 26c52.667 0 98.167 -7.5 136.5 -22.5s69.666 -34.167 93.999 -57.5s42.5 -49 54.5 -77s18 -54.667 18 -80
c0 -45.333 -9.16699 -86.833 -27.5 -124.5s-52.166 -71.667 -101.499 -102s-117 -56.833 -203 -79.5s-196.333 -40.667 -331 -54c-0.666992 -7.33301 -1 -14.666 -1 -21.999v-22c0 -91.333 19.833 -161.166 59.5 -209.499s99.834 -72.5 180.501 -72.5
c32.667 0 61.834 3.5 87.501 10.5s48.667 15.333 69 25s38.166 20.5 53.499 32.5l42 33c12.667 10 24.334 18.333 35.001 25s21.667 10 33 10c12.667 0 24 -5.66699 34 -17l46 -57c-34.667 -36 -68.834 -66.833 -102.501 -92.5s-67.667 -47 -102 -64
s-70.5 -29.333 -108.5 -37s-79 -11.5 -123 -11.5c-59.333 0 -112.5 9.83301 -159.5 29.5s-86.833 47.834 -119.5 84.501s-58 80.834 -76 132.501s-27 109.834 -27 174.501zM254.999 574.994c105.333 12.667 189.668 27.499 253.001 44.499s112.166 35.167 146.499 54.5
s56.833 40.333 67.5 63s16 46.334 16 71.001c0 12 -2.66699 24.667 -8 38s-14 25.5 -26 36.5s-27.5 20.167 -46.5 27.5s-42.167 11 -69.5 11c-43.333 0 -83 -9 -119 -27s-68 -42.5 -96 -73.5s-52 -67.5 -72 -109.5s-35.333 -87.333 -46 -136z" />
    <glyph glyph-name="f" unicode="f" horiz-adv-x="656" 
d="M85 943l9.00098 74.0039h148l12 100c7.33301 59.333 22.166 112.166 44.499 158.499s50.333 85.333 84 117s72.167 55.667 115.5 72s90.333 24.5 141 24.5c41.333 0 80 -7 116 -21l-18 -94c-2.66699 -13.333 -11.834 -20 -27.501 -20h-59.5
c-29.333 0 -56.5 -4.33301 -81.5 -13s-47 -22.5 -66 -41.5s-35.167 -43.833 -48.5 -74.5s-22.666 -68.334 -27.999 -113.001l-11 -95h259l-18 -131h-252l-103 -852l-48 -212c-7.33301 -24.667 -18.333 -43.667 -33 -57s-35 -20 -61 -20h-71l137 1138l-102 13
c-12 3.33301 -21.667 8.66602 -29 15.999c-6 5.33301 -9 13.666 -9 24.999v6z" />
    <glyph glyph-name="g" unicode="g" horiz-adv-x="991" 
d="M-57 -116c0 44 9.16797 82.6699 27.501 116.003s43.166 62.166 74.499 86.499s67.833 44.333 109.5 60s85.834 27.5 132.501 35.5c42.667 6.66699 86.667 10 132 10h12c49.333 -0.666992 97.333 -4.33398 144 -11.001c-6 12.667 -11 26.167 -15 40.5
s-5.66699 29.5 -5 45.5c0 21.333 3.16699 43.333 9.5 66s17.166 48 32.499 76c-26 -18 -55 -31.833 -87 -41.5s-68.667 -14.5 -110 -14.5c-39.333 0 -76.166 6.5 -110.499 19.5s-64.5 32.167 -90.5 57.5s-46.5 57 -61.5 95s-22.5 82 -22.5 132c0 49.333 9 97.666 27 144.999
s44.333 89.666 79 126.999s77.667 67.333 129 90s110.333 34 177 34c75.333 0 140.666 -18 195.999 -54h281l-8 -60c-3.33301 -24.667 -17 -41 -41 -49l-130 -23c6 -18 10.833 -36.5 14.5 -55.5s5.5 -39.5 5.5 -61.5c0 -34 -4 -64.833 -12 -92.5s-17.833 -53 -29.5 -76
s-24.334 -44.833 -38.001 -65.5s-26.167 -41 -37.5 -61s-21 -40.833 -29 -62.5s-12 -44.834 -12 -69.501c0 -18.667 3.33301 -36.334 10 -53.001s14.834 -33 24.501 -49s20.5 -32.333 32.5 -49s23 -34.167 33 -52.5s18.167 -38.166 24.5 -59.499s9.5 -45 9.5 -71
c-0.666992 -48.667 -12.167 -94.667 -34.5 -138s-54.333 -81.666 -96 -114.999s-92.167 -59.833 -151.5 -79.5s-126.333 -29.5 -201 -29.5c-59.333 0 -113.5 6.16699 -162.5 18.5s-90.667 29.833 -125 52.5s-60.833 49.834 -79.5 81.501s-28 66.5 -28 104.5z
M116.001 -92.9971c0 -49.333 20.667 -87.0029 62 -113.003s99.666 -39 174.999 -39c45.333 0 86.5 6 123.5 18s68.667 27.833 95 47.5s46.833 42.834 61.5 69.501s22 54.667 22 84c0 18 -1.66699 34.667 -5 50s-7.66602 30 -12.999 44c-71.333 12 -135 18 -191 18
c-14.667 0 -28.667 -0.333008 -42 -1c-66 -4 -120.333 -14.167 -163 -30.5s-74.167 -37.666 -94.5 -63.999s-30.5 -54.166 -30.5 -83.499zM281.001 656c0 -61.333 14.835 -108 44.502 -140s71.167 -48 124.5 -48c36.667 0 69.167 8 97.5 24s52.166 37.167 71.499 63.5
s34.166 55.833 44.499 88.5s15.5 65.667 15.5 99c0 60 -15.167 105.5 -45.5 136.5s-72.166 46.5 -125.499 46.5c-36.667 0 -69 -7.5 -97 -22.5s-51.833 -35.167 -71.5 -60.5s-34.334 -54 -44.001 -86s-14.5 -65.667 -14.5 -101z" />
    <glyph glyph-name="h" unicode="h" horiz-adv-x="1084" 
d="M60 0l183.001 1508h182l-85 -700c53.333 80.667 112.833 141.667 178.5 183s133.167 62 202.5 62c44.667 0 83.667 -8.83301 117 -26.5s60.333 -43.167 81 -76.5s35 -74.333 43 -123c4 -24.667 5.66699 -51.334 5 -80.001c0 -27.333 -1.66699 -56.333 -5 -87l-78 -660
h-183l78 660c3.33301 27.333 5 52.666 5 75.999c0 44 -6.66699 79.333 -20 106c-20 40 -56.667 60 -110 60c-30.667 0 -62.334 -8.33301 -95.001 -25s-64.167 -40.5 -94.5 -71.5s-59 -68.333 -86 -112s-50.5 -92.5 -70.5 -146.5l-66 -547h-182z" />
    <glyph glyph-name="i" unicode="i" horiz-adv-x="471" 
d="M71 0l125 1037h179l-125 -1037h-179zM194 1363c0 18 3.33203 34.833 9.99902 50.5s15.834 29.5 27.501 41.5s25 21.5 40 28.5s30.167 10.5 45.5 10.5c16.667 0 32.667 -3.33301 48 -10s28.833 -16 40.5 -28s21 -26 28 -42s10.5 -33 10.5 -51s-3.5 -34.667 -10.5 -50
s-16.5 -29 -28.5 -41s-25.667 -21.333 -41 -28s-31.333 -10 -48 -10c-16 0 -31.333 3.33301 -46 10s-27.667 16 -39 28s-20.333 25.667 -27 41s-10 32 -10 50z" />
    <glyph glyph-name="j" unicode="j" horiz-adv-x="468" 
d="M-181 -352l18 97.999c2 6 4.5 10.5 7.5 13.5s7.16699 5 12.5 6s11.833 1.33301 19.5 1s17.5 -0.5 29.5 -0.5c48.667 0 84.5 12.333 107.5 37s38.167 64.667 45.5 120l137 1114h179l-137 -1114c-4.66699 -41.333 -15 -80 -31 -116s-36.833 -67.333 -62.5 -94
s-56.5 -47.667 -92.5 -63s-77 -23 -123 -23c-24 0 -44.333 1.83301 -61 5.5s-33 8.83398 -49 15.501zM189 1363c0 18 3.49805 34.833 10.498 50.5s16.333 29.5 28 41.5s24.834 21.5 39.501 28.5s30 10.5 46 10.5c16.667 0 32.5 -3.33301 47.5 -10s28.5 -16 40.5 -28
s21.333 -26 28 -42s10 -33 10 -51s-3.5 -34.667 -10.5 -50s-16.5 -29 -28.5 -41s-25.5 -21.333 -40.5 -28s-30.833 -10 -47.5 -10s-32.167 3.33301 -46.5 10s-27.166 16 -38.499 28s-20.5 25.667 -27.5 41s-10.5 32 -10.5 50z" />
    <glyph glyph-name="k" unicode="k" horiz-adv-x="970" 
d="M58 0l185.998 1508h179l-109 -887h31c14.667 0 26.334 1.83301 35.001 5.5s18.334 11.167 29.001 22.5l344 351c9.33301 11.333 19.5 20.333 30.5 27s24.167 10 39.5 10h162l-400 -406c-20.667 -24 -41.667 -42 -63 -54c10.667 -8 20 -17.5 28 -28.5
s15.333 -23.167 22 -36.5l312 -512h-157c-15.333 0 -27.833 2.5 -37.5 7.5s-17.5 14.5 -23.5 28.5l-265 425c-8 14.667 -16.5 24.167 -25.5 28.5s-22.833 6.5 -41.5 6.5h-35l-60 -496h-181z" />
    <glyph glyph-name="l" unicode="l" horiz-adv-x="460" 
d="M66 0l183 1508h179l-183 -1508h-179z" />
    <glyph glyph-name="m" unicode="m" horiz-adv-x="1611" 
d="M60 0l125 1038h90c41.333 0 62.333 -20.333 63 -61l-14 -184c51.333 85.333 107.5 150 168.5 194s124.833 66 191.5 66c70 0 121.833 -24.167 155.5 -72.5s50.5 -117.166 50.5 -206.499c51.333 94.667 109.166 164.834 173.499 210.501s132.5 68.5 204.5 68.5
c88.667 -0.666992 151.334 -35 188.001 -103c26 -48.667 39 -112 39 -190c0 -31.333 -2 -64.666 -6 -99.999l-78 -660h-180l79 660c3.33301 31.333 5 59.666 5 84.999c0 40.667 -4.33301 73 -13 97c-14.667 40 -47.667 59.667 -99 59c-29.333 0 -58.5 -7.33301 -87.5 -22
s-57.167 -36.167 -84.5 -64.5s-52.666 -63.5 -75.999 -105.5s-44.333 -90.333 -63 -145v-1l-67 -563h-180l78 660c4.66699 35.333 7 66.666 7 93.999c0 36 -4 65.333 -12 88c-13.333 40 -45 59.667 -95 59c-32.667 0 -64.334 -8.16699 -95.001 -24.5s-59.5 -40 -86.5 -71
s-52 -68.833 -75 -113.5s-44.167 -95 -63.5 -151l-64 -541h-179z" />
    <glyph glyph-name="n" unicode="n" horiz-adv-x="1085" 
d="M60 0l125.001 1038h90c40.667 0 61.334 -20.333 62.001 -61l-15 -202c55.333 91.333 117.666 160.5 186.999 207.5s141 70.5 215 70.5c44 0 82.5 -8.83301 115.5 -26.5s59.833 -43.167 80.5 -76.5c20 -33.333 34 -74.333 42 -123c4 -24.667 6.33301 -51.334 7 -80.001
c0 -27.333 -2 -56.333 -6 -87l-78 -660h-182l78 660c3.33301 26.667 5 51 5 73c0 46 -6.66699 82.333 -20 109c-20 39.333 -56.667 59 -110 59c-32.667 0 -65.834 -8.83301 -99.501 -26.5s-66.167 -42.834 -97.5 -75.501s-60.5 -72.167 -87.5 -118.5
s-50.167 -97.833 -69.5 -154.5l-59 -526h-183z" />
    <glyph glyph-name="o" unicode="o" horiz-adv-x="1062" 
d="M60 417c0 87.333 13.666 169.499 40.999 246.499s65 144.333 113 202s104.167 103.334 168.5 137.001s133.833 50.5 208.5 50.5c56.667 0 108.5 -9.83301 155.5 -29.5s87.667 -47.834 122 -84.501s61 -81.667 80 -135s28.5 -113.666 28.5 -180.999
c0 -86.667 -13.667 -168.667 -41 -246s-64.666 -145 -111.999 -203s-103.5 -103.833 -168.5 -137.5s-134.833 -50.5 -209.5 -50.5c-56.667 0 -108.5 9.66699 -155.5 29s-87.5 47.5 -121.5 84.5s-60.667 82 -80 135s-29 113.833 -29 182.5zM243.999 417.999
c0 -95.333 18.6689 -167.497 56.002 -216.497s92 -73.5 164 -73.5c50 0 95.167 13.667 135.5 41s75.166 63.666 104.499 108.999s51.833 97.666 67.5 156.999s23.5 121.666 23.5 186.999c0 95.333 -19 167 -57 215s-92.667 72 -164 72c-50.667 0 -96.167 -13.5 -136.5 -40.5
s-74.833 -63 -103.5 -108s-50.834 -97.167 -66.501 -156.5s-23.5 -121.333 -23.5 -186z" />
    <glyph glyph-name="p" unicode="p" horiz-adv-x="1082" 
d="M17 -351l168.996 1389h90c40.667 0 61.334 -20.333 62.001 -61l-17 -221c26 45.333 54.333 86.166 85 122.499s62.834 67.5 96.501 93.5s69 46 106 60s74.5 21 112.5 21c88.667 0 157.334 -32.167 206.001 -96.5s73 -158.166 73 -281.499c0 -56 -5.66699 -112 -17 -168
s-27.833 -109.5 -49.5 -160.5s-47.667 -98.5 -78 -142.5s-64.166 -82.167 -101.499 -114.5s-77.833 -57.666 -121.5 -75.999s-89.167 -27.5 -136.5 -27.5c-51.333 0 -98 10 -140 30s-77.333 48.333 -106 85l-55 -452h-178zM264.996 226.999
c26 -36 57.168 -61.665 93.501 -76.998s73.166 -23 110.499 -23c35.333 0 68.666 7.5 99.999 22.5s60 35.333 86 61s49.333 55.667 70 90s38 71.166 52 110.499s24.667 80 32 122s11 83.333 11 124c0 81.333 -14.667 143.166 -44 185.499s-70.666 63.5 -123.999 63.5
c-32.667 0 -65.667 -10 -99 -30s-65.5 -48.167 -96.5 -84.5s-60.167 -79.333 -87.5 -129s-51 -104.167 -71 -163.5z" />
    <glyph glyph-name="q" unicode="q" horiz-adv-x="1047" 
d="M51 351c0 61.333 7.66797 121.168 23.001 179.501s37.166 113.5 65.499 165.5s62.5 99.667 102.5 143s84.5 80.833 133.5 112.5s101.333 56.334 157 74.001s114.5 26.5 176.5 26.5c44.667 0 87.667 -3.66699 129 -11s82.666 -19.666 123.999 -36.999l-167 -1355h-115
c-12 0 -22.167 2.16699 -30.5 6.5s-14.666 10.166 -18.999 17.499s-7.16602 15.666 -8.49902 24.999s-1.33301 19 0 29l66 522c-24 -40 -49.833 -76.333 -77.5 -109s-56.834 -60.334 -87.501 -83.001s-62.667 -40.167 -96 -52.5s-67.666 -18.5 -102.999 -18.5
c-40.667 0 -77.834 8 -111.501 24s-62.5 39.5 -86.5 70.5s-42.5 69.167 -55.5 114.5s-19.5 97.333 -19.5 156zM233.001 384.002c0 -82 13.498 -143.663 40.498 -184.996s66.5 -62 118.5 -62c32.667 0 65.167 10.333 97.5 31s62.833 49.167 91.5 85.5
s55.167 79.666 79.5 129.999s46.166 105.166 65.499 164.499l45 362c-14.667 3.33301 -29.167 5.66602 -43.5 6.99902s-28.833 2 -43.5 2c-41.333 0 -81.166 -6.66699 -119.499 -20s-74.166 -32 -107.499 -56s-63.666 -52.5 -90.999 -85.5s-50.833 -69.333 -70.5 -109
s-35 -81.834 -46 -126.501s-16.5 -90.667 -16.5 -138z" />
    <glyph glyph-name="r" unicode="r" horiz-adv-x="700" 
d="M60 0l124.999 1038h90c41.333 0 62.333 -20.333 63 -61l-17 -229c27.333 58 56.833 108.333 88.5 151s64.834 76 99.501 100c34 24.667 69.667 39.667 107 45c9.33301 1.33301 19 2 29 2c28 0 56 -6.33301 84 -19l-33 -175c-32.667 13.333 -64 20 -94 20
c-51.333 0 -98.333 -19.333 -141 -58c-67.333 -60.667 -122.333 -171.667 -165 -333l-57 -481h-179z" />
    <glyph glyph-name="s" unicode="s" horiz-adv-x="819" 
d="M-1 110l44.9971 69.002c6 8.66699 12.667 15.5 20 20.5s16.666 7.5 27.999 7.5c10.667 0 21.5 -4.83301 32.5 -14.5s24.667 -20.5 41 -32.5s37 -22.667 62 -32s56.833 -14 95.5 -14c33.333 0 63.5 5 90.5 15s49.833 23.667 68.5 41s33 37.333 43 60s15 47 15 73
c0 34.667 -10.667 62.334 -32 83.001s-48 37.834 -80 51.501s-66.5 26.5 -103.5 38.5s-71.5 27.333 -103.5 46s-58.5 43 -79.5 73s-31.5 70 -31.5 120c0 44 8.66699 86.167 26 126.5s42.333 76.166 75 107.499s72.334 56.5 119.001 75.5s99.334 28.5 158.001 28.5
c62 0 116.833 -10.5 164.5 -31.5s88.5 -49.167 122.5 -84.5l-46 -66c-5.33301 -8 -10.666 -13.833 -15.999 -17.5s-12.333 -5.5 -21 -5.5c-9.33301 0 -19.666 3.66699 -30.999 11s-25 15.666 -41 24.999s-35.667 18 -59 26s-51.333 12 -84 12
c-30.667 0 -58.667 -4.33301 -84 -13s-47 -20.5 -65 -35.5s-32 -32.5 -42 -52.5s-15 -41.333 -15 -64c0 -32 10.667 -57.667 32 -77s48 -36 80 -50s66.5 -27.5 103.5 -40.5s71.5 -29.333 103.5 -49s58.5 -44.834 79.5 -75.501s31.5 -70.667 31.5 -120
c0 -48 -9.33301 -93.833 -28 -137.5s-45.5 -82 -80.5 -115s-77.333 -59.333 -127 -79s-105.167 -29.5 -166.5 -29.5c-66 0 -124.5 11.667 -175.5 35s-92.5 53.666 -124.5 90.999z" />
    <glyph glyph-name="t" unicode="t" horiz-adv-x="726" 
d="M77 925l8 72l160 22l78 320c3.33301 10 8.5 18.333 15.5 25s16.167 10 27.5 10h95l-44 -357h272l-15 -132h-274l-62 -510l-8 -67.5c-2 -17 -3.5 -30.667 -4.5 -41s-1.66699 -17.5 -2 -21.5s-0.5 -7 -0.5 -9c0 -34.667 8.16699 -60.5 24.5 -77.5
s38.166 -25.5 65.499 -25.5c18.667 0 34.5 2.5 47.5 7.5s24.667 10.667 35 17s18.833 12 25.5 17s12.667 7.5 18 7.5c6 0 10.5 -1.33301 13.5 -4s5.83301 -7 8.5 -13l39 -87c-33.333 -29.333 -71.333 -52.333 -114 -69s-85.667 -25 -129 -25c-66 0 -118 18.167 -156 54.5
s-57.667 88.833 -59 157.5v15.5c0 6.33301 0.5 15.666 1.5 27.999s2.83301 28.333 5.5 48s6 45.834 10 78.501l63 519h-116c-9.33301 -0.666992 -16.666 2.33301 -21.999 9c-4.66699 5.33301 -7 13 -7 23v8z" />
    <glyph glyph-name="u" unicode="u" horiz-adv-x="1084" 
d="M96 211c-4 24 -5.66699 49.334 -5 76.001c0 28.667 2 59 6 91l78 659h181l-77 -659c-3.33301 -26.667 -4.66602 -51 -3.99902 -73c0 -46 6.33301 -82.333 19 -109c19.333 -40 55.666 -59.667 108.999 -59c31.333 0 63.666 8.5 96.999 25.5s65.5 41.333 96.5 73
s59.833 69.667 86.5 114s50 93.833 70 148.5l64 539h181l-125 -1037h-90c-44.667 0 -66.667 22 -66 66l15 188c-55.333 -88 -117.166 -154.667 -185.499 -200s-138.5 -68 -210.5 -68c-44 0 -82.667 8.66699 -116 26s-60.333 42.666 -81 75.999s-35 74.333 -43 123z" />
    <glyph glyph-name="v" unicode="v" horiz-adv-x="980" 
d="M72 1037l147.002 -0.000976562c13.333 0 24.166 -3.66699 32.499 -11s13.833 -16.333 16.5 -27l154 -667c4 -26 7.33301 -51.667 10 -77s4.66699 -50.666 6 -75.999c7.33301 25.333 15.666 50.5 24.999 75.5s20 50.833 32 77.5l320 667
c5.33301 10.667 12.833 19.667 22.5 27s20.5 11 32.5 11h142l-520 -1037h-152z" />
    <glyph glyph-name="w" unicode="w" horiz-adv-x="1480" 
d="M80 1037l135.998 -0.000976562c13.333 0 24.166 -3.33301 32.499 -10s13.833 -16 16.5 -28l95 -667c1.33301 -24 2.83301 -47.333 4.5 -70s2.83398 -44.667 3.50098 -66c7.33301 22 15.5 44.167 24.5 66.5l27.5 69.5l283 672c3.33301 10 9.83301 18.333 19.5 25
s20.5 10 32.5 10h75c12.667 0 22.834 -3.33301 30.501 -10s12.167 -15 13.5 -25l117 -672l9.5 -69.5c3 -22.333 5.5 -44.166 7.5 -65.499c6 22 12.5 44 19.5 66s14.833 45 23.5 69l263 667c3.33301 10.667 10 19.667 20 27s20.667 11 32 11h132l-435 -1037h-138
c-16.667 0 -27 11.667 -31 35l-126 703l-4 32.5c-1.33301 11 -2.33301 22.167 -3 33.5c-3.33301 -11.333 -7.16602 -22.333 -11.499 -33l-13.5 -34l-299 -702c-9.33301 -23.333 -23.333 -35 -42 -35h-133z" />
    <glyph glyph-name="x" unicode="x" horiz-adv-x="950" 
d="M-65 0l419.001 557.999l-249 479h163c13.333 0 23.166 -1.83301 29.499 -5.5s11.5 -10.167 15.5 -19.5l174 -358c7.33301 15.333 16 30 26 44l235 311c10 18.667 23.667 28 41 28h2h163l-370 -481l276 -556h-162c-13.333 0 -24 3.33301 -32 10s-14.333 15.334 -19 26.001
l-194 415c-6.66699 -15.333 -14 -28.333 -22 -39l-283 -377c-7.33301 -9.33301 -15 -17.5 -23 -24.5s-18.333 -10.5 -31 -10.5h-159z" />
    <glyph glyph-name="y" unicode="y" horiz-adv-x="982" 
d="M74 1037l150.003 -0.000976562c15.333 0 26.333 -3.5 33 -10.5s11.667 -16.167 15 -27.5l167 -653c3.33301 -14.667 6.16602 -29 8.49902 -43s4.16602 -28.333 5.49902 -43c5.33301 14.667 11.166 29.334 17.499 44.001s12.833 29 19.5 43l328 654
c5.33301 10.667 13 19.334 23 26.001s20 10 30 10h145l-701 -1346c-7.33301 -14.667 -16 -25.334 -26 -32.001s-22.333 -10 -37 -10h-134l225 412z" />
    <glyph glyph-name="z" unicode="z" horiz-adv-x="868" 
d="M-18 0l9.00098 76c0.666992 8.66699 3.66699 19.167 9 31.5s12.666 23.5 21.999 33.5l601 753h-503l17 143h719l-10 -78c-1.33301 -12.667 -5 -25 -11 -37s-12.667 -22.667 -20 -32l-598 -748h511l-16 -142h-730z" />
    <glyph glyph-name="braceleft" unicode="{" horiz-adv-x="581" 
d="M68 585l12.998 105.999c50.667 0 88.334 20.333 113.001 61s37 103.334 37 188.001c0 15.333 -0.5 32 -1.5 50l-3 55l-3 55c-1 18 -1.5 34.667 -1.5 50c0 66 7.83301 125 23.5 177s38.667 95.833 69 131.5s68 63 113 82s96.833 28.5 155.5 28.5h50l-9 -79
c-1.33301 -13.333 -7.33301 -22.833 -18 -28.5s-19.334 -8.5 -26.001 -8.5h-18c-51.333 0 -93.333 -19.667 -126 -59s-50.667 -95 -54 -167c-2.66699 -32 -4 -63.333 -4 -94s0.333008 -60.834 1 -90.501s1.16699 -58.667 1.5 -87s-0.5 -56.166 -2.5 -83.499
c-2 -31.333 -7.66699 -60.166 -17 -86.499s-21.666 -49.333 -36.999 -69s-33 -36.334 -53 -50.001s-41.333 -23.5 -64 -29.5c36.667 -11.333 65.834 -32.666 87.501 -63.999s32.5 -68.333 32.5 -111c0 -40.667 -5.16699 -80.5 -15.5 -119.5s-21.5 -78.167 -33.5 -117.5
s-23.167 -79 -33.5 -119s-15.5 -81.333 -15.5 -124c0 -48 11.5 -86.5 34.5 -115.5s55.5 -43.5 97.5 -43.5h19c7.33301 0 15.333 -3.16699 24 -9.5s12.334 -15.833 11.001 -28.5l-11 -79h-51c-46.667 0 -87.334 6.83301 -122.001 20.5s-63.5 32.667 -86.5 57
s-40.333 53.166 -52 86.499s-17.5 70 -17.5 110c0 45.333 5.5 88.333 16.5 129s22.833 80.667 35.5 120s24.5 78.333 35.5 117s16.5 78 16.5 118c0 35.333 -9.5 64.333 -28.5 87s-46.5 34 -82.5 34z" />
    <glyph glyph-name="bar" unicode="|" horiz-adv-x="529" 
d="M193 -351v1921h141v-1921h-141z" />
    <glyph glyph-name="braceright" unicode="}" horiz-adv-x="582" 
d="M-47 -294l11.001 79.0039c1.33301 12.667 6.83301 22.167 16.5 28.5s18.5 9.5 26.5 9.5h18c51.333 0 93.333 19.667 126 59s50.667 95 54 167c2.66699 31.333 4 62.333 4 93s-0.333008 60.667 -1 90s-1 58.166 -1 86.499s1 56.166 3 83.499
c1.33301 31.333 6.83301 60 16.5 86s22 49.167 37 69.5s32.333 37.166 52 50.499s40.834 23 63.501 29c-36.667 11.333 -65.834 32.833 -87.501 64.5s-32.5 69.167 -32.5 112.5c0 40 5.16699 79.667 15.5 119s21.666 78.666 33.999 117.999s23.5 79 33.5 119
s15 81.333 15 124c0 47.333 -11.333 85.666 -34 114.999s-55.334 44 -98.001 44h-17c-8 0 -16.333 2.66699 -25 8s-12 15 -10 29l9 79h51c46.667 0 87.5 -6.83301 122.5 -20.5s63.833 -32.667 86.5 -57s39.834 -53.166 51.501 -86.499s17.5 -70 17.5 -110
c0 -45.333 -5.33301 -88.333 -16 -129s-22.5 -80.5 -35.5 -119.5s-24.667 -77.833 -35 -116.5s-15.5 -78 -15.5 -118c0 -35.333 9.16699 -64.333 27.5 -87s45.833 -34 82.5 -34l-13 -106c-50 0 -87.667 -20.333 -113 -61s-38 -103.667 -38 -189
c0 -14.667 0.333008 -31 1 -49s1.5 -36.333 2.5 -55s2.16699 -37.167 3.5 -55.5s2 -34.833 2 -49.5c0 -66 -8 -125 -24 -177s-39 -96 -69 -132s-67.5 -63.5 -112.5 -82.5s-96.5 -28.5 -154.5 -28.5h-51z" />
    <glyph glyph-name="asciitilde" unicode="~" 
d="M119 424c0 46 6.33496 88.002 19.002 126.002s30.667 70.667 54 98s52.333 48.666 87 63.999s74 23 118 23c35.333 0 70.5 -5.66699 105.5 -17s68.667 -23.5 101 -36.5l92.5 -36.5c29.333 -11.333 56.666 -17 81.999 -17c44.667 0 79.334 14.5 104.001 43.5
s37.334 67.167 38.001 114.5h148c0 -46 -6.33301 -88 -19 -126s-30.834 -70.667 -54.501 -98s-52.834 -48.5 -87.501 -63.5s-73.667 -22.5 -117 -22.5c-36 0 -71.333 5.5 -106 16.5s-68.167 23.167 -100.5 36.5l-93 37c-29.667 11.333 -56.834 17 -81.501 17
c-44.667 0 -79.5 -14.333 -104.5 -43s-37.833 -67.334 -38.5 -116.001h-147z" />
    <glyph glyph-name="uni00A0" unicode="&#xa0;" horiz-adv-x="479" 
 />
    <glyph glyph-name="cent" unicode="&#xa2;" 
d="M126 441c0 86 13.1689 165.831 39.502 239.498s64.166 137.334 113.499 191.001s109.5 96.334 180.5 128.001s151.5 48.5 241.5 50.5l36 185c2.66699 12.667 9 24 19 34s22.333 15 37 15h65l-46 -240c56 -7.33301 105.333 -21.833 148 -43.5s80 -48.834 112 -81.501
l-52 -62c-6 -7.33301 -11.833 -12.5 -17.5 -15.5s-13.167 -4.5 -22.5 -4.5c-8 0 -17.167 3 -27.5 9l-37.5 21.5c-14.667 8.33301 -32.5 16.5 -53.5 24.5s-45.833 14.333 -74.5 19l-150 -789c44 2.66699 81.5 9.33398 112.5 20.001s57.167 21.834 78.5 33.501s39 22 53 31
s26.667 13.5 38 13.5c15.333 0 25.666 -5 30.999 -15l41 -62c-46 -48.667 -102.167 -85.5 -168.5 -110.5s-136.833 -39.833 -211.5 -44.5l-33 -182c-3.33301 -12.667 -10 -24 -20 -34s-22 -15 -36 -15h-65l44 233c-56 6 -107 20.667 -153 44s-85.5 54.166 -118.5 92.499
s-58.5 84 -76.5 137s-27 112.167 -27 177.5zM300.002 449.998c0 -90 19.667 -162.5 59 -217.5s95 -89.833 167 -104.5l150 786c-60.667 -4 -114.5 -17.5 -161.5 -40.5s-86.333 -54.667 -118 -95s-55.667 -88.333 -72 -144s-24.5 -117.167 -24.5 -184.5z" />
    <glyph glyph-name="sterling" unicode="&#xa3;" 
d="M0 0l12.999 114.997c24.667 6.66699 46.834 15.334 66.501 26.001s36.667 24 51 40s26.166 35.333 35.499 58s16 50 20 82l37 309h-167l9 71c1.33301 12 7.16602 23 17.499 33s23.5 15 39.5 15h116l33 271c8 64 25.667 124.167 53 180.5s63.166 105.333 107.499 147
s96.5 74.5 156.5 98.5s127.333 36 202 36c56.667 0 105.834 -6.5 147.501 -19.5s77.667 -30.833 108 -53.5s55.333 -49.5 75 -80.5s35.5 -64.5 47.5 -100.5l-76 -45c-18 -8 -34.333 -11.333 -49 -10s-27.667 9.33301 -39 24c-11.333 19.333 -23.333 37.333 -36 54
s-27.5 30.834 -44.5 42.501s-37.667 20.834 -62 27.501s-54.166 10 -89.499 10c-44.667 0 -85.167 -7.33301 -121.5 -22s-68.333 -35.5 -96 -62.5s-50.167 -59.5 -67.5 -97.5s-28.666 -80.667 -33.999 -128l-34 -272h484l-7 -72c-1.33301 -11.333 -7.33301 -22 -18 -32
s-23.667 -15 -39 -15h-435l-31 -262c-6 -51.333 -18.333 -95.166 -37 -131.499s-44.334 -68.833 -77.001 -97.5c20.667 4 41 7.33301 61 10s40.333 4 61 4h701l-8 -75c-1.33301 -8.66699 -4.16602 -17.667 -8.49902 -27s-10.5 -17.833 -18.5 -25.5
s-16.833 -13.834 -26.5 -18.501s-20.5 -7 -32.5 -7h-988z" />
    <glyph glyph-name="yen" unicode="&#xa5;" 
d="M115 329l11.998 101h350l13 108h-350l13 101h317l-317 826h147c16.667 0 29.834 -3.83301 39.501 -11.5s16.167 -18.5 19.5 -32.5l218 -586c6 -23.333 11.167 -44.833 15.5 -64.5s7.5 -38.834 9.5 -57.501c6.66699 19.333 14.334 38.833 23.001 58.5
s18.667 40.834 30 63.501l360 586c7.33301 11.333 16.833 21.5 28.5 30.5s25.5 13.5 41.5 13.5h150l-522 -826h317l-12 -101h-351l-14 -108h352l-13 -101h-351l-40 -329h-176l40 329h-350z" />
    <glyph glyph-name="dieresis" unicode="&#xa8;" horiz-adv-x="753" 
d="M226 1320c0 16 3.16699 31 9.5 45s14.666 26.333 24.999 37s22.333 19.167 36 25.5s28.5 9.5 44.5 9.5s31 -3.16699 45 -9.5s26.333 -14.833 37 -25.5s19.167 -23 25.5 -37s9.5 -29 9.5 -45s-3.16699 -30.833 -9.5 -44.5s-14.833 -25.5 -25.5 -35.5
s-23 -18.167 -37 -24.5s-29 -9.5 -45 -9.5s-30.833 3.16699 -44.5 9.5s-25.667 14.5 -36 24.5s-18.666 21.833 -24.999 35.5s-9.5 28.5 -9.5 44.5zM596 1320c0 16 2.99902 31 8.99902 45s14.333 26.333 25 37s23 19.167 37 25.5s29 9.5 45 9.5s30.833 -3.16699 44.5 -9.5
s25.834 -14.833 36.501 -25.5s19 -23 25 -37s9 -29 9 -45s-3 -30.833 -9 -44.5s-14.333 -25.5 -25 -35.5s-23 -18.167 -37 -24.5s-28.667 -9.5 -44 -9.5c-16 0 -31 3.16699 -45 9.5s-26.333 14.5 -37 24.5s-19 21.833 -25 35.5s-9 28.5 -9 44.5z" />
    <glyph glyph-name="copyright" unicode="&#xa9;" horiz-adv-x="1701" 
d="M117 733c0 68.667 8.83301 135 26.5 199s42.667 123.833 75 179.5s71.333 106.167 117 151.5s96.167 84.5 151.5 117.5s114.833 58.333 178.5 76s129.834 26.5 198.501 26.5s135 -8.83301 199 -26.5s123.667 -43 179 -76s105.833 -72.167 151.5 -117.5
s84.834 -95.833 117.501 -151.5s57.834 -115.334 75.501 -179.001s26.5 -130.167 26.5 -199.5c0 -68 -8.83301 -134 -26.5 -198s-42.834 -123.667 -75.501 -179s-71.834 -105.666 -117.501 -150.999s-96.167 -84.333 -151.5 -117s-114.833 -57.834 -178.5 -75.501
s-130.167 -26.5 -199.5 -26.5c-68.667 0 -134.834 8.83301 -198.501 26.5s-123.167 42.834 -178.5 75.501s-105.833 71.667 -151.5 117s-84.667 95.666 -117 150.999s-57.333 114.833 -75 178.5s-26.5 129.834 -26.5 198.501zM219 733c0 -60.667 7.49707 -119 22.4971 -175
s36.5 -108.333 64.5 -157s61.5 -92.834 100.5 -132.501s82.333 -73.667 130 -102s99.167 -50.166 154.5 -65.499s113 -23 173 -23s117.833 7.66699 173.5 23s107.667 37.166 156 65.499s92 62.333 131 102s72.5 83.834 100.5 132.501s49.667 101 65 157s23 114.333 23 175
c0 91.333 -16.833 177.166 -50.5 257.499s-79.667 150.333 -138 210s-127.166 106.834 -206.499 141.501s-164 52 -254 52s-174.167 -17.333 -252.5 -52s-146.666 -81.834 -204.999 -141.501s-104.166 -129.667 -137.499 -210s-50 -166.166 -50 -257.499zM420.997 735
c0 68.667 11.833 131.999 35.5 189.999s56.167 107.667 97.5 149s90.5 73.333 147.5 96s119.167 34 186.5 34c74.667 0 137.667 -11.333 189 -34s96.333 -53.334 135 -92.001l-47 -66c-3.33301 -4 -7.66602 -8.16699 -12.999 -12.5s-12 -6.5 -20 -6.5
c-9.33301 0 -19.5 3.83301 -30.5 11.5s-24.833 16 -41.5 25s-38.167 17.5 -64.5 25.5s-59.166 12 -98.499 12c-48.667 0 -92.167 -7.66699 -130.5 -23s-71 -37.333 -98 -66s-47.833 -63.5 -62.5 -104.5s-22 -87.167 -22 -138.5c0 -52.667 7.33301 -99.667 22 -141
s35 -75.833 61 -103.5s57 -49 93 -64s75.333 -22.5 118 -22.5c35.333 0 64.833 2.83301 88.5 8.5s44.667 12.334 63 20.001s34.666 16.334 48.999 26.001s30.166 18.5 47.499 26.5c10 0.666992 19 -3 27 -11l62 -65c-38.667 -45.333 -86.334 -80.5 -143.001 -105.5
s-124.334 -37.5 -203.001 -37.5c-66.667 0 -127.667 11.667 -183 35s-102.666 55.833 -141.999 97.5s-69.666 91.167 -90.999 148.5s-32 120 -32 188z" />
    <glyph glyph-name="guillemotleft" unicode="&#xab;" horiz-adv-x="807" 
d="M81 530l2.99805 22.999l286 397l53 -27c14.667 -7.33301 22.667 -17.833 24 -31.5s-4 -28.167 -16 -43.5l-179 -269c-12.667 -18.667 -23.667 -31 -33 -37c7.33301 -7.33301 15 -19.666 23 -36.999l114 -269c6.66699 -16 7.83398 -30.833 3.50098 -44.5
s-14.166 -24.167 -29.499 -31.5l-62 -28zM358.998 529.999l2.99805 22.999l286 397l53 -27c14.667 -7.33301 22.667 -17.833 24 -31.5s-4 -28.167 -16 -43.5l-179 -269c-12.667 -18.667 -23.667 -31 -33 -37c7.33301 -7.33301 15 -19.666 23 -36.999l114 -269
c6.66699 -16 7.83398 -30.833 3.50098 -44.5s-14.166 -24.167 -29.499 -31.5l-62 -28z" />
    <glyph glyph-name="uni00AD" unicode="&#xad;" horiz-adv-x="718" 
d="M115 539l18 149h468l-18 -149h-468z" />
    <glyph glyph-name="registered" unicode="&#xae;" horiz-adv-x="1701" 
d="M117 733c0 68.667 8.83301 135 26.5 199s42.667 123.833 75 179.5s71.333 106.167 117 151.5s96.167 84.5 151.5 117.5s114.833 58.333 178.5 76s129.834 26.5 198.501 26.5s135 -8.83301 199 -26.5s123.667 -43 179 -76s105.833 -72.167 151.5 -117.5
s84.834 -95.833 117.501 -151.5s57.834 -115.334 75.501 -179.001s26.5 -130.167 26.5 -199.5c0 -68 -8.83301 -134 -26.5 -198s-42.834 -123.667 -75.501 -179s-71.834 -105.666 -117.501 -150.999s-96.167 -84.333 -151.5 -117s-114.833 -57.834 -178.5 -75.501
s-130.167 -26.5 -199.5 -26.5c-68.667 0 -134.834 8.83301 -198.501 26.5s-123.167 42.834 -178.5 75.501s-105.833 71.667 -151.5 117s-84.667 95.666 -117 150.999s-57.333 114.833 -75 178.5s-26.5 129.834 -26.5 198.501zM219 733c0 -60.667 7.49707 -119 22.4971 -175
s36.5 -108.333 64.5 -157s61.5 -92.834 100.5 -132.501s82.333 -73.667 130 -102s99.167 -50.166 154.5 -65.499s113 -23 173 -23s117.833 7.66699 173.5 23s107.667 37.166 156 65.499s92 62.333 131 102s72.5 83.834 100.5 132.501s49.667 101 65 157s23 114.333 23 175
c0 91.333 -16.833 177.166 -50.5 257.499s-79.667 150.333 -138 210s-127.166 106.834 -206.499 141.501s-164 52 -254 52s-174.167 -17.333 -252.5 -52s-146.666 -81.834 -204.999 -141.501s-104.166 -129.667 -137.499 -210s-50 -166.166 -50 -257.499zM557.997 279
l0.00195312 912.998h294c118 0 205.167 -21.333 261.5 -64s84.5 -105.667 84.5 -189c0 -64 -18 -118.333 -54 -163s-90.333 -75.667 -163 -93c11.333 -7.33301 21.166 -16.166 29.499 -26.499s16.166 -22.166 23.499 -35.499l235 -342h-153c-22.667 0 -39 8.33301 -49 25
l-207 309c-5.33301 9.33301 -12.5 16.333 -21.5 21s-22.167 7 -39.5 7h-82v-362h-159zM716.999 757.998h119c37.333 0 69.166 3.5 95.499 10.5s47.5 17.333 63.5 31s27.5 30.5 34.5 50.5s10.5 43 10.5 69c0 25.333 -3 47.5 -9 66.5s-16.333 34.667 -31 47
s-34.167 21.5 -58.5 27.5s-54.166 9 -89.499 9h-135v-311z" />
    <glyph glyph-name="acute" unicode="&#xb4;" horiz-adv-x="753" 
d="M408 1191l166 248c10 16 20.833 27.5 32.5 34.5s27.5 10.5 47.5 10.5h164l-250 -264c-9.33301 -10 -18.5 -17.333 -27.5 -22s-19.833 -7 -32.5 -7h-100z" />
    <glyph glyph-name="cedilla" unicode="&#xb8;" horiz-adv-x="753" 
d="M184 -334l25 56c4.66699 12.667 13 19 25 19c4 0 8.33301 -1.16699 13 -3.5l16 -8c6 -3 13.5 -5.83301 22.5 -8.5s19.833 -4 32.5 -4c27.333 0 48.166 6.5 62.499 19.5s21.5 29.5 21.5 49.5c0 23.333 -12 39.833 -36 49.5s-58.333 17.834 -103 24.501l73 166h102
l-40 -104c52 -11.333 89.833 -27.666 113.5 -48.999s35.5 -48 35.5 -80c0 -24.667 -5.66699 -46.834 -17 -66.501s-27.166 -36.334 -47.499 -50.001s-44.5 -24.167 -72.5 -31.5s-58.667 -11 -92 -11c-26 0 -50.167 3 -72.5 9s-42.833 13.667 -61.5 23z" />
    <glyph glyph-name="guillemotright" unicode="&#xbb;" horiz-adv-x="806" 
d="M63.5 191.5c-1 13.667 3.83398 28.5 14.501 44.5l181 269c10.667 16.667 21 28.667 31 36c-8.66699 8 -16.334 20.667 -23.001 38l-114 269c-6.66699 16 -7.5 30.5 -2.5 43.5s15.167 23.5 30.5 31.5l60 27l186 -397l-2 -23l-284 -398l-54 28
c-14.667 7.33301 -22.5 17.833 -23.5 31.5zM342.501 191.5c-1 13.667 3.83398 28.5 14.501 44.5l181 269c10.667 16.667 21 28.667 31 36c-8.66699 8 -16.334 20.667 -23.001 38l-114 269c-6.66699 16 -7.5 30.5 -2.5 43.5s15.167 23.5 30.5 31.5l60 27l186 -397l-2 -23
l-284 -398l-54 28c-14.667 7.33301 -22.5 17.833 -23.5 31.5z" />
    <glyph glyph-name="circumflex" unicode="&#x2c6;" horiz-adv-x="753" 
d="M223 1197l241.001 270.001h156l180 -270h-113c-6.66699 0 -13.334 1.33301 -20.001 4s-13 8 -19 16l-101 135c-2.66699 2.66699 -5 5.66699 -7 9l-6 10l-18 -19l-133 -135c-12.667 -12.667 -27 -19.334 -43 -20.001h-117z" />
    <glyph glyph-name="ring" unicode="&#x2da;" horiz-adv-x="753" 
d="M340 1347c2.66699 28.667 10.4971 54.5 23.4971 77.5s29 43 48 60s40.333 30.167 64 39.5s48.167 14 73.5 14s49 -4.66699 71 -14s40.833 -22.5 56.5 -39.5s27.334 -37 35.001 -60s9.83398 -48.833 6.50098 -77.5c-3.33301 -28 -11.333 -53.667 -24 -77
s-28.667 -43.166 -48 -59.499s-41 -29.166 -65 -38.499s-49 -14 -75 -14c-25.333 0 -48.833 4.66699 -70.5 14s-40.167 22.166 -55.5 38.499s-26.666 36.166 -33.999 59.499s-9.33301 49 -6 77zM433.997 1347c-3.33301 -30 2.33105 -54.667 16.998 -74s37 -29 67 -29
c28 0 51.667 9.66699 71 29s31 44 35 74c3.33301 30.667 -2.66699 55.5 -18 74.5s-37 28.5 -65 28.5c-29.333 0 -53.666 -9.5 -72.999 -28.5s-30.666 -43.833 -33.999 -74.5z" />
    <glyph glyph-name="tilde" unicode="&#x2dc;" horiz-adv-x="753" 
d="M244 1231c3.33301 32.667 10.6631 62.498 21.9961 89.498s25.5 50.167 42.5 69.5s36.333 34.333 58 45s44.834 16 69.501 16c22.667 0 42.834 -5 60.501 -15s34.334 -20.833 50.001 -32.5l44.5 -32c14 -9.66699 28.333 -14.5 43 -14.5c46 0 73 29.333 81 88h102
c-3.33301 -32 -10.5 -61.5 -21.5 -88.5s-25 -50.167 -42 -69.5s-36.167 -34.166 -57.5 -44.499s-44.666 -15.5 -69.999 -15.5c-22 0 -42 4.83301 -60 14.5s-34.833 20.334 -50.5 32.001l-44.5 32.5c-14 10 -28.333 15 -43 15c-46 0 -72.667 -30 -80 -90h-104z" />
    <glyph glyph-name="uni0400" unicode="&#x400;" horiz-adv-x="1101" 
d="M100 0l181 1467h835l-19 -156h-643l-62 -495h520l-19 -150h-519l-63 -510h645l-19 -156h-837zM451 1896h179.001c20.667 0 36.167 -1.66699 46.5 -5s20.166 -12.333 29.499 -27l182 -281h-121c-13.333 0 -24 0.833008 -32 2.5s-15.667 7.5 -23 17.5z" />
    <glyph glyph-name="afii10023" unicode="&#x401;" horiz-adv-x="1101" 
d="M100 0l181 1467h835l-19 -156h-643l-62 -495h520l-19 -150h-519l-63 -510h645l-19 -156h-837zM452 1703c0 16.667 3 31.834 9 45.501s14.333 26 25 37s22.834 19.667 36.501 26s28.167 9.5 43.5 9.5c16 0 30.833 -3.16699 44.5 -9.5s26 -15 37 -26s19.5 -23.333 25.5 -37
s9 -28.834 9 -45.501c0 -16 -3 -30.833 -9 -44.5s-14.5 -25.5 -25.5 -35.5s-23.5 -18 -37.5 -24s-28.667 -9 -44 -9s-29.833 3 -43.5 9s-25.834 14 -36.501 24s-19 21.833 -25 35.5s-9 28.5 -9 44.5zM841 1703c0 16.667 3.16602 31.834 9.49902 45.501s14.5 26 24.5 37
s22 19.667 36 26s29 9.5 45 9.5s30.833 -3.16699 44.5 -9.5s25.834 -15 36.501 -26s19.167 -23.333 25.5 -37s9.5 -28.834 9.5 -45.501c0 -16 -3.16699 -30.833 -9.5 -44.5s-14.833 -25.5 -25.5 -35.5s-23 -18 -37 -24s-28.667 -9 -44 -9c-16 0 -31 3 -45 9s-26 14 -36 24
s-18.167 21.833 -24.5 35.5s-9.5 28.5 -9.5 44.5z" />
    <glyph glyph-name="afii10051" unicode="&#x402;" horiz-adv-x="1414" 
d="M114 1312l18 153.999h989l-18 -154h-423l-59 -479h286c76 0 141.167 -8.66699 195.5 -26s99 -41.166 134 -71.499s60.833 -66.333 77.5 -108s25 -87.5 25 -137.5c0 -74 -12 -141 -36 -201s-59.167 -111.5 -105.5 -154.5s-102.5 -76.167 -168.5 -99.5
s-140.667 -35 -224 -35h-89l18 152h89c54.667 0 102.334 7.16699 143.001 21.5s74.5 35 101.5 62s47.167 59.833 60.5 98.5s20 82.667 20 132c0 68 -20.333 120.833 -61 158.5s-106.334 56.5 -197.001 56.5h-288l-84 -681h-190l159 1312h-373z" />
    <glyph glyph-name="afii10052" unicode="&#x403;" horiz-adv-x="1031" 
d="M99 0l181 1466h816l-19 -150h-623l-162 -1316h-193zM590 1583l250 280.999c12 15.333 23.5 24.5 34.5 27.5s26.833 4.5 47.5 4.5h189l-339 -292c-11.333 -9.33301 -21.333 -15.166 -30 -17.499s-19.667 -3.5 -33 -3.5h-119z" />
    <glyph glyph-name="afii10053" unicode="&#x404;" horiz-adv-x="1285" 
d="M101 622c0 126.667 19.3359 242.672 58.0029 348.005s91.834 196.166 159.501 272.499s147.667 135.5 240 177.5s192.5 63 300.5 63c96 0 179.833 -16.667 251.5 -50s131.5 -78.666 179.5 -135.999l-73 -88c-5.33301 -6 -11.333 -11.167 -18 -15.5s-15 -6.5 -25 -6.5
c-8 0 -16.5 3.16699 -25.5 9.5s-19.5 14.333 -31.5 24s-26 20.167 -42 31.5s-35.167 21.666 -57.5 30.999s-48.166 17.333 -77.499 24s-63 10 -101 10c-64 0 -124.833 -11.333 -182.5 -34s-109.334 -55.334 -155.001 -98.001s-84.667 -94.667 -117 -156
s-55.833 -131 -70.5 -209h678l-18 -145h-676v-37c0 -76 9.66699 -144.333 29 -205s46.666 -112 81.999 -154s77.166 -74.333 125.499 -97s101.166 -34 158.499 -34c38 0 73.167 2.66699 105.5 8s62.666 13.5 90.999 24.5s55.5 25 81.5 42s52.333 37.5 79 61.5
c9.33301 7.33301 19.666 12.166 30.999 14.499s21.333 -1.83398 30 -12.501l66 -82c-63.333 -68.667 -137.166 -122.5 -221.499 -161.5s-181.833 -58.5 -292.5 -58.5c-87.333 0 -165.833 15.667 -235.5 47s-128.667 75.166 -177 131.499s-85.333 123.5 -111 201.5
s-38.5 164 -38.5 258z" />
    <glyph glyph-name="afii10054" unicode="&#x405;" horiz-adv-x="1036" 
d="M10 175l67.0049 90.999c6 7.33301 13.167 13.5 21.5 18.5s17.166 7.5 26.499 7.5c12.667 0 26.5 -7.66699 41.5 -23s34.167 -32.5 57.5 -51.5s52 -36.167 86 -51.5s76.667 -23 128 -23c47.333 0 89.833 7.5 127.5 22.5s69.667 35.833 96 62.5s46.5 58.667 60.5 96
s21 78.333 21 123c0 37.333 -8.16699 68.666 -24.5 93.999s-37.833 46.5 -64.5 63.5s-56.834 31.833 -90.501 44.5l-104 38.5c-35.667 13 -70.5 27.667 -104.5 44s-64.333 37 -91 62s-48.167 56 -64.5 93s-24.5 82.5 -24.5 136.5c0 60 11 117.667 33 173
s53.5 104.166 94.5 146.499s90.833 76.166 149.5 101.499s124.667 38 198 38c76 0 144 -14.333 204 -43s109.333 -68 148 -118l-56 -81c-7.33301 -9.33301 -14.5 -16.666 -21.5 -21.999s-15.5 -8 -25.5 -8c-10.667 0 -22.5 6 -35.5 18s-29.667 25 -50 39s-45 27 -74 39
s-64.833 18 -107.5 18c-44 0 -82.833 -6.83301 -116.5 -20.5s-62.334 -32.334 -86.001 -56.001s-41.667 -51.167 -54 -82.5s-18.5 -65 -18.5 -101c0 -35.333 8.33301 -65.166 25 -89.499s38.167 -45.166 64.5 -62.499s56.833 -32.666 91.5 -45.999l105 -41
c35.333 -14 70.333 -29.5 105 -46.5s65.334 -38.167 92.001 -63.5s48.167 -55.833 64.5 -91.5s24.5 -78.5 24.5 -128.5c0 -69.333 -12 -135 -36 -197s-58.333 -116.167 -103 -162.5s-98.834 -83.166 -162.501 -110.499s-134.834 -41 -213.501 -41
c-87.333 0 -165.333 17.167 -234 51.5s-125.334 80.833 -170.001 139.5z" />
    <glyph glyph-name="afii10055" unicode="&#x406;" horiz-adv-x="545" 
d="M100 0l180 1467h192l-179 -1467h-193z" />
    <glyph glyph-name="afii10056" unicode="&#x407;" horiz-adv-x="545" 
d="M100 0l180 1467h192l-179 -1467h-193zM103 1703c0 16.667 3 31.834 9 45.501s14.333 26 25 37s22.834 19.667 36.501 26s28.167 9.5 43.5 9.5c16 0 30.833 -3.16699 44.5 -9.5s26 -15 37 -26s19.5 -23.333 25.5 -37s9 -28.834 9 -45.501c0 -16 -3 -30.833 -9 -44.5
s-14.5 -25.5 -25.5 -35.5s-23.5 -18 -37.5 -24s-28.667 -9 -44 -9s-29.833 3 -43.5 9s-25.834 14 -36.501 24s-19 21.833 -25 35.5s-9 28.5 -9 44.5zM492 1703c0 16.667 3.16602 31.834 9.49902 45.501s14.5 26 24.5 37s22 19.667 36 26s29 9.5 45 9.5
s30.833 -3.16699 44.5 -9.5s25.834 -15 36.501 -26s19.167 -23.333 25.5 -37s9.5 -28.834 9.5 -45.501c0 -16 -3.16699 -30.833 -9.5 -44.5s-14.833 -25.5 -25.5 -35.5s-23 -18 -37 -24s-28.667 -9 -44 -9c-16 0 -31 3 -45 9s-26 14 -36 24s-18.167 21.833 -24.5 35.5
s-9.5 28.5 -9.5 44.5z" />
    <glyph glyph-name="afii10057" unicode="&#x408;" horiz-adv-x="801" 
d="M-37 12l14.0029 111.999c1.33301 10 5.33301 18.833 12 26.5s16.667 11.5 30 11.5c6.66699 0 14.5 -0.833008 23.5 -2.5s19.167 -3.66699 30.5 -6s24.333 -4.5 39 -6.5s31.667 -3 51 -3c35.333 0 68.666 5.83301 99.999 17.5s59.5 30.834 84.5 57.501
s46.167 61.5 63.5 104.5s30 95.833 38 158.5l120 985h192l-120 -981c-10 -81.333 -28 -153.166 -54 -215.499s-59.167 -114.833 -99.5 -157.5s-87.833 -74.834 -142.5 -96.501s-115.667 -32.5 -183 -32.5c-36.667 0 -70.834 2.33301 -102.501 7s-63.834 11.667 -96.501 21z
" />
    <glyph glyph-name="afii10058" unicode="&#x409;" horiz-adv-x="2003" 
d="M-71 25l15.0029 119.999h66c24.667 0 49.834 5.5 75.501 16.5s51.834 32.667 78.501 65s53.667 78.5 81 138.5s55.166 139 83.499 237s57.166 217.5 86.499 358.5s59 309.5 89 505.5h810l-79 -633h258c75.333 0 140.166 -8.66699 194.499 -26
s99.166 -41.166 134.499 -71.499s61.333 -66.333 78 -108s25 -87.5 25 -137.5c0 -74 -12.167 -141 -36.5 -201s-59.5 -111.5 -105.5 -154.5s-102 -76.167 -168 -99.5s-141 -35 -225 -35h-449l162 1316h-436c-32 -189.333 -64.167 -353.5 -96.5 -492.5
s-65 -257.833 -98 -356.5s-66.833 -179.167 -101.5 -241.5s-70.167 -111 -106.5 -146s-73.833 -59.167 -112.5 -72.5s-78.334 -20 -119.001 -20c-34.667 0 -61.167 3.16699 -79.5 9.5s-26.5 15.833 -24.5 28.5zM1152 151.999h256.999c54.667 0 102.334 7.16699 143.001 21.5
s74.5 35 101.5 62s47.167 59.833 60.5 98.5s20 82.667 20 132c0 68 -20.5 120.833 -61.5 158.5s-106.833 56.5 -197.5 56.5h-258z" />
    <glyph glyph-name="afii10059" unicode="&#x40a;" horiz-adv-x="2066" 
d="M100 0l181.001 1467h192l-81 -658h716l81 658h193l-78 -634h252c75.333 0 140.166 -8.66699 194.499 -26s99 -41.166 134 -71.499s61 -66.333 78 -108s25.5 -87.5 25.5 -137.5c0 -74 -12.167 -141 -36.5 -201s-59.5 -111.5 -105.5 -154.5s-102.167 -76.167 -168.5 -99.5
s-141.5 -35 -225.5 -35h-443l82 670h-716l-82 -670h-193zM1220 151.999h250.999c54.667 0 102.334 7.16699 143.001 21.5s74.5 35 101.5 62s47.167 59.833 60.5 98.5s20 82.667 20 132c0 68 -20.5 120.833 -61.5 158.5s-106.833 56.5 -197.5 56.5h-252z" />
    <glyph glyph-name="afii10060" unicode="&#x40b;" horiz-adv-x="1419" 
d="M114 1312l17.999 154.001h990l-19 -154h-423l-59 -485c74 20.667 143.667 36.667 209 48s125.333 16.666 180 15.999s103.167 -8.5 145.5 -23.5s76.833 -39.167 103.5 -72.5s45.167 -76 55.5 -128s10.833 -116 1.5 -192l-59 -476h-191l58 477c8 68 5 122.833 -9 164.5
s-41.667 71 -83 88s-97.166 21.667 -167.499 14s-157.5 -26.167 -261.5 -55.5l-84 -687h-191l160 1312h-374z" />
    <glyph glyph-name="afii10061" unicode="&#x40c;" horiz-adv-x="1280" 
d="M99 0l180.999 1467h191l-80 -645h139c28 0 52.5 4.66699 73.5 14s42.833 28 65.5 56l409 520c11.333 16 24.833 29.167 40.5 39.5s32.834 15.5 51.501 15.5h162l-478 -605c-35.333 -47.333 -79.333 -79 -132 -95c32.667 -9.33301 59.5 -24.333 80.5 -45
s40.167 -49 57.5 -85l328 -637h-173c-19.333 0 -34.833 5.16699 -46.5 15.5s-22.167 25.166 -31.5 44.499l-282 542c-6.66699 12.667 -13.5 23.834 -20.5 33.501s-15.333 17.334 -25 23.001s-20.667 9.83398 -33 12.501s-26.5 4 -42.5 4h-160l-83 -675h-192zM671.999 1583
l250 280.999c12 15.333 23.5 24.5 34.5 27.5s26.833 4.5 47.5 4.5h189l-339 -292c-11.333 -9.33301 -21.333 -15.166 -30 -17.499s-19.667 -3.5 -33 -3.5h-119z" />
    <glyph glyph-name="uni040D" unicode="&#x40d;" horiz-adv-x="1453" 
d="M99 0l181.002 1467h192l-127 -1034c-4 -28.667 -8.5 -58.5 -13.5 -89.5s-12.167 -63.833 -21.5 -98.5c15.333 30 30.666 57.833 45.999 83.5s30.333 48.5 45 68.5l744 1010c11.333 15.333 25 29.166 41 41.499s33.333 18.5 52 18.5h142l-179 -1467h-192l127 1034
c3.33301 28.667 7.66602 58.834 12.999 90.501s12.333 65.167 21 100.5c-14.667 -30.667 -29.667 -59.167 -45 -85.5s-30.666 -49.833 -45.999 -70.5l-743 -1009c-10.667 -15.333 -24.334 -29.166 -41.001 -41.499s-34.667 -18.5 -54 -18.5h-142zM564.002 1895h179.001
c20.667 0 36.167 -1.66699 46.5 -5s20.166 -12.333 29.499 -27l182 -281h-121c-13.333 0 -24 0.833008 -32 2.5s-15.667 7.5 -23 17.5z" />
    <glyph glyph-name="afii10062" unicode="&#x40e;" horiz-adv-x="1200" 
d="M110 1466l174 -0.00195312c17.333 0 30.333 -4 39 -12s15.667 -19 21 -33l242 -677c8 -26.667 15.333 -53 22 -79s12 -52.333 16 -79c10 26.667 21.333 53.167 34 79.5l39 78.5l360 677c7.33301 11.333 17 21.666 29 30.999s25.667 14 41 14h163l-705 -1276
c-22 -39.333 -44.5 -72.166 -67.5 -98.499s-46.5 -47.166 -70.5 -62.499s-48.667 -26.166 -74 -32.499s-51.666 -9.5 -78.999 -9.5c-40.667 0 -70.834 4 -90.501 12s-28.5 21.667 -26.5 41l13 105h67c37.333 0 70.333 9 99 27s57 51 85 99l85 153zM478 1778
c1.33301 14.667 5.66699 27.498 13 38.498s17 16.5 29 16.5h97c-3.33301 -32.667 -3.66602 -60.167 -0.999023 -82.5s8.66699 -40.333 18 -54s22.333 -23.5 39 -29.5s38 -9 64 -9s48.167 3 66.5 9s33.833 15.833 46.5 29.5s22.667 31.667 30 54s13 49.833 17 82.5h97
c11.333 0 19.833 -5.66699 25.5 -17s7.5 -24 5.5 -38c-7.33301 -67.333 -37.333 -119.666 -90 -156.999s-122 -56 -208 -56c-86.667 0 -151.834 18.333 -195.501 55s-61.5 89.334 -53.5 158.001z" />
    <glyph glyph-name="afii10145" unicode="&#x40f;" horiz-adv-x="1400" 
d="M99 0l181 1466h192l-162 -1315h664l162 1315h192l-179 -1466h-437l-37 -301c-2 -17.333 -9.5 -31 -22.5 -41s-28.5 -15 -46.5 -15h-113l43 357h-437z" />
    <glyph glyph-name="afii10017" unicode="&#x410;" horiz-adv-x="1301" 
d="M-58 0l717.998 1467h195l359 -1467h-148c-17.333 -0 -30.666 4.33301 -39.999 13s-15.666 19.667 -18.999 33l-80 358h-598l-168 -358c-5.33301 -12 -14.5 -22.667 -27.5 -32s-27.5 -14 -43.5 -14h-148zM393.998 544l501.999 0.000976562l-135 607
c-3.33301 18.667 -7.33301 39.667 -12 63s-9 49 -13 77c-10 -28 -20.167 -53.833 -30.5 -77.5s-19.166 -44.834 -26.499 -63.501z" />
    <glyph glyph-name="afii10018" unicode="&#x411;" horiz-adv-x="1188" 
d="M99 0l181.001 1466h879l-18 -151h-688l-60 -482h258c75.333 0 140.166 -8.66699 194.499 -26s99 -41.166 134 -71.499s60.833 -66.333 77.5 -108s25 -87.5 25 -137.5c0 -74 -12 -141 -36 -201s-59.167 -111.5 -105.5 -154.5s-102.5 -76.167 -168.5 -99.5
s-140.667 -35 -224 -35h-449zM309.001 151.999h256.999c54.667 0 102.334 7.16699 143.001 21.5s74.5 35 101.5 62s47.167 59.833 60.5 98.5s20 82.667 20 132c0 68 -20.5 120.833 -61.5 158.5s-106.833 56.5 -197.5 56.5h-258z" />
    <glyph glyph-name="afii10019" unicode="&#x412;" horiz-adv-x="1232" 
d="M100 0l181.002 1467h435c76 0 141.333 -7.66699 196 -23s99.834 -37.166 135.501 -65.499s62 -62.833 79 -103.5s25.5 -85.667 25.5 -135c0 -44 -6.33301 -85.833 -19 -125.5s-31.667 -76.167 -57 -109.5s-56.833 -63 -94.5 -89s-81.834 -46.667 -132.501 -62
c88 -20 154.167 -54.833 198.5 -104.5s66.5 -112.5 66.5 -188.5c0 -67.333 -12.167 -129.333 -36.5 -186s-59.333 -105.334 -105 -146.001s-101.334 -72.334 -167.001 -95.001s-139.834 -34 -222.501 -34h-483zM310.002 152.001h288c54.667 0 102.5 7.16699 143.5 21.5
s75 34.666 102 60.999s47.333 58.333 61 96s20.5 80.167 20.5 127.5c0 64.667 -21.667 116.334 -65 155.001s-109.333 58 -198 58h-288zM390.002 806.001l238.001 -0.000976562c55.333 0 103.666 7.33301 144.999 22s75.833 35.167 103.5 61.5s48.167 57.833 61.5 94.5
s20 77.334 20 122.001c0 70 -21.167 122.667 -63.5 158s-107.833 53 -196.5 53h-244z" />
    <glyph glyph-name="afii10020" unicode="&#x413;" horiz-adv-x="1031" 
d="M99 0l181 1466h816l-19 -150h-623l-162 -1316h-193z" />
    <glyph glyph-name="afii10021" unicode="&#x414;" horiz-adv-x="1490" 
d="M-100 -357l62.001 508h136c20.667 10 42.167 26.667 64.5 50s45 56.333 68 99s46.5 96.5 70.5 161.5s48.167 144.5 72.5 238.5s48.833 204.167 73.5 330.5s49.667 271.5 75 435.5h810l-162 -1315h221l-56 -452c-2.66699 -17.333 -10.334 -31 -23.001 -41
s-27.667 -15 -45 -15h-115l44 357h-1076l-38 -301c-1.33301 -17.333 -8.5 -31 -21.5 -41s-28.5 -15 -46.5 -15h-114zM316.001 151h662.002l143 1165h-436c-28.667 -170 -58 -318.833 -88 -446.5s-60.333 -238.334 -91 -332.001s-61.834 -171.667 -93.501 -234
s-63.834 -113.166 -96.501 -152.499z" />
    <glyph glyph-name="afii10022" unicode="&#x415;" horiz-adv-x="1101" 
d="M100 0l181 1467h835l-19 -156h-643l-62 -495h520l-19 -150h-519l-63 -510h645l-19 -156h-837z" />
    <glyph glyph-name="afii10024" unicode="&#x416;" horiz-adv-x="1972" 
d="M-56 0l471.997 637c24.667 34.667 50.5 62.5 77.5 83.5s56.833 36.5 89.5 46.5c-26 9.33301 -47.667 23.166 -65 41.499s-33.333 41.833 -48 70.5l-315 588h150c20 0 38 -5 54 -15s27.667 -24 35 -42l269 -513c16 -30.667 33.667 -50.834 53 -60.501
s43.333 -14.5 72 -14.5h132l79 645h182l-80 -645h134c28 0 53 4.83301 75 14.5s44.667 29.834 68 60.501l395 513c12 18 27 32 45 42s37 15 57 15h150l-459 -588c-22 -28.667 -43.667 -52.167 -65 -70.5s-46.333 -32.166 -75 -41.499c30.667 -10 56.834 -25.5 78.501 -46.5
s40.834 -48.833 57.501 -83.5l316 -637h-127c-28.667 0 -52.167 6.16699 -70.5 18.5s-32.5 29.166 -42.5 50.499l-270 525c-13.333 28 -30 48.5 -50 61.5s-46.667 19.5 -80 19.5h-155l-83 -675h-181l83 675h-153c-33.333 0 -61.5 -6.5 -84.5 -19.5
s-44.833 -33.5 -65.5 -61.5l-398 -525c-15.333 -21.333 -33.666 -38.166 -54.999 -50.499s-46 -18.5 -74 -18.5h-128z" />
    <glyph glyph-name="afii10025" unicode="&#x417;" horiz-adv-x="1098" 
d="M-11 179l65.001 88.999c6 7.33301 13.167 13.5 21.5 18.5s17.166 7.5 26.499 7.5c13.333 0 28.5 -7.66699 45.5 -23s38.667 -32.5 65 -51.5s59 -36.167 98 -51.5s87.167 -23 144.5 -23c54 0 102.333 7.66699 145 23s78.667 37 108 65s51.833 61.667 67.5 101
s23.5 83.333 23.5 132c0 34 -5.83301 65.333 -17.5 94s-28.834 53.334 -51.501 74.001s-50.667 36.667 -84 48s-72 17 -116 17h-182l20 158h176c42 0 81.167 5.83301 117.5 17.5s67.833 28.667 94.5 51s47.5 49.833 62.5 82.5s22.5 69.667 22.5 111
c0 30 -5.16699 57.5 -15.5 82.5s-25.5 46.5 -45.5 64.5s-45.333 32 -76 42s-65.667 15 -105 15c-50.667 0 -94.5 -5.83301 -131.5 -17.5s-69.167 -24.667 -96.5 -39s-50 -27.333 -68 -39s-32.667 -17.5 -44 -17.5c-18 0 -31.333 10 -40 30l-36 90
c60 48 126.833 85.167 200.5 111.5s153.167 39.5 238.5 39.5c64 0 120.833 -8.33301 170.5 -25s91.667 -40 126 -70s60.333 -65.167 78 -105.5s26.5 -84.833 26.5 -133.5c0 -87.333 -23.333 -162.666 -70 -225.999s-111 -110 -193 -140c70 -28 124.167 -69 162.5 -123
s57.5 -116.667 57.5 -188c0 -66.667 -12.333 -129.334 -37 -188.001s-60 -110.167 -106 -154.5s-102 -79 -168 -104s-140.333 -37.5 -223 -37.5c-101.333 0 -190.666 17.5 -267.999 52.5s-140.333 81.833 -189 140.5z" />
    <glyph glyph-name="afii10026" unicode="&#x418;" horiz-adv-x="1453" 
d="M99 0l181.002 1467h192l-127 -1034c-4 -28.667 -8.5 -58.5 -13.5 -89.5s-12.167 -63.833 -21.5 -98.5c15.333 30 30.666 57.833 45.999 83.5s30.333 48.5 45 68.5l744 1010c11.333 15.333 25 29.166 41 41.499s33.333 18.5 52 18.5h142l-179 -1467h-192l127 1034
c3.33301 28.667 7.66602 58.834 12.999 90.501s12.333 65.167 21 100.5c-14.667 -30.667 -29.667 -59.167 -45 -85.5s-30.666 -49.833 -45.999 -70.5l-743 -1009c-10.667 -15.333 -24.334 -29.166 -41.001 -41.499s-34.667 -18.5 -54 -18.5h-142z" />
    <glyph glyph-name="afii10027" unicode="&#x419;" horiz-adv-x="1453" 
d="M99 0l181.002 1467h192l-127 -1034c-4 -28.667 -8.5 -58.5 -13.5 -89.5s-12.167 -63.833 -21.5 -98.5c15.333 30 30.666 57.833 45.999 83.5s30.333 48.5 45 68.5l744 1010c11.333 15.333 25 29.166 41 41.499s33.333 18.5 52 18.5h142l-179 -1467h-192l127 1034
c3.33301 28.667 7.66602 58.834 12.999 90.501s12.333 65.167 21 100.5c-14.667 -30.667 -29.667 -59.167 -45 -85.5s-30.666 -49.833 -45.999 -70.5l-743 -1009c-10.667 -15.333 -24.334 -29.166 -41.001 -41.499s-34.667 -18.5 -54 -18.5h-142zM596.002 1777
c1.33301 14.667 5.66699 27.498 13 38.498s17 16.5 29 16.5h97c-3.33301 -32.667 -3.83301 -60.167 -1.5 -82.5s8.33301 -40.333 18 -54s22.834 -23.5 39.501 -29.5s38 -9 64 -9s48.167 3 66.5 9s33.833 15.833 46.5 29.5s22.667 31.667 30 54s13 49.833 17 82.5h97
c11.333 0 19.833 -5.66699 25.5 -17s7.5 -24 5.5 -38c-7.33301 -67.333 -37.333 -119.666 -90 -156.999s-122 -56 -208 -56c-86.667 0 -151.834 18.333 -195.501 55s-61.5 89.334 -53.5 158.001z" />
    <glyph glyph-name="afii10028" unicode="&#x41a;" horiz-adv-x="1280" 
d="M99 0l180.999 1467h191l-80 -645h139c28 0 52.5 4.66699 73.5 14s42.833 28 65.5 56l409 520c11.333 16 24.833 29.167 40.5 39.5s32.834 15.5 51.501 15.5h162l-478 -605c-35.333 -47.333 -79.333 -79 -132 -95c32.667 -9.33301 59.5 -24.333 80.5 -45
s40.167 -49 57.5 -85l328 -637h-173c-19.333 0 -34.833 5.16699 -46.5 15.5s-22.167 25.166 -31.5 44.499l-282 542c-6.66699 12.667 -13.5 23.834 -20.5 33.501s-15.333 17.334 -25 23.001s-20.667 9.83398 -33 12.501s-26.5 4 -42.5 4h-160l-83 -675h-192z" />
    <glyph glyph-name="afii10029" unicode="&#x41b;" horiz-adv-x="1385" 
d="M-71 25l15.001 120h66c24.667 0 49.834 5.5 75.501 16.5s51.834 32.667 78.501 65s53.667 78.5 81 138.5s55.166 139 83.499 237s57.166 217.5 86.499 358.5s59 309.5 89 505.5h810l-180 -1466h-193l162 1316h-436c-32 -189.333 -64.167 -353.5 -96.5 -492.5
s-65 -257.833 -98 -356.5s-66.833 -179.167 -101.5 -241.5s-70.167 -111 -106.5 -146s-73.833 -59.167 -112.5 -72.5s-78.334 -20 -119.001 -20c-34.667 0 -61.167 3.16699 -79.5 9.5s-26.5 15.833 -24.5 28.5z" />
    <glyph glyph-name="afii10030" unicode="&#x41c;" horiz-adv-x="1766" 
d="M100 0l181.002 1467h141c17.333 0 29.666 -2.16699 36.999 -6.5s15.666 -12.833 24.999 -25.5l356 -923c4 -13.333 7.83301 -26.833 11.5 -40.5s7.16699 -27.834 10.5 -42.501c6.66699 14.667 13.5 28.834 20.5 42.501s14.5 27.167 22.5 40.5l578 923
c11.333 13.333 21.5 22 30.5 26s21.833 6 38.5 6h143l-182 -1467h-166l133 1084c2 13.333 4.5 28.333 7.5 45l9.5 51l-571 -922c-18 -29.333 -42.667 -44 -74 -44h-28c-15.333 0 -28.5 3.83301 -39.5 11.5s-18.833 18.5 -23.5 32.5l-354 923
c-0.666992 -17.333 -1.5 -33.833 -2.5 -49.5s-2.16699 -30.5 -3.5 -44.5l-132 -1087h-169z" />
    <glyph glyph-name="afii10031" unicode="&#x41d;" horiz-adv-x="1454" 
d="M100 0l181 1467h192l-81 -658h716l81 658h193l-181 -1467h-192l82 670h-716l-82 -670h-193z" />
    <glyph glyph-name="afii10032" unicode="&#x41e;" horiz-adv-x="1526" 
d="M100 628c0 124.667 19.501 239.334 58.501 344.001s93 195 162 271s150.5 135.167 244.5 177.5s195.667 63.5 305 63.5c90 0 171.167 -16.333 243.5 -49s133.666 -77.667 183.999 -135s89 -125.333 116 -204s40.5 -164.667 40.5 -258
c0 -124.667 -19.333 -239.334 -58 -344.001s-92.167 -194.667 -160.5 -270s-149.5 -134 -243.5 -176s-196.333 -63 -307 -63c-90 0 -171 16 -243 48s-133.5 76.5 -184.5 133.5s-90 124.667 -117 203s-40.5 164.5 -40.5 258.5zM297.001 633
c0 -74.667 9.33203 -141.999 27.999 -201.999s45.834 -111.167 81.501 -153.5s78.667 -75 129 -98s107.5 -34.5 171.5 -34.5c81.333 0 155.666 16.167 222.999 48.5s125.333 78.333 174 138s86.334 132 113.001 217s40 180.167 40 285.5c0 74.667 -9.5 142 -28.5 202
s-46 111.167 -81 153.5s-78 75.166 -129 98.499s-108.167 35 -171.5 35c-80.667 0 -154.667 -16.167 -222 -48.5s-125.333 -78.5 -174 -138.5s-86.5 -132.5 -113.5 -217.5s-40.5 -180.167 -40.5 -285.5z" />
    <glyph glyph-name="afii10033" unicode="&#x41f;" horiz-adv-x="1400" 
d="M99 0l181 1466h1048l-179 -1466h-194l162 1316h-663l-162 -1316h-193z" />
    <glyph glyph-name="afii10034" unicode="&#x420;" horiz-adv-x="1150" 
d="M100 0l180 1467h404c78 0 145.667 -9.16699 203 -27.5s104.5 -44.5 141.5 -78.5s64.833 -75 83.5 -123s28 -101.333 28 -160c0 -77.333 -12.667 -148.166 -38 -212.499s-62 -119.666 -110 -165.999s-107.333 -82.666 -178 -108.999s-151.667 -39.5 -243 -39.5h-213
l-67 -551h-191zM377 701.997l213.001 0.00195312c58 0 109.167 9 153.5 27s81.5 42.833 111.5 74.5s52.833 69.5 68.5 113.5s23.5 92 23.5 144c0 39.333 -5.83301 74.666 -17.5 105.999s-29 58.166 -52 80.499s-52.333 39.5 -88 51.5s-76.834 18 -123.501 18h-213z" />
    <glyph glyph-name="afii10035" unicode="&#x421;" horiz-adv-x="1278" 
d="M100 621c0 127.333 19.8311 243.834 59.498 349.501s94.167 196.667 163.5 273s150.833 135.5 244.5 177.5s194.167 63 301.5 63c52 0 99.167 -4.5 141.5 -13.5s81 -22 116 -39s66.667 -37.5 95 -61.5s54.5 -50.667 78.5 -80l-65 -80
c-5.33301 -6.66699 -11.5 -12.167 -18.5 -16.5s-15.5 -6.5 -25.5 -6.5c-12 0 -24.833 6.83301 -38.5 20.5s-32.334 28.5 -56.001 44.5s-54.167 30.833 -91.5 44.5s-85.666 20.5 -144.999 20.5c-80 0 -154.167 -15.833 -222.5 -47.5s-127.833 -77.167 -178.5 -136.5
s-90.5 -130.833 -119.5 -214.5s-43.5 -177.834 -43.5 -282.501c0 -76 9.83301 -144 29.5 -204s47.167 -111 82.5 -153s77.166 -74.333 125.499 -97s101.5 -34 159.5 -34c45.333 0 85.333 3.83301 120 11.5s65.334 17 92.001 28s49.334 23.167 68.001 36.5l49 36l35.5 27.5
c9.66699 7.66699 18.167 11.5 25.5 11.5c6 0 11.167 -1.16699 15.5 -3.5s7.83301 -5.16602 10.5 -8.49902l67 -83c-64 -69.333 -138 -123.333 -222 -162s-181.333 -58 -292 -58c-88 0 -166.667 15.667 -236 47s-128.166 75.166 -176.499 131.499s-85.333 123.333 -111 201
s-38.5 163.5 -38.5 257.5z" />
    <glyph glyph-name="afii10036" unicode="&#x422;" horiz-adv-x="1118" 
d="M113 1307l18 160h1060l-20 -160h-433l-160 -1307h-191l160 1307h-434z" />
    <glyph glyph-name="afii10037" unicode="&#x423;" horiz-adv-x="1200" 
d="M110 1466l174 -0.00195312c17.333 0 30.333 -4 39 -12s15.667 -19 21 -33l242 -677c8 -26.667 15.333 -53 22 -79s12 -52.333 16 -79c10 26.667 21.333 53.167 34 79.5l39 78.5l360 677c7.33301 11.333 17 21.666 29 30.999s25.667 14 41 14h163l-705 -1276
c-22 -39.333 -44.5 -72.166 -67.5 -98.499s-46.5 -47.166 -70.5 -62.499s-48.667 -26.166 -74 -32.499s-51.666 -9.5 -78.999 -9.5c-40.667 0 -70.834 4 -90.501 12s-28.5 21.667 -26.5 41l13 105h67c37.333 0 70.333 9 99 27s57 51 85 99l85 153z" />
    <glyph glyph-name="afii10038" unicode="&#x424;" horiz-adv-x="1491" 
d="M90 707c0 88.667 16.668 172.167 50.001 250.5s79.5 147 138.5 206s128.333 106.167 208 141.5s165.834 54 258.501 56l22 173h182l-21 -173c78.667 -2 149.5 -17.333 212.5 -46s116.5 -67 160.5 -115s77.833 -103.5 101.5 -166.5s35.5 -129.5 35.5 -199.5
c0 -59.333 -7.5 -116.333 -22.5 -171s-36.333 -106.167 -64 -154.5s-61.167 -92.5 -100.5 -132.5s-83.333 -74.5 -132 -103.5s-101.334 -51.833 -158.001 -68.5s-116.334 -25.667 -179.001 -27l-21 -177h-181l21 177c-78.667 2 -149.5 17.5 -212.5 46.5
s-116.5 67.5 -160.5 115.5s-78 103.5 -102 166.5s-36 130.167 -36 201.5zM283.001 715c0 -52.667 7.66504 -102.167 22.998 -148.5s37.333 -87 66 -122s63.834 -63 105.501 -84s89.167 -31.833 142.5 -32.5l107 884c-63.333 -1.33301 -122.166 -15.333 -176.499 -42
s-101.333 -62.5 -141 -107.5s-70.667 -97.5 -93 -157.5s-33.5 -123.333 -33.5 -190zM800.999 328c63.333 0.666992 122.333 14.5 177 41.5s101.834 63.167 141.501 108.5s70.667 97.833 93 157.5s33.5 123.167 33.5 190.5c0 52 -7.66699 101.167 -23 147.5
s-37.5 87 -66.5 122s-64.333 62.833 -106 83.5s-88.834 31.667 -141.501 33z" />
    <glyph glyph-name="afii10039" unicode="&#x425;" horiz-adv-x="1247" 
d="M-70 0l583.003 782.999l-344 684h173c13.333 0 23.166 -2.33301 29.499 -7s12.166 -11.667 17.499 -21l262 -553l10 18c3.33301 6 7.33301 12.667 12 20l373 514c7.33301 10 14.5 17.333 21.5 22s15.833 7 26.5 7h197l-513 -675l387 -792h-172
c-13.333 0 -23.833 4 -31.5 12s-13.5 16.333 -17.5 25l-299 640c-2.66699 -5.33301 -5.5 -10.666 -8.5 -15.999s-6.16699 -10.333 -9.5 -15l-443 -609c-8.66699 -13.333 -18.334 -22.833 -29.001 -28.5s-22 -8.5 -34 -8.5h-191z" />
    <glyph glyph-name="afii10040" unicode="&#x426;" horiz-adv-x="1479" 
d="M99 0l181.001 1466h192l-162 -1315h664l162 1315h192l-161 -1315h204l-54 -452c-2.66699 -17.333 -10.334 -31 -23.001 -41s-28 -15 -46 -15h-114l44 357h-1079z" />
    <glyph glyph-name="afii10041" unicode="&#x427;" horiz-adv-x="1261" 
d="M135 988l57.9971 478h193l-59 -479c-8 -68.667 -2.66699 -123.834 16 -165.501s52 -70.667 100 -87s111 -20.666 189 -12.999s171 26.5 279 56.5l85 688h192l-180 -1466h-192l78 639c-74.667 -21.333 -146.667 -38 -216 -50s-133.666 -17.833 -192.999 -17.5
s-112.666 8 -159.999 23s-86.666 39 -117.999 72s-53.5 75.667 -66.5 128s-14.833 116.833 -5.5 193.5z" />
    <glyph glyph-name="afii10042" unicode="&#x428;" horiz-adv-x="2042" 
d="M99 0l181 1466h192l-162 -1315h555l162 1315h193l-162 -1315h559l161 1315h192l-179 -1466h-1692z" />
    <glyph glyph-name="afii10043" unicode="&#x429;" horiz-adv-x="2121" 
d="M99 0l181.001 1466h192l-162 -1315h555l162 1315h193l-162 -1315h559l161 1315h192l-161 -1315h204l-54 -452c-2.66699 -17.333 -10.334 -31 -23.001 -41s-28 -15 -46 -15h-114l45 357h-1722z" />
    <glyph glyph-name="afii10044" unicode="&#x42a;" horiz-adv-x="1399" 
d="M106 1311l19.999 154.999h585l-79 -633h259c75.333 0 140 -8.66699 194 -26s98.667 -41.166 134 -71.499s61.333 -66.333 78 -108s25 -87.5 25 -137.5c0 -74 -12.167 -141 -36.5 -201s-59.5 -111.5 -105.5 -154.5s-102.167 -76.167 -168.5 -99.5
s-141.166 -35 -224.499 -35h-448l161 1311h-394zM548.999 151.999h256.999c54.667 0 102.334 7.16699 143.001 21.5s74.5 35 101.5 62s47 59.833 60 98.5s19.5 82.667 19.5 132c0 68 -20.333 120.833 -61 158.5s-106.667 56.5 -198 56.5h-258z" />
    <glyph glyph-name="afii10045" unicode="&#x42b;" horiz-adv-x="1679" 
d="M99 0l181.001 1466h191l-79 -633h259c75.333 0 140.166 -8.66699 194.499 -26s99 -41.166 134 -71.499s60.833 -66.333 77.5 -108s25 -87.5 25 -137.5c0 -74 -12 -141 -36 -201s-59.167 -111.5 -105.5 -154.5s-102.5 -76.167 -168.5 -99.5s-140.667 -35 -224 -35h-449z
M309.001 151.999h256.999c54.667 0 102.334 7.16699 143.001 21.5s74.5 35 101.5 62s47.167 59.833 60.5 98.5s20 82.667 20 132c0 68 -20.5 120.833 -61.5 158.5s-106.833 56.5 -197.5 56.5h-258zM1235 -0.000976562l180 1467h192l-179 -1467h-193z" />
    <glyph glyph-name="afii10046" unicode="&#x42c;" horiz-adv-x="1162" 
d="M99 0l181.001 1466h191l-79 -633h259c75.333 0 140.166 -8.66699 194.499 -26s99 -41.166 134 -71.499s60.833 -66.333 77.5 -108s25 -87.5 25 -137.5c0 -74 -12 -141 -36 -201s-59.167 -111.5 -105.5 -154.5s-102.5 -76.167 -168.5 -99.5s-140.667 -35 -224 -35h-449z
M309.001 151.999h256.999c54.667 0 102.334 7.16699 143.001 21.5s74.5 35 101.5 62s47.167 59.833 60.5 98.5s20 82.667 20 132c0 68 -20.5 120.833 -61.5 158.5s-106.833 56.5 -197.5 56.5h-258z" />
    <glyph glyph-name="afii10047" unicode="&#x42d;" horiz-adv-x="1286" 
d="M5 203l86 82c9.33301 8.66699 19.333 13 30 13c11.333 0 21.666 -5 30.999 -15c21.333 -23.333 42.833 -43.5 64.5 -60.5s45.334 -31 71.001 -42s53.834 -19.333 84.501 -25s65 -8.5 103 -8.5c62.667 0 123 11.833 181 35.5s110.5 58 157.5 103s87 100.333 120 166
s55.833 140.167 68.5 223.5h-678l17 145h674v11c0 74.667 -9.33301 142 -28 202s-45.167 111.167 -79.5 153.5s-75.833 75 -124.5 98s-103.667 34.5 -165 34.5c-57.333 0 -106.5 -6.66699 -147.5 -20s-76 -27.833 -105 -43.5s-52.833 -30.167 -71.5 -43.5
s-33.667 -20 -45 -20c-10 0 -18 2.16699 -24 6.5s-10.667 9.5 -14 15.5l-50 86c64.667 57.333 136.167 102.166 214.5 134.499s166.166 48.5 263.499 48.5c88.667 0 168.334 -15.833 239.001 -47.5s130.667 -76 180 -133s87 -125 113 -204s39 -165.5 39 -259.5
c0 -124.667 -18 -239.5 -54 -344.5s-86.667 -195.167 -152 -270.5s-143 -134.166 -233 -176.499s-189.333 -63.5 -298 -63.5c-56 0 -107 5 -153 15s-88.333 24.5 -127 43.5s-73.334 42 -104.001 69s-58.667 57.5 -84 91.5z" />
    <glyph glyph-name="afii10048" unicode="&#x42e;" horiz-adv-x="2019" 
d="M100 0l179.999 1467h192l-81 -659h314c16.667 100.667 45.5 192.334 86.5 275.001s92.167 153.5 153.5 212.5s131.333 105 210 138s163.334 49.5 254.001 49.5c84 0 159.167 -15.667 225.5 -47s122.5 -75.166 168.5 -131.499s81.167 -123.333 105.5 -201
s36.5 -162.5 36.5 -254.5c0 -126 -18 -242 -54 -348s-85.833 -197 -149.5 -273s-139.667 -135.333 -228 -178s-184.5 -64 -288.5 -64c-84 0 -159.167 15.667 -225.5 47s-122.5 75 -168.5 131s-81.167 122.667 -105.5 200s-36.5 162 -36.5 254v39h-316l-80 -657h-193z
M883.999 621.998c0 -73.333 8.16504 -139.172 24.498 -197.505s39.833 -108.166 70.5 -149.499s68.334 -73.166 113.001 -95.499s95.334 -33.5 152.001 -33.5c74.667 0 142.834 16.5 204.501 49.5s114.667 79.833 159 140.5s78.833 134 103.5 220s37 182.333 37 289
c0 72.667 -8.16699 138.167 -24.5 196.5s-39.833 108.333 -70.5 150s-68.167 73.834 -112.5 96.501s-94.833 34 -151.5 34c-74.667 0 -142.834 -16.5 -204.501 -49.5s-115 -80.167 -160 -141.5s-79.667 -135.166 -104 -221.499s-36.5 -182.166 -36.5 -287.499z" />
    <glyph glyph-name="afii10049" unicode="&#x42f;" horiz-adv-x="1267" 
d="M-77 0l411.001 537c23.333 31.333 47.333 57.333 72 78s51.667 37.667 81 51c-94 21.333 -163.833 61.166 -209.5 119.499s-68.5 128.833 -68.5 211.5c0 70 12.167 134 36.5 192s59.5 107.5 105.5 148.5s101.667 72.667 167 95s139.666 33.5 222.999 33.5h454l-180 -1466
h-192l78 634h-178c-16.667 0 -32.5 -1.5 -47.5 -4.5s-29.833 -8.5 -44.5 -16.5s-29.5 -19 -44.5 -33s-30.5 -32.333 -46.5 -55l-344 -456c-14.667 -21.333 -32.667 -38.166 -54 -50.499s-46 -18.5 -74 -18.5h-145zM398.001 1005c0 -68 20.5 -121.666 61.5 -160.999
s106.833 -59 197.5 -59h263l64 529h-261c-110 0 -191.667 -26.833 -245 -80.5s-80 -129.834 -80 -228.501z" />
    <glyph glyph-name="afii10065" unicode="&#x430;" horiz-adv-x="1046" 
d="M51 351c0 61.333 7.66797 121.167 23.001 179.5s37.166 113.5 65.499 165.5s62.333 99.667 102 143s83.834 80.833 132.501 112.5s101 56.334 157 74.001s115 26.5 177 26.5c44.667 0 87.834 -3.66699 129.501 -11s83.167 -19.666 124.5 -36.999l-124 -1004h-95
c-24 0 -40.167 6.16699 -48.5 18.5s-12.5 27.166 -12.5 44.499l18 210c-24.667 -44 -51 -83.667 -79 -119s-58 -65.333 -90 -90s-65.333 -43.834 -100 -57.501s-70.667 -20.5 -108 -20.5c-40.667 0 -77.834 8 -111.501 24s-62.334 39.5 -86.001 70.5s-42 69.167 -55 114.5
s-19.5 97.333 -19.5 156zM233.001 384.001c0 -164.667 52.6641 -246.998 157.997 -246.998c33.333 0 66.166 10.5 98.499 31.5s62.833 49.833 91.5 86.5s55.334 80.5 80.001 131.5s46.667 106.833 66 167.5l44 356c-15.333 3.33301 -30.166 5.66602 -44.499 6.99902
s-28.833 2 -43.5 2c-40.667 0 -80.167 -6.66699 -118.5 -20s-74.166 -32 -107.499 -56s-63.666 -52.5 -90.999 -85.5s-50.833 -69.333 -70.5 -109s-35 -81.834 -46 -126.501s-16.5 -90.667 -16.5 -138z" />
    <glyph glyph-name="afii10066" unicode="&#x431;" horiz-adv-x="1103" 
d="M106 494c0 55.333 2.83887 115.503 8.50586 180.503s16 131.167 31 198.5s36.333 133.166 64 197.499s63.5 123.5 107.5 177.5s97.667 100.333 161 139s139 65.667 227 81l381 70v-92c0 -20.667 -4.83301 -38.167 -14.5 -52.5s-24.5 -23.833 -44.5 -28.5l-282 -45
c-60.667 -9.33301 -113.834 -24.666 -159.501 -45.999s-85.667 -46.833 -120 -76.5s-63.333 -62.834 -87 -99.501s-43.334 -75 -59.001 -115s-28 -81.333 -37 -124s-15.833 -85.334 -20.5 -128.001c22.667 43.333 49.667 82.5 81 117.5s66.333 65.167 105 90.5
s80.5 44.833 125.5 58.5s92.167 20.5 141.5 20.5c44 0 84.5 -7.33301 121.5 -22s69.167 -37.167 96.5 -67.5s48.666 -68.666 63.999 -114.999s23 -101.166 23 -164.499c0 -54.667 -5.83301 -108.834 -17.5 -162.501s-28.5 -105.167 -50.5 -154.5s-48.833 -95 -80.5 -137
s-67.334 -78.5 -107.001 -109.5s-83.334 -55.333 -131.001 -73s-98.5 -26.5 -152.5 -26.5c-52.667 0 -101.667 9.16699 -147 27.5s-84.833 47.666 -118.5 87.999s-60.334 92.666 -80.001 156.999s-29.5 142.833 -29.5 235.5zM285.006 415.003
c0 -96 18.168 -168.834 54.501 -218.501s87.5 -74.5 153.5 -74.5c51.333 0 98.166 14.833 140.499 44.5s78.666 68.667 108.999 117s54 103.333 71 165s25.5 124.167 25.5 187.5c0 82.667 -16.167 145.167 -48.5 187.5s-78.166 63.5 -137.499 63.5
c-53.333 0 -102.5 -13.833 -147.5 -41.5s-83.833 -63.667 -116.5 -108s-58.167 -94.666 -76.5 -150.999s-27.5 -113.5 -27.5 -171.5z" />
    <glyph glyph-name="afii10067" unicode="&#x432;" horiz-adv-x="974" 
d="M56 388c0 56.667 6.16797 112.34 18.501 167.007s30 106.5 53 155.5s50.833 94.333 83.5 136s69.5 77.5 110.5 107.5s85.5 53.667 133.5 71s99 26 153 26c45.333 0 84.666 -5.83301 117.999 -17.5s60.833 -27.334 82.5 -47.001s37.667 -41.834 48 -66.501
s15.5 -50.334 15.5 -77.001c0 -27.333 -4.66699 -54 -14 -80s-24.5 -50.833 -45.5 -74.5s-47.833 -45.334 -80.5 -65.001s-72 -36.834 -118 -51.501c37.333 -1.33301 71.5 -6.83301 102.5 -16.5s57.333 -23.834 79 -42.501s38.334 -41 50.001 -67s17.5 -56.667 17.5 -92
c0 -47.333 -10.333 -93 -31 -137s-50 -83.333 -88 -118s-83.667 -62.334 -137 -83.001s-112 -31 -176 -31c-60.667 0 -114.334 9.83301 -161.001 29.5s-86 47.334 -118 83.001s-56 78.167 -72 127.5s-24 103.666 -24 162.999zM236.001 413.006
c-0.666992 -44 3.16797 -83.832 11.501 -119.499s21.333 -66.334 39 -92.001s40.167 -45.334 67.5 -59.001s59.666 -20.167 96.999 -19.5c34 0.666992 65.833 7.33398 95.5 20.001s55.5 29.334 77.5 50.001s39.333 44.667 52 72s19 56.333 19 87
c0 24.667 -4.16699 47.667 -12.5 69s-22.5 38.833 -42.5 52.5s-45.833 22.667 -77.5 27s-70.5 2.16602 -116.5 -6.50098l-208 -44c-0.666992 -6 -1.16699 -12.167 -1.5 -18.5s-0.5 -12.5 -0.5 -18.5zM253.003 563.007l180 40.001c60.667 11.333 109.667 25 147 41
s66 33 86 51s33.5 36.667 40.5 56s10.5 38.666 10.5 57.999c0 14.667 -2.33301 28.834 -7 42.501s-12 26 -22 37s-23.333 20 -40 27s-37.334 10.5 -62.001 10.5c-40 0 -77.667 -9.33301 -113 -28s-67.333 -44.334 -96 -77.001s-53.667 -71 -75 -115
s-37.666 -91.667 -48.999 -143z" />
    <glyph glyph-name="afii10068" unicode="&#x433;" horiz-adv-x="831" 
d="M23 226c0 36.667 7.99414 70.665 23.9941 101.998s36.833 60.666 62.5 87.999s55.334 53 89.001 77s68 47 103 69l103 63.5c33.667 20.333 63.334 40.666 89.001 60.999s46.667 40.833 63 61.5s24.5 42.334 24.5 65.001c0 26.667 -12 49.167 -36 67.5
s-58.667 27.5 -104 27.5c-30 0 -58 -3.83301 -84 -11.5s-49.333 -16.5 -70 -26.5s-38.667 -19.167 -54 -27.5s-27.666 -12.5 -36.999 -12.5c-5.33301 0 -11.166 1.5 -17.499 4.5s-11.833 9.5 -16.5 19.5l-39 74c22.667 19.333 47.5 36.5 74.5 51.5s55.167 27.833 84.5 38.5
s59.333 18.834 90 24.501s61 8.5 91 8.5c38.667 0 75.834 -4.66699 111.501 -14s67 -23.333 94 -42s48.333 -42 64 -70s23.5 -61 23.5 -99c0 -36 -7.83301 -69.167 -23.5 -99.5s-36.5 -58.666 -62.5 -84.999s-55.667 -51.166 -89 -74.499s-67.333 -45.5 -102 -66.5
l-101.5 -62c-33 -20.333 -62.5 -41 -88.5 -62s-46.833 -42.5 -62.5 -64.5s-23.5 -45.667 -23.5 -71c0 -31.333 14.833 -57.833 44.5 -79.5s70.167 -32.5 121.5 -32.5c34 0 65.333 4.66699 94 14s54.167 19.5 76.5 30.5s42 21.167 59 30.5s30.167 14 39.5 14
s17.166 -1.83301 23.499 -5.5s12.166 -9.16699 17.499 -16.5l41 -64c-53.333 -48 -113.166 -84.333 -179.499 -109s-133.166 -37 -200.499 -37c-49.333 0 -93.666 6.16699 -132.999 18.5s-72.5 29.333 -99.5 51s-47.833 47 -62.5 76s-22 60.5 -22 94.5z" />
    <glyph glyph-name="afii10069" unicode="&#x434;" horiz-adv-x="1077" 
d="M62 421c0 78 11.834 154.167 35.501 228.5s57.167 140.5 100.5 198.5s95.666 104.667 156.999 140s130 53 206 53c54.667 0 103 -9.66699 145 -29s79 -47.333 111 -84c-8 80 -24.667 147.167 -50 201.5s-59.666 98.166 -102.999 131.499s-95.833 56.833 -157.5 70.5
s-132.834 19.167 -213.501 16.5c-16 0 -26.5 3.5 -31.5 10.5s-6.5 17.5 -4.5 31.5l9 84c111.333 10.667 211.333 7.16699 300 -10.5s164.167 -53 226.5 -106s110 -124.333 143 -214s49.5 -201.167 49.5 -334.5c0 -132.667 -14.833 -250.167 -44.5 -352.5
s-69.834 -188.333 -120.501 -258s-109.5 -122.334 -176.5 -158.001s-138.167 -53.5 -213.5 -53.5c-54 0 -103.5 9.33301 -148.5 28s-83.667 46.334 -116 83.001s-57.666 81.834 -75.999 135.501s-27.5 116.167 -27.5 187.5zM244.001 419c0 -50 5 -93.001 15 -129.001
s24.333 -65.833 43 -89.5s40.834 -41.334 66.501 -53.001s53.834 -17.5 84.501 -17.5c47.333 0 92.166 13.333 134.499 40s79.833 67.834 112.5 123.501s58.5 126.334 77.5 212.001s28.5 187.5 28.5 305.5l2 -1c-23.333 29.333 -52.666 53 -87.999 71
s-75.666 27 -120.999 27c-54.667 0 -103.834 -13.5 -147.501 -40.5s-80.834 -63 -111.501 -108s-54.334 -97 -71.001 -156s-25 -120.5 -25 -184.5z" />
    <glyph glyph-name="afii10070" unicode="&#x435;" horiz-adv-x="986" 
d="M59 407c0 53.333 5.66602 106.327 16.999 158.994s27.833 102.834 49.5 150.501s48 92 79 133s66.5 76.333 106.5 106s84 53.167 132 70.5s99.667 26 155 26c52.667 0 98.167 -7.5 136.5 -22.5s69.666 -34.167 93.999 -57.5s42.5 -49 54.5 -77s18 -54.667 18 -80
c0 -45.333 -9.16699 -86.833 -27.5 -124.5s-52.166 -71.667 -101.499 -102s-117 -56.833 -203 -79.5s-196.333 -40.667 -331 -54c-0.666992 -7.33301 -1 -14.666 -1 -21.999v-22c0 -91.333 19.833 -161.166 59.5 -209.499s99.834 -72.5 180.501 -72.5
c32.667 0 61.834 3.5 87.501 10.5s48.667 15.333 69 25s38.166 20.5 53.499 32.5l42 33c12.667 10 24.334 18.333 35.001 25s21.667 10 33 10c12.667 0 24 -5.66699 34 -17l46 -57c-34.667 -36 -68.834 -66.833 -102.501 -92.5s-67.667 -47 -102 -64
s-70.5 -29.333 -108.5 -37s-79 -11.5 -123 -11.5c-59.333 0 -112.5 9.83301 -159.5 29.5s-86.833 47.834 -119.5 84.501s-58 80.834 -76 132.501s-27 109.834 -27 174.501zM254.999 574.994c105.333 12.667 189.668 27.499 253.001 44.499s112.166 35.167 146.499 54.5
s56.833 40.333 67.5 63s16 46.334 16 71.001c0 12 -2.66699 24.667 -8 38s-14 25.5 -26 36.5s-27.5 20.167 -46.5 27.5s-42.167 11 -69.5 11c-43.333 0 -83 -9 -119 -27s-68 -42.5 -96 -73.5s-52 -67.5 -72 -109.5s-35.333 -87.333 -46 -136z" />
    <glyph glyph-name="afii10072" unicode="&#x436;" horiz-adv-x="1783" 
d="M-11 53l43.998 76c6.66699 11.333 13.167 19 19.5 23s13.5 6 21.5 6c5.33301 0.666992 11.166 -0.166016 17.499 -2.49902l22 -8.5c8.33301 -3.33301 17.5 -6.33301 27.5 -9s21 -4 33 -4c32 0 63.333 13 94 39s58.167 62.5 82.5 109.5s43.833 103 58.5 168
s22 136.5 22 214.5c0 45.333 -2.5 83.166 -7.5 113.499s-12.667 55.333 -23 75s-23 33.667 -38 42s-32.5 12.5 -52.5 12.5c-18 0 -33.667 -2.66699 -47 -8s-25.5 -11.5 -36.5 -18.5l-29 -18.5c-8.33301 -5.33301 -15.5 -8.33301 -21.5 -9c-6.66699 0 -13.334 1 -20.001 3
s-12 6.33301 -16 13l-40 78c20 19.333 40.833 35.666 62.5 48.999s43.334 24 65.001 32s43 13.833 64 17.5s40.5 5.5 58.5 5.5c72.667 0 130.167 -26.167 172.5 -78.5s63.5 -132.5 63.5 -240.5c0 -69.333 -6.5 -135.5 -19.5 -198.5s-31.5 -122.167 -55.5 -177.5
c32 37.333 64.333 79.5 97 126.5s64.334 96.833 95.001 149.5s58.5 107.667 83.5 165s45.833 115.333 62.5 174l7 66l154 -1l-65 -627c29.333 56.667 61.833 111.667 97.5 165s72.5 103.833 110.5 151.5s77 91.5 117 131.5s79.167 74.333 117.5 103s74.833 51 109.5 67
s66.334 24 95.001 24c30.667 0 60.5 -5.33301 89.5 -16s57.833 -28 86.5 -52l-43 -76c-6.66699 -10.667 -13.167 -18 -19.5 -22s-13.5 -6 -21.5 -6c-5.33301 0 -11.166 1.16699 -17.499 3.5l-22 8c-8.33301 3 -17.333 5.66699 -27 8s-20.834 3.5 -33.501 3.5
c-32 0 -63.333 -13 -94 -39s-58.167 -62.333 -82.5 -109s-43.833 -102.5 -58.5 -167.5s-22 -136.167 -22 -213.5c0 -45.333 2.5 -83.5 7.5 -114.5s12.667 -56.167 23 -75.5s23 -33.333 38 -42s32.5 -13 52.5 -13c17.333 0 33 2.66699 47 8s26.333 11.5 37 18.5l28.5 19
c8.33301 5.66699 15.5 8.5 21.5 8.5c6.66699 0 13.334 -0.833008 20.001 -2.5s12 -6.16699 16 -13.5l40 -78c-20 -19.333 -40.667 -35.333 -62 -48s-43 -23.167 -65 -31.5s-43.333 -14.166 -64 -17.499s-40.334 -5 -59.001 -5c-72.667 0 -130.167 25.833 -172.5 77.5
s-63.5 131.5 -63.5 239.5c0 69.333 6.33301 135.5 19 198.5s31 122.167 55 177.5c-32 -36.667 -64.167 -78.167 -96.5 -124.5s-63.333 -95.5 -93 -147.5s-57.167 -106.5 -82.5 -163.5s-46.666 -114.5 -63.999 -172.5l-7 -73h-153l64 633
c-29.333 -56.667 -61.666 -112 -96.999 -166s-72.333 -104.833 -111 -152.5s-77.834 -91.5 -117.501 -131.5s-78.667 -74.5 -117 -103.5s-75 -51.5 -110 -67.5s-66.833 -24 -95.5 -24c-30.667 0 -60.5 5 -89.5 15s-58.167 27 -87.5 51z" />
    <glyph glyph-name="afii10073" unicode="&#x437;" horiz-adv-x="886" 
d="M-15 114l45.9961 74.0049c3.33301 6 8.33301 11.667 15 17s14 8 22 8c12 0 24.833 -4.83301 38.5 -14.5s30.167 -20 49.5 -31s43.166 -21.333 71.499 -31s63.833 -14.5 106.5 -14.5c42 0 79.667 5.83301 113 17.5s61.333 27.5 84 47.5s40 43.5 52 70.5s18 56.167 18 87.5
c0 52 -17.5 90.333 -52.5 115s-84.833 37 -149.5 37c-20.667 0 -43.667 -1.66699 -69 -5l-74 -10c0 23.333 0.833008 46.166 2.5 68.499s6.83398 44.5 15.501 66.5c19.333 -2 38 -3.83301 56 -5.5s36.667 -2.5 56 -2.5c42 -0.666992 78.833 4 110.5 14
s57.834 23.167 78.501 39.5s36.167 35.166 46.5 56.499s15.5 43 15.5 65c0 18 -3.16699 34.833 -9.5 50.5s-16.666 29.5 -30.999 41.5s-32.666 21.5 -54.999 28.5s-49.833 10.5 -82.5 10.5c-43.333 0 -79.833 -4.5 -109.5 -13.5s-54.5 -19.167 -74.5 -30.5
s-36.5 -22 -49.5 -32s-23.833 -15.333 -32.5 -16c-7.33301 -0.666992 -14 0.166016 -20 2.49902s-12.333 8.83301 -19 19.5l-38 62c19.333 20.667 42.5 39.834 69.5 57.501s56.833 33 89.5 46s67.334 23.333 104.001 31s74.667 11.5 114 11.5
c54 0 100.167 -6.66699 138.5 -20s70.166 -31 95.499 -53s44 -47.167 56 -75.5s18 -57.5 18 -87.5c0 -24.667 -4.16699 -49.834 -12.5 -75.501s-21.5 -49.834 -39.5 -72.501s-41.5 -43.334 -70.5 -62.001s-64.833 -33.334 -107.5 -44.001c63.333 -11.333 112 -37 146 -77
s51 -88.333 51 -145c0 -44 -9.33301 -87.167 -28 -129.5s-46.667 -80.166 -84 -113.499s-83.666 -60.333 -138.999 -81s-119 -31 -191 -31c-68 0 -130.667 10.833 -188 32.5s-108.333 53.5 -153 95.5z" />
    <glyph glyph-name="afii10074" unicode="&#x438;" horiz-adv-x="1084" 
d="M96.5 211c-7.66699 48.667 -7.49805 104.334 0.501953 167.001l78 659h181l-77 -659c-9.33301 -81.333 -4.33301 -141.833 15 -181.5s55.666 -59.5 108.999 -59.5c31.333 0 63.666 8.5 96.999 25.5s65.5 41.333 96.5 73s59.833 69.667 86.5 114s50 93.833 70 148.5
l64 539h181l-125 -1037h-90c-44.667 0 -66.667 22 -66 66l15 188c-55.333 -88 -117.166 -154.667 -185.499 -200s-138.5 -68 -210.5 -68c-44 0 -82.667 8.66699 -116 26s-60.333 42.666 -81 75.999s-34.834 74.333 -42.501 123z" />
    <glyph glyph-name="afii10075" unicode="&#x439;" horiz-adv-x="1084" 
d="M96.5 211c-7.66699 48.667 -7.49805 104.334 0.501953 167.001l78 659h181l-77 -659c-9.33301 -81.333 -4.33301 -141.833 15 -181.5s55.666 -59.5 108.999 -59.5c31.333 0 63.666 8.5 96.999 25.5s65.5 41.333 96.5 73s59.833 69.667 86.5 114s50 93.833 70 148.5
l64 539h181l-125 -1037h-90c-44.667 0 -66.667 22 -66 66l15 188c-55.333 -88 -117.166 -154.667 -185.499 -200s-138.5 -68 -210.5 -68c-44 0 -82.667 8.66699 -116 26s-60.333 42.666 -81 75.999s-34.834 74.333 -42.501 123zM373.002 1412
c1.33301 13.333 5.83301 25.832 13.5 37.499s17.167 17.5 28.5 17.5h99c-7.33301 -64.667 -2.33301 -110.667 15 -138s52 -41 104 -41c25.333 0 47.166 3.33301 65.499 10s33.833 17.167 46.5 31.5s22.834 32.666 30.501 54.999s13.167 49.833 16.5 82.5h98
c12 0 20.5 -5.66699 25.5 -17s6.83301 -24 5.5 -38c-4 -34 -13.667 -64.667 -29 -92s-36 -50.666 -62 -69.999s-56.667 -34.166 -92 -44.499s-74.333 -15.5 -117 -15.5c-86 0 -150.667 20 -194 60s-61.333 94 -54 162z" />
    <glyph glyph-name="afii10076" unicode="&#x43a;" horiz-adv-x="986" 
d="M59 0l126.002 1037h175l-56 -458l89 18c13.333 2.66699 25.166 5.66699 35.499 9s19.833 7.66602 28.5 12.999s16.834 11.666 24.501 18.999s15.167 16.333 22.5 27l155 203l56.5 77.5c16.333 21.667 33.166 39.334 50.499 53.001s36.166 23.667 56.499 30
s45.166 9.5 74.499 9.5h77l-19 -94c-2.66699 -15.333 -8.16699 -25.166 -16.5 -29.499s-18.5 -8.16602 -30.5 -11.499s-25 -8.33301 -39 -15s-28.333 -19.667 -43 -39l-152 -201c-10 -13.333 -19.833 -25.5 -29.5 -36.5s-19.667 -20.5 -30 -28.5s-21.5 -14.833 -33.5 -20.5
s-25.333 -10.167 -40 -13.5c38.667 -7.33301 70.167 -21.666 94.5 -42.999s44.5 -51.333 60.5 -90l191 -416h-104c-31.333 -0 -55 5.33301 -71 16s-28.667 25.667 -38 45l-152 326c-11.333 26.667 -27.666 48.667 -48.999 66s-46.333 26 -75 26l-108 -20l-56 -459h-175z" />
    <glyph glyph-name="afii10077" unicode="&#x43b;" horiz-adv-x="1108" 
d="M-27 22l13.0049 102.995h33c32 0 59.5 7.5 82.5 22.5s44 39.333 63 73s36.833 77.834 53.5 132.501s35.334 121.667 56.001 201c22 86.667 47.667 160.5 77 221.5s65.666 110.833 108.999 149.5s95.5 66.834 156.5 84.501s133.5 26.5 217.5 26.5h190l-127 -1036h-175
l109 898h-33c-50.667 0 -94.334 -6 -131.001 -18s-68.667 -31.667 -96 -59s-50.833 -63.666 -70.5 -108.999s-37.834 -101 -54.501 -167c-24.667 -106 -50.334 -194.667 -77.001 -266s-56 -128.666 -88 -171.999s-66.667 -74.166 -104 -92.499s-79 -27.5 -125 -27.5
c-30.667 0 -51.834 2.5 -63.501 7.5s-16.834 14.167 -15.501 27.5z" />
    <glyph glyph-name="afii10078" unicode="&#x43c;" horiz-adv-x="1426" 
d="M2 0l75.4971 247.502c24.333 83 47.166 167.5 68.499 253.5s41.666 173.667 60.999 263s37 181.333 53 276h142c12 0 24.333 -2.5 37 -7.5s21.334 -15.833 26.001 -32.5l210 -633c4.66699 -16.667 8.83398 -32.334 12.501 -47.001s6.83398 -28.667 9.50098 -42
c7.33301 20.667 18 42 32 64l388 658c10 16 21.333 26.667 34 32s25.334 8 38.001 8h152l-127 -1040h-164l90 721c1.33301 13.333 3.5 28.333 6.5 45s6.5 32.667 10.5 48l-445 -752c-6.66699 -9.33301 -14.667 -17 -24 -23s-20 -9 -32 -9h-25c-10.667 0 -20 3 -28 9
s-14 13.667 -18 23l-229 747l-8 -55.5c-2.66699 -19 -5.66699 -35.833 -9 -50.5l-30.5 -162c-10.333 -52.667 -21.5 -105.5 -33.5 -158.5s-25.167 -106.333 -39.5 -160s-31.166 -108.834 -50.499 -165.501c-6 -18 -15.167 -32 -27.5 -42s-27.833 -15 -46.5 -15h-109z" />
    <glyph glyph-name="afii10079" unicode="&#x43d;" horiz-adv-x="1081" 
d="M60 0l125 1037h182l-52 -426h448l51 426h181l-125 -1037h-181l57 476h-447l-57 -476h-182z" />
    <glyph glyph-name="afii10080" unicode="&#x43e;" horiz-adv-x="1062" 
d="M60 417c0 87.333 13.666 169.499 40.999 246.499s65 144.333 113 202s104.167 103.334 168.5 137.001s133.833 50.5 208.5 50.5c56.667 0 108.5 -9.83301 155.5 -29.5s87.667 -47.834 122 -84.501s61 -81.667 80 -135s28.5 -113.666 28.5 -180.999
c0 -86.667 -13.667 -168.667 -41 -246s-64.666 -145 -111.999 -203s-103.5 -103.833 -168.5 -137.5s-134.833 -50.5 -209.5 -50.5c-56.667 0 -108.5 9.66699 -155.5 29s-87.5 47.5 -121.5 84.5s-60.667 82 -80 135s-29 113.833 -29 182.5zM243.999 417.999
c0 -95.333 18.6689 -167.497 56.002 -216.497s92 -73.5 164 -73.5c50 0 95.167 13.667 135.5 41s75.166 63.666 104.499 108.999s51.833 97.666 67.5 156.999s23.5 121.666 23.5 186.999c0 95.333 -19 167 -57 215s-92.667 72 -164 72c-50.667 0 -96.167 -13.5 -136.5 -40.5
s-74.833 -63 -103.5 -108s-50.834 -97.167 -66.501 -156.5s-23.5 -121.333 -23.5 -186z" />
    <glyph glyph-name="afii10081" unicode="&#x43f;" horiz-adv-x="1085" 
d="M60 0l125 1038h90c40.667 0 61.334 -20.333 62.001 -61l-15 -202c55.333 91.333 117.666 160.5 186.999 207.5s141 70.5 215 70.5c44 0 82.5 -8.83301 115.5 -26.5s59.833 -43.167 80.5 -76.5s34.834 -74.333 42.501 -123s7.83398 -104.334 0.500977 -167.001l-78 -660
h-182l78 660c9.33301 82 4.16602 142.667 -15.501 182s-56.167 59 -109.5 59c-32.667 0 -65.834 -8.83301 -99.501 -26.5s-66.167 -42.834 -97.5 -75.501s-60.5 -72.167 -87.5 -118.5s-50.167 -97.833 -69.5 -154.5l-59 -526h-183z" />
    <glyph glyph-name="afii10082" unicode="&#x440;" horiz-adv-x="1082" 
d="M17 -351l168.996 1389h90c40.667 0 61.334 -20.333 62.001 -61l-17 -221c26 45.333 54.333 86.166 85 122.499s62.834 67.5 96.501 93.5s69 46 106 60s74.5 21 112.5 21c88.667 0 157.334 -32.167 206.001 -96.5s73 -158.166 73 -281.499c0 -56 -5.66699 -112 -17 -168
s-27.833 -109.5 -49.5 -160.5s-47.667 -98.5 -78 -142.5s-64.166 -82.167 -101.499 -114.5s-77.833 -57.666 -121.5 -75.999s-89.167 -27.5 -136.5 -27.5c-51.333 0 -98 10 -140 30s-77.333 48.333 -106 85l-55 -452h-178zM264.996 226.999
c26 -36 57.168 -61.665 93.501 -76.998s73.166 -23 110.499 -23c35.333 0 68.666 7.5 99.999 22.5s60 35.333 86 61s49.333 55.667 70 90s38 71.166 52 110.499s24.667 80 32 122s11 83.333 11 124c0 81.333 -14.667 143.166 -44 185.499s-70.666 63.5 -123.999 63.5
c-32.667 0 -65.667 -10 -99 -30s-65.5 -48.167 -96.5 -84.5s-60.167 -79.333 -87.5 -129s-51 -104.167 -71 -163.5z" />
    <glyph glyph-name="afii10083" unicode="&#x441;" horiz-adv-x="930" 
d="M59 410c0 84 13.1631 164.499 39.4961 241.499s63.166 145.167 110.499 204.5s103.5 106.833 168.5 142.5s136.167 53.5 213.5 53.5c68.667 0 126.334 -12.167 173.001 -36.5s87.334 -59.833 122.001 -106.5l-58 -68c-4.66699 -5.33301 -9.83398 -9.83301 -15.501 -13.5
s-12.167 -5.5 -19.5 -5.5c-9.33301 0 -18.666 4.33301 -27.999 13s-21.5 18.334 -36.5 29.001s-33.667 20.167 -56 28.5s-50.833 12.5 -85.5 12.5c-47.333 0 -91.833 -12.833 -133.5 -38.5s-78.167 -60.667 -109.5 -105s-56 -96.833 -74 -157.5s-27 -125.667 -27 -195
c0 -42 4.66699 -80.333 14 -115s23.666 -64.167 42.999 -88.5s42.833 -43.166 70.5 -56.499s59.834 -20 96.501 -20c46 0 84.5 6.83301 115.5 20.5s57 28.5 78 44.5s38.833 30.833 53.5 44.5s29.334 20.5 44.001 20.5c12.667 0 24.334 -5.66699 35.001 -17l45 -56
c-35.333 -38.667 -69.166 -71 -101.499 -97s-64.5 -46.667 -96.5 -62s-65.333 -26 -100 -32s-71.667 -9 -111 -9c-60 0 -113 10.167 -159 30.5s-84.5 49.166 -115.5 86.499s-54.667 82 -71 134s-24.5 109.667 -24.5 173z" />
    <glyph glyph-name="afii10084" unicode="&#x442;" horiz-adv-x="1611" 
d="M60 0l125.001 1038h90c41.333 0 62.333 -20.333 63 -61l-14 -184c51.333 85.333 107.5 150 168.5 194s124.833 66 191.5 66c70 0 121.833 -24.167 155.5 -72.5s50.5 -117.166 50.5 -206.499c51.333 94.667 109.166 164.834 173.499 210.501s132.5 68.5 204.5 68.5
c88.667 0 151.334 -34.167 188.001 -102.5s47.667 -165.166 33 -290.499l-78 -660h-180l79 660c9.33301 81.333 6.66602 141.833 -8.00098 181.5s-47.667 59.5 -99 59.5c-29.333 0 -58.5 -7.33301 -87.5 -22s-57.167 -36.167 -84.5 -64.5s-52.666 -63.5 -75.999 -105.5
s-44.333 -90.333 -63 -145v-1l-67 -563h-180l78 660c10 81.333 8.5 141.833 -4.5 181.5s-44.833 59.5 -95.5 59.5c-32.667 0 -64.334 -8.16699 -95.001 -24.5s-59.5 -40 -86.5 -71s-52 -68.833 -75 -113.5s-44.167 -95 -63.5 -151l-64 -541h-179z" />
    <glyph glyph-name="afii10085" unicode="&#x443;" horiz-adv-x="982" 
d="M74 1037l150.003 -0.000976562c15.333 0 26.333 -3.5 33 -10.5s11.667 -16.167 15 -27.5l167 -653c3.33301 -14.667 6.16602 -29 8.49902 -43s4.16602 -28.333 5.49902 -43c5.33301 14.667 11.166 29.334 17.499 44.001s12.833 29 19.5 43l328 654
c5.33301 10.667 13 19.334 23 26.001s20 10 30 10h145l-701 -1346c-7.33301 -14.667 -16 -25.334 -26 -32.001s-22.333 -10 -37 -10h-134l225 412z" />
    <glyph glyph-name="afii10086" unicode="&#x444;" horiz-adv-x="1491" 
d="M59 368c0 58 5.16797 115.169 15.501 171.502s25.166 109.666 44.499 159.999s42.666 97.166 69.999 140.499s58.5 80.666 93.5 111.999s73.167 56 114.5 74s85 27 131 27c36.667 0 69.5 -7 98.5 -21s53.167 -31 72.5 -51l54 442c3.33301 24 13.666 44.167 30.999 60.5
s40.333 24.5 69 24.5h89l-66 -553c32 31.333 68 55.5 108 72.5s85 25.5 135 25.5c43.333 0 82.666 -7.33301 117.999 -22s65.666 -37.667 90.999 -69s44.833 -71 58.5 -119s20.5 -105.667 20.5 -173c0 -58 -5.16699 -115.167 -15.5 -171.5s-25.166 -109.833 -44.499 -160.5
s-42.666 -97.5 -69.999 -140.5s-58.333 -80.167 -93 -111.5s-72.667 -55.833 -114 -73.5s-85.333 -26.5 -132 -26.5c-36.667 0 -69.334 6.83301 -98.001 20.5s-53 30.167 -73 49.5l-40 -329c-3.33301 -24 -13.666 -44 -30.999 -60s-40.333 -24 -69 -24h-88l53 441
c-32.667 -32 -69.167 -56.333 -109.5 -73s-85.5 -25 -135.5 -25c-43.333 0 -82.666 7.33301 -117.999 22s-65.666 37.334 -90.999 68.001s-44.833 70 -58.5 118s-20.5 106 -20.5 174zM240.001 383.002c0 -46 3.83203 -84.8291 11.499 -116.496s19 -57.5 34 -77.5
s33.167 -34.5 54.5 -43.5s45.333 -13.5 72 -13.5c18.667 0 37.334 2.16699 56.001 6.5s36.667 10.666 54 18.999s33.5 18.666 48.5 30.999s27.833 26.166 38.5 41.499l77 642c-18.667 13.333 -38.667 23.166 -60 29.499s-43.333 9.5 -66 9.5
c-51.333 0 -96.833 -15.5 -136.5 -46.5s-73.167 -71.5 -100.5 -121.5s-48 -106.5 -62 -169.5s-21 -126.5 -21 -190.5zM780 165.006c18 -13.333 37.832 -23.167 59.499 -29.5s43.834 -9.5 66.501 -9.5c51.333 0 96.833 15.5 136.5 46.5s73.167 71.667 100.5 122
s48 107 62 170s21 126.167 21 189.5c0 46 -4 85 -12 117s-19.333 58 -34 78s-32.5 34.5 -53.5 43.5s-44.833 13.5 -71.5 13.5c-37.333 0 -74 -8.5 -110 -25.5s-65 -40.833 -87 -71.5z" />
    <glyph glyph-name="afii10087" unicode="&#x445;" horiz-adv-x="950" 
d="M-65 0l419.001 558l-249 479h163c13.333 0 23.166 -1.83301 29.499 -5.5s11.5 -10.167 15.5 -19.5l174 -358c7.33301 15.333 16 30 26 44l235 311c10.667 19.333 25 28.666 43 27.999h163l-370 -481l276 -556h-162c-13.333 0 -24 3.33301 -32 10
s-14.333 15.334 -19 26.001l-194 415c-6.66699 -15.333 -14 -28.333 -22 -39l-283 -377c-7.33301 -9.33301 -15 -17.5 -23 -24.5s-18.333 -10.5 -31 -10.5h-159z" />
    <glyph glyph-name="afii10088" unicode="&#x446;" horiz-adv-x="1150" 
d="M96.5 211c-7.66699 48.667 -7.49805 104.333 0.501953 167l78 659h181l-77 -659c-9.33301 -81.333 -4.33301 -141.833 15 -181.5s55.666 -59.5 108.999 -59.5c31.333 0 63.666 8.5 96.999 25.5s65.5 41.333 96.5 73s59.833 69.667 86.5 114s50 93.833 70 148.5l64 539
h181l-108 -903h174l-106 -437c-2 -17.333 -8.16699 -30.666 -18.5 -39.999s-23.5 -14 -39.5 -14h-107l95 357h-105c-44.667 0 -66.667 22 -66 66l15 188c-55.333 -88 -117.166 -154.667 -185.499 -200s-138.5 -68 -210.5 -68c-44 0 -82.667 8.66699 -116 26
s-60.333 42.666 -81 75.999s-34.834 74.333 -42.501 123z" />
    <glyph glyph-name="afii10089" unicode="&#x447;" horiz-adv-x="980" 
d="M81 519c-6 41.333 -6.00195 86.668 -0.00195312 136.001l46 382h182l-46 -382c-3.33301 -26.667 -3.66602 -51.334 -0.999023 -74.001s9 -42.334 19 -59.001s23.667 -29.834 41 -39.501s39 -14.5 65 -14.5c30 0 59.333 5.33301 88 16s55.334 25.834 80.001 45.501
s47 43.334 67 71.001s36.667 58.5 50 92.5l42 344h181l-124 -1037h-182l58 488c-43.333 -53.333 -93 -95.333 -149 -126s-118.333 -46 -187 -46c-45.333 0 -84 8.5 -116 25.5s-57.5 40.5 -76.5 70.5s-31.5 65.667 -37.5 107z" />
    <glyph glyph-name="afii10090" unicode="&#x448;" horiz-adv-x="1611" 
d="M97 378l77.999 659.001h180l-79 -659c-9.33301 -81.333 -6.66602 -141.833 8.00098 -181.5s47.667 -59.5 99 -59.5c29.333 0 58.5 7.33301 87.5 22s57.167 36.334 84.5 65.001s52.833 64.167 76.5 106.5s44.5 91.166 62.5 146.499l67 560h180l-78 -659
c-5.33301 -40 -7.83301 -75.333 -7.5 -106s4.33301 -55.834 12 -75.501s19.167 -34.5 34.5 -44.5s36 -15 62 -15c32.667 0 64 8.33301 94 25s58.667 40.667 86 72s52.5 69.333 75.5 114s44.167 95 63.5 151l65 538h178l-125 -1037h-90c-42 0 -63 20.667 -63 62l14 185
c-50.667 -86 -106.667 -151 -168 -195s-125.333 -66 -192 -66c-70 0 -122 23.833 -156 71.5s-50.667 116.5 -50 206.5c-51.333 -94.667 -109.333 -164.667 -174 -210s-132.667 -68 -204 -68c-88.667 0 -151.5 34 -188.5 102s-47.833 164.667 -32.5 290z" />
    <glyph glyph-name="afii10091" unicode="&#x449;" horiz-adv-x="1674" 
d="M97 378l77.999 659h180l-79 -659c-9.33301 -81.333 -6.66602 -141.833 8.00098 -181.5s47.667 -59.5 99 -59.5c29.333 0 58.5 7.33301 87.5 22s57.167 36.334 84.5 65.001s52.833 64.167 76.5 106.5s44.5 91.166 62.5 146.499l67 560h180l-78 -659
c-5.33301 -40 -7.83301 -75.333 -7.5 -106s4.33301 -55.834 12 -75.501s19.167 -34.5 34.5 -44.5s36 -15 62 -15c32.667 0 64 8.33301 94 25s58.667 40.667 86 72s52.5 69.333 75.5 114s44.167 95 63.5 151l65 538h178l-109 -903h167l-105 -437
c-2 -17.333 -8.5 -30.666 -19.5 -39.999s-24.167 -14 -39.5 -14h-108l95 357h-96c-42 0 -63 20.667 -63 62l14 185c-50.667 -86 -106.667 -151 -168 -195s-125.333 -66 -192 -66c-70 0 -122 23.833 -156 71.5s-50.667 116.5 -50 206.5
c-51.333 -94.667 -109.333 -164.667 -174 -210s-132.667 -68 -204 -68c-88.667 0 -151.5 34 -188.5 102s-47.833 164.667 -32.5 290z" />
    <glyph glyph-name="afii10092" unicode="&#x44a;" horiz-adv-x="1059" 
d="M57 901l8.99414 65.999c3.33301 20.667 12 37.5 26 50.5s33.333 19.5 58 19.5h450l-14 -94c-49.333 -68 -87.166 -136.333 -113.499 -205s-44.833 -139 -55.5 -211c22 28 46.333 53.333 73 76s54.5 41.834 83.5 57.501s58.833 27.667 89.5 36s60.334 12.5 89.001 12.5
c34.667 0 66.334 -6.16699 95.001 -18.5s53 -29.666 73 -51.999s35.5 -49.166 46.5 -80.499s16.5 -66 16.5 -104c0 -36 -5 -72.667 -15 -110s-24.333 -73.5 -43 -108.5s-41.667 -67.667 -69 -98s-58.166 -56.666 -92.499 -78.999s-72.166 -40 -113.499 -53
s-85.666 -19.5 -132.999 -19.5c-45.333 0 -86.5 6.66699 -123.5 20s-68.833 34 -95.5 62s-47.167 63.667 -61.5 107s-21.5 94.666 -21.5 153.999c0 44.667 3.16699 90 9.5 136s17.333 92.667 33 140s35.667 95.666 60 144.999s54.833 99.666 91.5 150.999h-352z
M390.994 274.999c0 -53.333 14.1641 -93.333 42.4971 -120s64.5 -40 108.5 -40c36.667 0 71.334 9 104.001 27s61.334 41.667 86.001 71s44.334 63 59.001 101s22 76.667 22 116c0 20 -2 39 -6 57s-11 34 -21 48s-23.167 25.167 -39.5 33.5s-36.5 12.5 -60.5 12.5
c-34 0 -68.5 -8.5 -103.5 -25.5s-66.667 -39.667 -95 -68s-51.5 -60.833 -69.5 -97.5s-27 -75 -27 -115z" />
    <glyph glyph-name="afii10093" unicode="&#x44b;" horiz-adv-x="1324" 
d="M84 247l94.9971 789.999h177l-62 -512c21.333 27.333 44.666 52.5 69.999 75.5s51.833 42.333 79.5 58s55.834 28 84.501 37s56.667 13.5 84 13.5c36.667 0 69.834 -6.16699 99.501 -18.5s54.834 -29.5 75.501 -51.5s36.5 -48.667 47.5 -80s16.5 -65.666 16.5 -102.999
c0 -62.667 -13.5 -122.5 -40.5 -179.5s-63.5 -107 -109.5 -150s-99.333 -77.167 -160 -102.5s-124.667 -38 -192 -38c-48.667 0 -90.667 6.16699 -126 18.5s-64.166 29.833 -86.499 52.5s-37.833 50 -46.5 82s-10.667 68 -6 108zM258.997 232.999
c-4 -33.333 6.5 -61.334 31.5 -84.001s62.5 -34 112.5 -34c36.667 0 72 9.33301 106 28s63.667 43 89 73s45.5 63.833 60.5 101.5s22.5 75.167 22.5 112.5c0 20 -2 39 -6 57s-11 34 -21 48s-23.167 25.167 -39.5 33.5s-36.833 12.5 -61.5 12.5
c-32 0 -64.167 -8.83301 -96.5 -26.5s-62 -40.667 -89 -69s-50 -60.166 -69 -95.499s-30.5 -71 -34.5 -107zM931.997 -0.00195312l124 1037h182l-125 -1037h-181z" />
    <glyph glyph-name="afii10094" unicode="&#x44c;" horiz-adv-x="926" 
d="M84 247l94.9971 789.999h177l-62 -512c21.333 27.333 44.666 52.5 69.999 75.5s51.833 42.333 79.5 58s55.834 28 84.501 37s56.667 13.5 84 13.5c36.667 0 69.834 -6.16699 99.501 -18.5s54.834 -29.5 75.501 -51.5s36.5 -48.667 47.5 -80s16.5 -65.666 16.5 -102.999
c0 -62.667 -13.5 -122.5 -40.5 -179.5s-63.5 -107 -109.5 -150s-99.333 -77.167 -160 -102.5s-124.667 -38 -192 -38c-48.667 0 -90.667 6.16699 -126 18.5s-64.166 29.833 -86.499 52.5s-37.833 50 -46.5 82s-10.667 68 -6 108zM258.997 232.999
c-4 -33.333 6.5 -61.334 31.5 -84.001s62.5 -34 112.5 -34c36.667 0 72 9.33301 106 28s63.667 43 89 73s45.5 63.833 60.5 101.5s22.5 75.167 22.5 112.5c0 20 -2 39 -6 57s-11 34 -21 48s-23.167 25.167 -39.5 33.5s-36.833 12.5 -61.5 12.5
c-32 0 -64.167 -8.83301 -96.5 -26.5s-62 -40.667 -89 -69s-50 -60.166 -69 -95.499s-30.5 -71 -34.5 -107z" />
    <glyph glyph-name="afii10095" unicode="&#x44d;" horiz-adv-x="935" 
d="M10 129l52 61.9961c4 5.33301 9.16699 9.83301 15.5 13.5s12.833 5.5 19.5 5.5c8.66699 0 18.5 -4.33301 29.5 -13s25 -18.167 42 -28.5s37.333 -19.833 61 -28.5s52.834 -13 87.501 -13c46 0 88.167 8.33301 126.5 25s72 40.167 101 70.5s53.333 66.333 73 108
s33.5 87.5 41.5 137.5h-455l14 123h452c-0.666992 50 -6.5 94.833 -17.5 134.5s-27.5 73.334 -49.5 101.001s-49 49 -81 64s-69.333 22.5 -112 22.5c-34.667 0 -65 -4.16699 -91 -12.5s-48.667 -17.666 -68 -27.999l-50 -27.5c-14 -8 -26.333 -12 -37 -12
c-13.333 0 -23 2.5 -29 7.5s-10.667 10.5 -14 16.5l-31 70c27.333 20.667 54.333 38.834 81 54.501s54.167 28.5 82.5 38.5s58 17.833 89 23.5s63.833 8.5 98.5 8.5c66 0 124.5 -11.167 175.5 -33.5s93.5 -53.666 127.5 -93.999s59.667 -88.833 77 -145.5s26 -119 26 -187
c0 -84 -13 -162.833 -39 -236.5s-62.333 -138 -109 -193s-102.5 -98.167 -167.5 -129.5s-136.833 -47 -215.5 -47c-68 0 -127.333 12 -178 36s-93.334 59.667 -128.001 107z" />
    <glyph glyph-name="afii10096" unicode="&#x44e;" horiz-adv-x="1434" 
d="M58 0l128.003 1036h176l-55 -449h217c13.333 66.667 34.666 128.5 63.999 185.5s64.5 106.167 105.5 147.5s87 73.833 138 97.5s105.167 35.5 162.5 35.5c51.333 0 98.666 -9.66699 141.999 -29s80.833 -47 112.5 -83s56.5 -80.333 74.5 -133s27 -112.334 27 -179.001
c0 -87.333 -12.833 -170 -38.5 -248s-61 -146.333 -106 -205s-98.167 -105 -159.5 -139s-127 -51 -197 -51c-51.333 0 -98 9.5 -140 28.5s-77.833 46.667 -107.5 83s-52.834 80.833 -69.501 133.5s-25 112.667 -25 180v23.5c0 7.66699 0.333008 15.834 1 24.501h-217
l-57 -459h-176zM679.003 410c0.666992 -92 16.998 -162 48.998 -210s79 -72 141 -72c45.333 0 86.333 13.833 123 41.5s67.834 64.667 93.501 111s45.5 99.5 59.5 159.5s21 123 21 189c0 93.333 -16.167 163.333 -48.5 210s-79.5 70 -141.5 70
c-45.333 0 -86.166 -13.667 -122.499 -41s-67.5 -64 -93.5 -110s-46 -99 -60 -159s-21 -123 -21 -189z" />
    <glyph glyph-name="afii10097" unicode="&#x44f;" horiz-adv-x="1022" 
d="M-34 26l11.9971 101h35c26.667 0 50.5 5.83301 71.5 17.5s39.833 30.5 56.5 56.5l116 174c16 24 34.167 44.167 54.5 60.5s44.833 29.166 73.5 38.499c-42 6 -78 16.833 -108 32.5s-54.167 34.5 -72.5 56.5s-31.5 46.167 -39.5 72.5s-12 53.5 -12 81.5
c0 36.667 7.5 74 22.5 112s38.333 72.333 70 103s72.334 55.667 122.001 75s109.834 29 180.501 29h390l-127 -1036h-167l53 439h-131c-20.667 0 -38.5 -2 -53.5 -6s-28 -9.83301 -39 -17.5s-21 -16.667 -30 -27s-17.5 -22.5 -25.5 -36.5l-145 -235
c-15.333 -26 -31.333 -47.333 -48 -64s-34.667 -29.667 -54 -39s-39.166 -15.666 -59.499 -18.999s-41.5 -5 -63.5 -5c-32 0 -54 2.5 -66 7.5s-17.333 14.5 -16 28.5zM327.997 712c0 -50 16.333 -89.168 49 -117.501s78 -42.5 136 -42.5h199l45 366h-209
c-41.333 0 -76.333 -6.66699 -105 -20s-51.5 -30.166 -68.5 -50.499s-29 -42.5 -36 -66.5s-10.5 -47 -10.5 -69z" />
    <glyph glyph-name="uni0450" unicode="&#x450;" horiz-adv-x="986" 
d="M59 407c0 53.333 5.66602 106.327 16.999 158.994s27.833 102.834 49.5 150.501s48 92 79 133s66.5 76.333 106.5 106s84 53.167 132 70.5s99.667 26 155 26c52.667 0 98.167 -7.5 136.5 -22.5s69.666 -34.167 93.999 -57.5s42.5 -49 54.5 -77s18 -54.667 18 -80
c0 -45.333 -9.16699 -86.833 -27.5 -124.5s-52.166 -71.667 -101.499 -102s-117 -56.833 -203 -79.5s-196.333 -40.667 -331 -54c-0.666992 -7.33301 -1 -14.666 -1 -21.999v-22c0 -91.333 19.833 -161.166 59.5 -209.499s99.834 -72.5 180.501 -72.5
c32.667 0 61.834 3.5 87.501 10.5s48.667 15.333 69 25s38.166 20.5 53.499 32.5l42 33c12.667 10 24.334 18.333 35.001 25s21.667 10 33 10c12.667 0 24 -5.66699 34 -17l46 -57c-34.667 -36 -68.834 -66.833 -102.501 -92.5s-67.667 -47 -102 -64
s-70.5 -29.333 -108.5 -37s-79 -11.5 -123 -11.5c-59.333 0 -112.5 9.83301 -159.5 29.5s-86.833 47.834 -119.5 84.501s-58 80.834 -76 132.501s-27 109.834 -27 174.501zM254.999 574.994c105.333 12.667 189.668 27.499 253.001 44.499s112.166 35.167 146.499 54.5
s56.833 40.333 67.5 63s16 46.334 16 71.001c0 12 -2.66699 24.667 -8 38s-14 25.5 -26 36.5s-27.5 20.167 -46.5 27.5s-42.167 11 -69.5 11c-43.333 0 -83 -9 -119 -27s-68 -42.5 -96 -73.5s-52 -67.5 -72 -109.5s-35.333 -87.333 -46 -136zM372.001 1483.99
l159 -0.000976562c20.667 0 35.667 -3.66699 45 -11s17.333 -18.666 24 -33.999l112 -248h-95c-12.667 0 -23 2.16699 -31 6.5s-16 11.833 -24 22.5z" />
    <glyph glyph-name="afii10071" unicode="&#x451;" horiz-adv-x="986" 
d="M59 407c0 53.333 5.66602 106.327 16.999 158.994s27.833 102.834 49.5 150.501s48 92 79 133s66.5 76.333 106.5 106s84 53.167 132 70.5s99.667 26 155 26c52.667 0 98.167 -7.5 136.5 -22.5s69.666 -34.167 93.999 -57.5s42.5 -49 54.5 -77s18 -54.667 18 -80
c0 -45.333 -9.16699 -86.833 -27.5 -124.5s-52.166 -71.667 -101.499 -102s-117 -56.833 -203 -79.5s-196.333 -40.667 -331 -54c-0.666992 -7.33301 -1 -14.666 -1 -21.999v-22c0 -91.333 19.833 -161.166 59.5 -209.499s99.834 -72.5 180.501 -72.5
c32.667 0 61.834 3.5 87.501 10.5s48.667 15.333 69 25s38.166 20.5 53.499 32.5l42 33c12.667 10 24.334 18.333 35.001 25s21.667 10 33 10c12.667 0 24 -5.66699 34 -17l46 -57c-34.667 -36 -68.834 -66.833 -102.501 -92.5s-67.667 -47 -102 -64
s-70.5 -29.333 -108.5 -37s-79 -11.5 -123 -11.5c-59.333 0 -112.5 9.83301 -159.5 29.5s-86.833 47.834 -119.5 84.501s-58 80.834 -76 132.501s-27 109.834 -27 174.501zM254.999 574.994c105.333 12.667 189.668 27.499 253.001 44.499s112.166 35.167 146.499 54.5
s56.833 40.333 67.5 63s16 46.334 16 71.001c0 12 -2.66699 24.667 -8 38s-14 25.5 -26 36.5s-27.5 20.167 -46.5 27.5s-42.167 11 -69.5 11c-43.333 0 -83 -9 -119 -27s-68 -42.5 -96 -73.5s-52 -67.5 -72 -109.5s-35.333 -87.333 -46 -136zM318.001 1319.99
c0 16 3.16699 31 9.5 45s14.666 26.333 24.999 37s22.333 19.167 36 25.5s28.5 9.5 44.5 9.5s31 -3.16699 45 -9.5s26.333 -14.833 37 -25.5s19.167 -23 25.5 -37s9.5 -29 9.5 -45s-3.16699 -30.833 -9.5 -44.5s-14.833 -25.5 -25.5 -35.5s-23 -18.167 -37 -24.5
s-29 -9.5 -45 -9.5s-30.833 3.16699 -44.5 9.5s-25.667 14.5 -36 24.5s-18.666 21.833 -24.999 35.5s-9.5 28.5 -9.5 44.5zM688.001 1319.99c0 16 2.99902 31 8.99902 45s14.333 26.333 25 37s23 19.167 37 25.5s29 9.5 45 9.5s30.833 -3.16699 44.5 -9.5
s25.834 -14.833 36.501 -25.5s19 -23 25 -37s9 -29 9 -45s-3 -30.833 -9 -44.5s-14.333 -25.5 -25 -35.5s-23 -18.167 -37 -24.5s-28.667 -9.5 -44 -9.5c-16 0 -31 3.16699 -45 9.5s-26.333 14.5 -37 24.5s-19 21.833 -25 35.5s-9 28.5 -9 44.5z" />
    <glyph glyph-name="afii10099" unicode="&#x452;" horiz-adv-x="1055" 
d="M29 1127l16.001 138.002h169l30 242h176l-30 -242h328l-17 -138h-328l-46 -377c51.333 65.333 107.166 117.666 167.499 156.999s124.5 59 192.5 59c44 0 82.333 -8.5 115 -25.5s59.667 -41 81 -72s37.333 -68.667 48 -113s16 -93.833 16 -148.5
c0 -161.333 -31.167 -320 -93.5 -476s-149.166 -313 -260.499 -471l-135 56c54 84 100.333 164 139 240s70.834 149.333 96.501 220s44.667 139.167 57 205.5s18.5 132.166 18.5 197.499c0 79.333 -12.833 140.333 -38.5 183s-64.5 64 -116.5 64
c-26 0 -52.5 -6.5 -79.5 -19.5s-53.833 -31.167 -80.5 -54.5s-52.834 -51.5 -78.501 -84.5s-49.834 -68.833 -72.501 -107.5l-69 -560h-176l139 1127h-168z" />
    <glyph glyph-name="afii10100" unicode="&#x453;" horiz-adv-x="831" 
d="M23 226c0 36.667 7.99414 70.665 23.9941 101.998s36.833 60.666 62.5 87.999s55.334 53 89.001 77s68 47 103 69l103 63.5c33.667 20.333 63.334 40.666 89.001 60.999s46.667 40.833 63 61.5s24.5 42.334 24.5 65.001c0 26.667 -12 49.167 -36 67.5
s-58.667 27.5 -104 27.5c-30 0 -58 -3.83301 -84 -11.5s-49.333 -16.5 -70 -26.5s-38.667 -19.167 -54 -27.5s-27.666 -12.5 -36.999 -12.5c-5.33301 0 -11.166 1.5 -17.499 4.5s-11.833 9.5 -16.5 19.5l-39 74c22.667 19.333 47.5 36.5 74.5 51.5s55.167 27.833 84.5 38.5
s59.333 18.834 90 24.501s61 8.5 91 8.5c38.667 0 75.834 -4.66699 111.501 -14s67 -23.333 94 -42s48.333 -42 64 -70s23.5 -61 23.5 -99c0 -36 -7.83301 -69.167 -23.5 -99.5s-36.5 -58.666 -62.5 -84.999s-55.667 -51.166 -89 -74.499s-67.333 -45.5 -102 -66.5
l-101.5 -62c-33 -20.333 -62.5 -41 -88.5 -62s-46.833 -42.5 -62.5 -64.5s-23.5 -45.667 -23.5 -71c0 -31.333 14.833 -57.833 44.5 -79.5s70.167 -32.5 121.5 -32.5c34 0 65.333 4.66699 94 14s54.167 19.5 76.5 30.5s42 21.167 59 30.5s30.167 14 39.5 14
s17.166 -1.83301 23.499 -5.5s12.166 -9.16699 17.499 -16.5l41 -64c-53.333 -48 -113.166 -84.333 -179.499 -109s-133.166 -37 -200.499 -37c-49.333 0 -93.666 6.16699 -132.999 18.5s-72.5 29.333 -99.5 51s-47.833 47 -62.5 76s-22 60.5 -22 94.5zM404.994 1191
l166 248c10 16 20.833 27.5 32.5 34.5s27.5 10.5 47.5 10.5h164l-250 -264c-9.33301 -10 -18.5 -17.333 -27.5 -22s-19.833 -7 -32.5 -7h-100z" />
    <glyph glyph-name="afii10101" unicode="&#x454;" horiz-adv-x="935" 
d="M59 410c0 84 13.1641 164.5 39.4971 241.5s63.166 145.167 110.499 204.5s103.5 106.833 168.5 142.5s136.167 53.5 213.5 53.5c68.667 0 126.334 -12.167 173.001 -36.5s87.334 -59.833 122.001 -106.5l-52 -63c-4 -4.66699 -9.16699 -9 -15.5 -13
s-13.166 -6 -20.499 -6c-9.33301 0 -18.666 4.33301 -27.999 13s-21.333 18.334 -36 29.001s-33.167 20.167 -55.5 28.5s-50.833 12.5 -85.5 12.5c-38.667 0 -75.667 -7.83301 -111 -23.5s-67.5 -37.667 -96.5 -66s-54.5 -61.833 -76.5 -100.5s-39 -81.667 -51 -129h442
l-14 -123h-447c-1.33301 -8.66699 -2 -17.5 -2 -26.5v-26.5c0 -42 4.83301 -80.833 14.5 -116.5s24.334 -66.5 44.001 -92.5s44.167 -46.167 73.5 -60.5s63.666 -21.5 102.999 -21.5c30.667 0 58 3.16699 82 9.5s45.167 14.333 63.5 24s34.5 20.167 48.5 31.5l38 31
c11.333 9.33301 21.666 17.333 30.999 24s18.666 10 27.999 10c12.667 0 24.334 -5.66699 35.001 -17l40 -51c-35.333 -38.667 -69.166 -71 -101.499 -97s-64.5 -46.667 -96.5 -62s-65.333 -26 -100 -32s-71.667 -9 -111 -9c-60 0 -113 10.167 -159 30.5
s-84.5 49.166 -115.5 86.499s-54.667 82 -71 134s-24.5 109.667 -24.5 173z" />
    <glyph glyph-name="afii10102" unicode="&#x455;" horiz-adv-x="819" 
d="M-1 110l44.9971 69.002c6 8.66699 12.667 15.5 20 20.5s16.666 7.5 27.999 7.5c10.667 0 21.5 -4.83301 32.5 -14.5s24.667 -20.5 41 -32.5s37 -22.667 62 -32s56.833 -14 95.5 -14c33.333 0 63.5 5 90.5 15s49.833 23.667 68.5 41s33 37.333 43 60s15 47 15 73
c0 34.667 -10.667 62.334 -32 83.001s-48 37.834 -80 51.501s-66.5 26.5 -103.5 38.5s-71.5 27.333 -103.5 46s-58.5 43 -79.5 73s-31.5 70 -31.5 120c0 44 8.66699 86.167 26 126.5s42.333 76.166 75 107.499s72.334 56.5 119.001 75.5s99.334 28.5 158.001 28.5
c62 0 116.833 -10.5 164.5 -31.5s88.5 -49.167 122.5 -84.5l-46 -66c-5.33301 -8 -10.666 -13.833 -15.999 -17.5s-12.333 -5.5 -21 -5.5c-9.33301 0 -19.666 3.66699 -30.999 11s-25 15.666 -41 24.999s-35.667 18 -59 26s-51.333 12 -84 12
c-30.667 0 -58.667 -4.33301 -84 -13s-47 -20.5 -65 -35.5s-32 -32.5 -42 -52.5s-15 -41.333 -15 -64c0 -32 10.667 -57.667 32 -77s48 -36 80 -50s66.5 -27.5 103.5 -40.5s71.5 -29.333 103.5 -49s58.5 -44.834 79.5 -75.501s31.5 -70.667 31.5 -120
c0 -48 -9.33301 -93.833 -28 -137.5s-45.5 -82 -80.5 -115s-77.333 -59.333 -127 -79s-105.167 -29.5 -166.5 -29.5c-66 0 -124.5 11.667 -175.5 35s-92.5 53.666 -124.5 90.999z" />
    <glyph glyph-name="afii10103" unicode="&#x456;" horiz-adv-x="471" 
d="M71 0l125 1037h179l-125 -1037h-179zM194 1363c0 18 3.33203 34.833 9.99902 50.5s15.834 29.5 27.501 41.5s25 21.5 40 28.5s30.167 10.5 45.5 10.5c16.667 0 32.667 -3.33301 48 -10s28.833 -16 40.5 -28s21 -26 28 -42s10.5 -33 10.5 -51s-3.5 -34.667 -10.5 -50
s-16.5 -29 -28.5 -41s-25.667 -21.333 -41 -28s-31.333 -10 -48 -10c-16 0 -31.333 3.33301 -46 10s-27.667 16 -39 28s-20.333 25.667 -27 41s-10 32 -10 50z" />
    <glyph glyph-name="afii10104" unicode="&#x457;" horiz-adv-x="471" 
d="M58 1320c0 16 3.16699 31 9.5 45s14.666 26.333 24.999 37s22.333 19.167 36 25.5s28.167 9.5 43.5 9.5c16 0 30.833 -3.16699 44.5 -9.5s26 -14.833 37 -25.5s19.667 -23 26 -37s9.5 -29 9.5 -45s-3.16699 -30.833 -9.5 -44.5s-15 -25.5 -26 -35.5
s-23.5 -18.167 -37.5 -24.5s-28.667 -9.5 -44 -9.5s-29.833 3.16699 -43.5 9.5s-25.667 14.5 -36 24.5s-18.666 21.833 -24.999 35.5s-9.5 28.5 -9.5 44.5zM71 0l125 1037h179l-125 -1037h-179zM357 1320c0 16 3.16602 31 9.49902 45s14.5 26.333 24.5 37s22 19.167 36 25.5
s29 9.5 45 9.5s30.833 -3.16699 44.5 -9.5s25.834 -14.833 36.501 -25.5s19.167 -23 25.5 -37s9.5 -29 9.5 -45s-3.16699 -30.833 -9.5 -44.5s-14.833 -25.5 -25.5 -35.5s-23 -18.167 -37 -24.5s-28.667 -9.5 -44 -9.5c-16 0 -31 3.16699 -45 9.5s-26 14.5 -36 24.5
s-18.167 21.833 -24.5 35.5s-9.5 28.5 -9.5 44.5z" />
    <glyph glyph-name="afii10105" unicode="&#x458;" horiz-adv-x="468" 
d="M-181 -352l18 97.999c2 6 4.5 10.5 7.5 13.5s7.16699 5 12.5 6s11.833 1.33301 19.5 1s17.5 -0.5 29.5 -0.5c48.667 0 84.5 12.333 107.5 37s38.167 64.667 45.5 120l137 1114h179l-137 -1114c-4.66699 -41.333 -15 -80 -31 -116s-36.833 -67.333 -62.5 -94
s-56.5 -47.667 -92.5 -63s-77 -23 -123 -23c-24 0 -44.333 1.83301 -61 5.5s-33 8.83398 -49 15.501zM189 1363c0 18 3.49805 34.833 10.498 50.5s16.333 29.5 28 41.5s24.834 21.5 39.501 28.5s30 10.5 46 10.5c16.667 0 32.5 -3.33301 47.5 -10s28.5 -16 40.5 -28
s21.333 -26 28 -42s10 -33 10 -51s-3.5 -34.667 -10.5 -50s-16.5 -29 -28.5 -41s-25.5 -21.333 -40.5 -28s-30.833 -10 -47.5 -10s-32.167 3.33301 -46.5 10s-27.166 16 -38.499 28s-20.5 25.667 -27.5 41s-10.5 32 -10.5 50z" />
    <glyph glyph-name="afii10106" unicode="&#x459;" horiz-adv-x="1608" 
d="M-27 22l13.001 102.994h33c32 0 59.5 7.5 82.5 22.5s44 39.333 63 73s37 77.834 54 132.501s35.5 121.667 55.5 201c22 86.667 48.667 160.5 80 221.5s70.166 110.833 116.499 149.5s100.833 66.834 163.5 84.501s136 26.5 220 26.5h7v1h177v-1l-62 -511
c21.333 27.333 44.666 52.5 69.999 75.5s51.833 42.333 79.5 58s55.834 28 84.501 37s56.667 13.5 84 13.5c36.667 0 69.834 -6.16699 99.501 -18.5s54.834 -29.5 75.501 -51.5s36.5 -48.667 47.5 -80s16.5 -65.666 16.5 -102.999c0 -62.667 -13.5 -122.5 -40.5 -179.5
s-63.5 -107 -109.5 -150s-99.333 -77.167 -160 -102.5s-124.667 -38 -192 -38c-48.667 0 -90.667 6.16699 -126 18.5s-64.166 29.833 -86.499 52.5s-37.833 50 -46.5 82s-10.667 68 -6 108l78 651h-26c-50.667 0 -95.167 -6 -133.5 -18s-72.5 -31.667 -102.5 -59
s-56 -63.666 -78 -108.999s-41.333 -101 -58 -167c-24.667 -106 -50.334 -194.667 -77.001 -266s-56 -128.666 -88 -171.999s-66.667 -74.166 -104 -92.499s-79 -27.5 -125 -27.5c-30.667 0 -51.834 2.5 -63.501 7.5s-16.834 14.167 -15.501 27.5zM941.001 232.994
c-4 -33.333 6.5 -61.334 31.5 -84.001s62.5 -34 112.5 -34c36.667 0 72 9.33301 106 28s63.667 43 89 73s45.5 63.833 60.5 101.5s22.5 75.167 22.5 112.5c0 20 -2 39 -6 57s-11 34 -21 48s-23.167 25.167 -39.5 33.5s-36.833 12.5 -61.5 12.5
c-32 0 -64.167 -8.83301 -96.5 -26.5s-62 -40.667 -89 -69s-50 -60.166 -69 -95.499s-30.5 -71 -34.5 -107z" />
    <glyph glyph-name="afii10107" unicode="&#x45a;" horiz-adv-x="1560" 
d="M59 0l124.997 1037h183l-52 -422h447l51 422h177l-62 -512c21.333 27.333 44.666 52.5 69.999 75.5s51.833 42.333 79.5 58s55.834 28 84.501 37s56.667 13.5 84 13.5c36.667 0 69.834 -6.16699 99.501 -18.5s54.834 -29.5 75.501 -51.5s36.5 -48.667 47.5 -80
s16.5 -65.666 16.5 -102.999c0 -62.667 -13.5 -122.5 -40.5 -179.5s-63.5 -107 -109.5 -150s-99.5 -77.167 -160.5 -102.5s-124.833 -38 -191.5 -38c-48.667 0 -90.667 6.16699 -126 18.5s-64.166 29.833 -86.499 52.5s-37.833 50 -46.5 82s-10.667 68 -6 108l27 234h-446
l-57 -481h-183zM892.997 232.999c-4 -33.333 6.50098 -61.334 31.501 -84.001s62.5 -34 112.5 -34c36.667 0 72 9.33301 106 28s63.667 43 89 73s45.5 63.833 60.5 101.5s22.5 75.167 22.5 112.5c0 20 -2 39 -6 57s-11 34 -21 48s-23.167 25.167 -39.5 33.5
s-36.833 12.5 -61.5 12.5c-32 0 -64.333 -8.83301 -97 -26.5s-62.334 -40.667 -89.001 -69s-49.5 -60.166 -68.5 -95.499s-30.5 -71 -34.5 -107z" />
    <glyph glyph-name="afii10108" unicode="&#x45b;" horiz-adv-x="1083" 
d="M44 1170l15.002 116h156l28 222h181l-28 -222h254l-10 -65c-5.33301 -33.333 -26 -50.333 -62 -51h-195l-47 -387c54 81.333 114 142.833 180 184.5s133.667 62.5 203 62.5c44.667 0 83.667 -8.66699 117 -26s60.333 -42.5 81 -75.5s34.667 -74 42 -123
s7 -104.5 -1 -166.5l-75 -639h-182l76 639c9.33301 81.333 4.16602 141.833 -15.501 181.5s-56.5 59.5 -110.5 59.5c-31.333 0 -63.333 -8.5 -96 -25.5s-64.334 -41.167 -95.001 -72.5s-59.5 -69 -86.5 -113s-50.167 -93 -69.5 -147l-62 -522h-183l143 1170h-158z" />
    <glyph glyph-name="afii10109" unicode="&#x45c;" horiz-adv-x="986" 
d="M59 0l126.002 1037h175l-56 -458l89 18c13.333 2.66699 25.166 5.66699 35.499 9s19.833 7.66602 28.5 12.999s16.834 11.666 24.501 18.999s15.167 16.333 22.5 27l155 203l56.5 77.5c16.333 21.667 33.166 39.334 50.499 53.001s36.166 23.667 56.499 30
s45.166 9.5 74.499 9.5h77l-19 -94c-2.66699 -15.333 -8.16699 -25.166 -16.5 -29.499s-18.5 -8.16602 -30.5 -11.499s-25 -8.33301 -39 -15s-28.333 -19.667 -43 -39l-152 -201c-10 -13.333 -19.833 -25.5 -29.5 -36.5s-19.667 -20.5 -30 -28.5s-21.5 -14.833 -33.5 -20.5
s-25.333 -10.167 -40 -13.5c38.667 -7.33301 70.167 -21.666 94.5 -42.999s44.5 -51.333 60.5 -90l191 -416h-104c-31.333 -0 -55 5.33301 -71 16s-28.667 25.667 -38 45l-152 326c-11.333 26.667 -27.666 48.667 -48.999 66s-46.333 26 -75 26l-108 -20l-56 -459h-175z
M492.002 1191l166 248c10 16 20.833 27.5 32.5 34.5s27.5 10.5 47.5 10.5h164l-250 -264c-9.33301 -10 -18.5 -17.333 -27.5 -22s-19.833 -7 -32.5 -7h-100z" />
    <glyph glyph-name="uni045D" unicode="&#x45d;" horiz-adv-x="1084" 
d="M96.5 211c-7.66699 48.667 -7.49805 104.334 0.501953 167.001l78 659h181l-77 -659c-9.33301 -81.333 -4.33301 -141.833 15 -181.5s55.666 -59.5 108.999 -59.5c31.333 0 63.666 8.5 96.999 25.5s65.5 41.333 96.5 73s59.833 69.667 86.5 114s50 93.833 70 148.5
l64 539h181l-125 -1037h-90c-44.667 0 -66.667 22 -66 66l15 188c-55.333 -88 -117.166 -154.667 -185.499 -200s-138.5 -68 -210.5 -68c-44 0 -82.667 8.66699 -116 26s-60.333 42.666 -81 75.999s-34.834 74.333 -42.501 123zM380.002 1484l159 -0.000976562
c20.667 0 35.667 -3.66699 45 -11s17.333 -18.666 24 -33.999l112 -248h-95c-12.667 0 -23 2.16699 -31 6.5s-16 11.833 -24 22.5z" />
    <glyph glyph-name="afii10110" unicode="&#x45e;" horiz-adv-x="982" 
d="M74 1037l150.003 -0.000976562c15.333 0 26.333 -3.5 33 -10.5s11.667 -16.167 15 -27.5l167 -653c3.33301 -14.667 6.16602 -29 8.49902 -43s4.16602 -28.333 5.49902 -43c5.33301 14.667 11.166 29.334 17.499 44.001s12.833 29 19.5 43l328 654
c5.33301 10.667 13 19.334 23 26.001s20 10 30 10h145l-701 -1346c-7.33301 -14.667 -16 -25.334 -26 -32.001s-22.333 -10 -37 -10h-134l225 412zM315.003 1412c1.33301 13.333 5.83301 25.832 13.5 37.499s17.167 17.5 28.5 17.5h99
c-7.33301 -64.667 -2.33301 -110.667 15 -138s52 -41 104 -41c25.333 0 47.166 3.33301 65.499 10s33.833 17.167 46.5 31.5s22.834 32.666 30.501 54.999s13.167 49.833 16.5 82.5h98c12 0 20.5 -5.66699 25.5 -17s6.83301 -24 5.5 -38c-4 -34 -13.667 -64.667 -29 -92
s-36 -50.666 -62 -69.999s-56.667 -34.166 -92 -44.499s-74.333 -15.5 -117 -15.5c-86 0 -150.667 20 -194 60s-61.333 94 -54 162z" />
    <glyph glyph-name="afii10193" unicode="&#x45f;" horiz-adv-x="1084" 
d="M95.5 213.5c-7 48.333 -6.49805 103.167 1.50195 164.5l78 659h181l-77 -659c-9.33301 -81.333 -4.33301 -141.833 15 -181.5s55.666 -59.5 108.999 -59.5c31.333 0 63.666 8.5 96.999 25.5s65.5 41.333 96.5 73s59.833 69.667 86.5 114s50 93.833 70 148.5l64 539h181
l-125 -1037h-90c-44.667 0 -66.667 22 -66 66l15 188c-34.667 -56 -72.334 -103.333 -113.001 -142s-83.667 -68.334 -129 -89.001l-39 -326c-2 -17.333 -8.33301 -30.666 -19 -39.999s-23.667 -14 -39 -14h-109l43 344c-42 0.666992 -79.167 10 -111.5 28
s-58.666 43.5 -78.999 76.5s-34 73.667 -41 122z" />
    <glyph glyph-name="uni0460" unicode="&#x460;" horiz-adv-x="2050" 
d="M110 586c0 78 4.66895 154.166 14.002 228.499s24.333 144.666 45 210.999s46.667 127.333 78 183s68.5 103.834 111.5 144.501s92.333 72.334 148 95.001s117.834 34 186.501 34c34 0 64.833 -3.16699 92.5 -9.5s53 -14.833 76 -25.5s43.667 -23.834 62 -39.501
s35.5 -32.167 51.5 -49.5l-51 -94c-7.33301 -10.667 -14.333 -17.667 -21 -21s-14 -5 -22 -5s-16.667 4.16699 -26 12.5s-20.833 17.166 -34.5 26.499s-30.834 18.166 -51.501 26.499s-46.334 12.5 -77.001 12.5c-62 0 -117.333 -17.333 -166 -52
s-89.834 -83.667 -123.501 -147s-59.334 -140.166 -77.001 -230.499s-26.5 -191.166 -26.5 -302.499c0 -140 25 -247.667 75 -323s121.333 -113 214 -113c58 0 112 12.667 162 38s96 60 138 104l63 518h193l-64 -518c30.667 -44 67.834 -78.667 111.501 -104
s95.167 -38 154.5 -38c60.667 0 117.334 14.667 170.001 44s98.5 74.5 137.5 135.5s69.833 138.333 92.5 232s34 205.167 34 334.5c0 65.333 -5.5 124.166 -16.5 176.499s-27.167 96.5 -48.5 132.5s-47.666 63.833 -78.999 83.5s-67.333 29.5 -108 29.5
c-30.667 0 -57.334 -4.16699 -80.001 -12.5s-42 -17.166 -58 -26.499s-29.667 -18.166 -41 -26.499s-21 -12.5 -29 -12.5s-14.667 1.5 -20 4.5s-10.666 10.167 -15.999 21.5l-30 94c20.667 18 42.167 34.667 64.5 50s46.166 28.333 71.499 39s52.833 19.167 82.5 25.5
s61.5 9.5 95.5 9.5c72 0 133.5 -15.167 184.5 -45.5s92.5 -71.666 124.5 -123.999s55.5 -113.333 70.5 -183s22.5 -143.834 22.5 -222.501c0 -142.667 -14.667 -271 -44 -385s-71.166 -210.833 -125.499 -290.5s-120.166 -140.834 -197.499 -183.501s-164.333 -64 -261 -64
c-80.667 0 -151.834 15.667 -213.501 47s-114.834 75.666 -159.501 132.999c-59.333 -57.333 -123.833 -101.666 -193.5 -132.999s-144.834 -47 -225.501 -47c-70.667 0 -133.334 13.833 -188.001 41.5s-100.667 67.334 -138 119.001s-65.666 114.667 -84.999 189
s-29 158.5 -29 252.5z" />
    <glyph glyph-name="uni0461" unicode="&#x461;" horiz-adv-x="1476" 
d="M112 453c-6.66699 58 -6.00684 117.669 1.99316 179.002l50 404h118c18.667 0 31.334 -5.66699 38.001 -17s9.33398 -23.666 8.00098 -36.999l-41 -331c-12 -102 -6.66699 -192.833 16 -272.5s59.334 -150.5 110.001 -212.5c29.333 28.667 57.5 61.667 84.5 99
s51.333 77 73 119s40 86 55 132s25.167 91.333 30.5 136l47 384h118c18.667 0 31.334 -5.66699 38.001 -17s9.33398 -23.666 8.00098 -36.999l-40 -324c-5.33301 -44.667 -6.66602 -89.5 -3.99902 -134.5s9.5 -88.833 20.5 -131.5s25.333 -83.334 43 -122.001
s38.834 -73.334 63.501 -104.001c36 34.667 70.5 73 103.5 115s61.833 89 86.5 141s44.334 109.333 59.001 172s22 132.334 22 209.001c0 45.333 -2.33301 83.333 -7 114s-7 52.667 -7 66c0 14.667 4.16699 27.167 12.5 37.5s19.166 15.5 32.499 15.5h131
c1.33301 -12.667 2.66602 -27.5 3.99902 -44.5s2.5 -34.333 3.5 -52s1.66699 -34.834 2 -51.501s0.5 -31 0.5 -43c0 -94.667 -8.83301 -182 -26.5 -262s-42.667 -154.167 -75 -222.5s-71.833 -132 -118.5 -191s-99.334 -115.5 -158.001 -169.5h-105
c-9.33301 0 -16.833 2 -22.5 6s-12.167 10.333 -19.5 19c-34.667 44 -66.167 97.833 -94.5 161.5s-49.833 131.834 -64.5 204.501c-32.667 -72.667 -71 -140.834 -115 -204.501s-89 -117.834 -135 -162.501c-8.66699 -8 -15.667 -14 -21 -18s-12.666 -6 -21.999 -6h-108
c-34.667 40.667 -65.667 85.167 -93 133.5s-49.666 99.166 -66.999 152.499s-29.333 109 -36 167z" />
    <glyph glyph-name="afii10146" unicode="&#x462;" horiz-adv-x="1379" 
d="M111 1094l18.001 143.999h338l29 228h191l-29 -228h417l-17 -144h-418l-32 -261h259c75.333 0 140.166 -8.66699 194.499 -26s99 -41.166 134 -71.499s60.833 -66.333 77.5 -108s25 -87.5 25 -137.5c0 -74 -12 -141 -36 -201s-59.167 -111.5 -105.5 -154.5
s-102.5 -76.167 -168.5 -99.5s-140.667 -35 -224 -35h-449l135 1094h-339zM525.001 151.999h256.999c54.667 0 102.334 7.16699 143.001 21.5s74.5 35 101.5 62s47.167 59.833 60.5 98.5s20 82.667 20 132c0 68 -20.5 120.833 -61.5 158.5s-106.833 56.5 -197.5 56.5h-258z
" />
    <glyph glyph-name="afii10194" unicode="&#x463;" horiz-adv-x="1082" 
d="M58 901l17 135.999h250l35 291h179l-36 -291h294l-18 -136h-294l-19 -163h-1l-26 -213c21.333 27.333 44.833 52.5 70.5 75.5s52.334 42.333 80.001 58s55.834 28 84.501 37s56.667 13.5 84 13.5c36.667 0 69.667 -6.16699 99 -18.5s54.5 -29.5 75.5 -51.5
s36.833 -48.667 47.5 -80s16 -65.666 16 -102.999c0 -62.667 -13.5 -122.5 -40.5 -179.5s-63.5 -107 -109.5 -150s-99.333 -77.167 -160 -102.5s-124.334 -38 -191.001 -38c-48.667 0 -90.834 6.16699 -126.501 18.5s-64.5 29.833 -86.5 52.5s-37.5 50 -46.5 82
s-11.167 68 -6.5 108l60 491h-1l19 163h-249zM404 232.999c-4 -33.333 6.5 -61.334 31.5 -84.001s62.833 -34 113.5 -34c36.667 0 72 9.33301 106 28s63.5 43 88.5 73s45 63.833 60 101.5s22.5 75.167 22.5 112.5c0 20 -2 39 -6 57s-11 34 -21 48s-23.167 25.167 -39.5 33.5
s-36.833 12.5 -61.5 12.5c-32 0 -64.167 -8.83301 -96.5 -26.5s-62 -40.667 -89 -69s-49.833 -60.166 -68.5 -95.499s-30 -71 -34 -107z" />
    <glyph glyph-name="uni0464" unicode="&#x464;" horiz-adv-x="1807" 
d="M99 0l181.001 1466h192l-80 -646h291c18.667 100 49.667 190.667 93 272s96.333 151 159 209s133.834 102.833 213.501 134.5s164.5 47.5 254.5 47.5c92.667 0 172.667 -16.833 240 -50.5s123.666 -78.834 168.999 -135.501l-72 -88
c-5.33301 -6 -11.333 -11.167 -18 -15.5s-15.334 -6.5 -26.001 -6.5c-7.33301 0 -15.166 3.16699 -23.499 9.5s-18.166 14.333 -29.499 24s-24.5 20.167 -39.5 31.5s-32.833 21.666 -53.5 30.999s-44.834 17.333 -72.501 24s-59.834 10 -96.501 10
c-61.333 0 -119.5 -11.333 -174.5 -34s-104.5 -55.334 -148.5 -98.001s-81.333 -94.667 -112 -156s-53 -131 -67 -209h620l-18 -145h-618c-0.666992 -7.33301 -1 -14.333 -1 -21v-21c0 -75.333 9.33301 -142.833 28 -202.5s44.334 -110.5 77.001 -152.5
s71.667 -74.167 117 -96.5s95.333 -33.5 150 -33.5c37.333 0 71.166 2.83301 101.499 8.5s58.833 14 85.5 25s52.167 25 76.5 42s48.833 37.167 73.5 60.5c5.33301 4 11.166 7.5 17.499 10.5s12.166 4.5 17.499 4.5c10.667 0 19.334 -4.33301 26.001 -13l66 -82
c-61.333 -69.333 -132.5 -123.333 -213.5 -162s-175.167 -58 -282.5 -58c-84 0 -159.167 15.5 -225.5 46.5s-122.666 74.5 -168.999 130.5s-81.5 122.833 -105.5 200.5s-36 162.834 -36 255.501v28.5c0 9.66699 0.333008 19.5 1 29.5h-292l-83 -675h-193z" />
    <glyph glyph-name="uni0465" unicode="&#x465;" horiz-adv-x="1300" 
d="M58 0l128.003 1036h170l-54 -445h180c13.333 66.667 34.833 128.167 64.5 184.5s65.334 105 107.001 146s88.667 73.167 141 96.5s109.166 35 170.499 35c64.667 0 122.334 -11.667 173.001 -35s94.334 -56 131.001 -98l-51 -59c-6 -7.33301 -11.833 -12.833 -17.5 -16.5
s-13.167 -5.5 -22.5 -5.5c-10 0 -20.667 3.83301 -32 11.5l-40.5 26.5c-15.667 10 -34.834 18.833 -57.501 26.5s-51 11.5 -85 11.5c-37.333 0 -72.5 -7.66699 -105.5 -23s-62.667 -37.166 -89 -65.499s-49 -62.333 -68 -102s-33.5 -84.167 -43.5 -133.5h426l-16 -129h-424
v-24c0 -49.333 5.16699 -93.5 15.5 -132.5s25.166 -72.167 44.499 -99.5s43.166 -48.166 71.499 -62.499s60.166 -21.5 95.499 -21.5s65.833 5 91.5 15s47.834 21 66.501 33s34.667 23 48 33s25.666 15 36.999 15c8.66699 0 15.334 -1.66699 20.001 -5
s9.66699 -8.66602 15 -15.999l38 -58c-20.667 -22 -44.334 -42.167 -71.001 -60.5s-55.334 -34.5 -86.001 -48.5s-62.834 -24.833 -96.501 -32.5s-67.834 -11.5 -102.501 -11.5c-53.333 0 -102.166 10.167 -146.499 30.5s-82.666 49.5 -114.999 87.5s-57.333 84.333 -75 139
s-26.5 116.334 -26.5 185.001v17c0 6 0.333008 11.667 1 17h-182l-57 -462h-171z" />
    <glyph glyph-name="uni0466" unicode="&#x466;" horiz-adv-x="1337" 
d="M-72 0l752 1466h183l391 -1466h-153c-16.667 0 -29.667 4.33301 -39 13s-16 19.334 -20 32.001l-141 589h-143l-77 -634h-182l78 634h-139l-285 -589c-6 -11.333 -15.333 -21.666 -28 -30.999s-27 -14 -43 -14h-154zM505 770.998h363l-91 381
c-5.33301 18 -10.333 39 -15 63s-8.66699 50.333 -12 79c-10 -28.667 -20.333 -55.167 -31 -79.5s-20.667 -45.833 -30 -64.5z" />
    <glyph glyph-name="uni0467" unicode="&#x467;" horiz-adv-x="1060" 
d="M-63 0l564.002 1036h163l309 -1036h-136c-15.333 0 -27 3.66699 -35 11s-14 16.666 -18 27.999l-101 372h-99l-50 -411h-161l50 411h-96l-193 -372c-4.66699 -9.33301 -12.334 -18.166 -23.001 -26.499s-23.334 -12.5 -38.001 -12.5h-136zM391.002 534h258l-63 231
c-4 16 -8 34.333 -12 55s-7.66699 43 -11 67c-9.33301 -24.667 -18.5 -47.5 -27.5 -68.5s-17.167 -39.167 -24.5 -54.5z" />
    <glyph glyph-name="uni0468" unicode="&#x468;" horiz-adv-x="1898" 
d="M99 0l180.999 1466h192l-86 -695h498l356 695h184l393 -1466h-155c-16.667 0 -29.667 4.33301 -39 13s-15.666 19.334 -18.999 32.001l-142 589h-142l-78 -634h-182l78 634h-140l-284 -589c-6 -11.333 -15.333 -21.666 -28 -30.999s-27 -14 -43 -14h-154l325 634h-444
l-78 -634h-193zM1065 770.998l365 -0.00195312l-92 381c-5.33301 18.667 -10.333 39.834 -15 63.501s-8.66699 49.834 -12 78.501c-10 -28.667 -20.333 -55.167 -31 -79.5s-21 -45.833 -31 -64.5z" />
    <glyph glyph-name="uni0469" unicode="&#x469;" horiz-adv-x="1492" 
d="M58 0l128 1036h170l-62 -502h366l274 502h163l308 -1036h-136c-15.333 0 -26.833 3.66699 -34.5 11s-13.167 16.666 -16.5 27.999l-102 372h-98l-51 -411h-160l50 411h-97l-192 -372c-4.66699 -9.33301 -12.667 -18.166 -24 -26.499s-24 -12.5 -38 -12.5h-136l223 411
h-313l-51 -411h-171zM823 534l258.999 0.000976562l-62 231c-9.33301 31.333 -17.333 71.666 -24 120.999c-9.33301 -24 -18.666 -46.5 -27.999 -67.5l-25 -54.5z" />
    <glyph glyph-name="uni046A" unicode="&#x46a;" horiz-adv-x="1559" 
d="M-51 0l239.001 503.001c23.333 49.333 48.333 92.666 75 129.999s56.334 69.166 89.001 95.499s69.667 46.5 111 60.5s89 22 143 24l-411 652h150h5h1068h5h151l-573 -652c53.333 -2 99.166 -10 137.499 -24s71 -34 98 -60s49 -57.833 66 -95.5s31.5 -81.167 43.5 -130.5
l115 -503h-153c-16 0 -29.167 4.66699 -39.5 14s-17.166 19.666 -20.499 30.999l-86 440c-7.33301 37.333 -15.833 68.333 -25.5 93s-22.5 44.334 -38.5 59.001s-36.167 25 -60.5 31s-54.833 9 -91.5 9h-64l-2 -3h-4l-82 -674h-183l83 674l-2 3h-61
c-36.667 0 -67.834 -3 -93.501 -9s-48.5 -16.333 -68.5 -31s-37.833 -34.167 -53.5 -58.5s-31.5 -55.5 -47.5 -93.5l-195 -440c-5.33301 -11.333 -14.333 -21.666 -27 -30.999s-27.334 -14 -44.001 -14h-153zM481.001 1327l227 -377l33 -50.5c10 -15 18.667 -29.5 26 -43.5
s13.833 -28 19.5 -42s9.5 -29 11.5 -45c6 16 13.5 31 22.5 45s18.833 28 29.5 42s23 28.667 37 44l46 50l320 377h-772z" />
    <glyph glyph-name="uni046B" unicode="&#x46b;" horiz-adv-x="1223" 
d="M-52 0l175.004 342.001c18.667 36 38 68.167 58 96.5s42.167 52.666 66.5 72.999s51 36.5 80 48.5s61.833 20 98.5 24l-306 452h134h4h809h5h134l-418 -452c35.333 -3.33301 66.5 -11 93.5 -23s50.167 -28.333 69.5 -49s35.666 -45.167 48.999 -73.5s25 -60.5 35 -96.5
l91 -342h-137c-14.667 0 -26.334 4.16699 -35.001 12.5s-14.667 17.166 -18 26.499l-63 288c-6 28 -13 50.833 -21 68.5s-18.333 31.667 -31 42s-27.667 17.333 -45 21s-38.333 5.5 -63 5.5h-35l-2 -2h-5l-57 -462h-159l56 462h-2l-2 2h-31
c-24.667 0 -46.334 -1.83301 -65.001 -5.5s-35.5 -10.667 -50.5 -21s-28.833 -24.333 -41.5 -42s-25.334 -40.5 -38.001 -68.5l-134 -288c-5.33301 -9.33301 -13.5 -18.166 -24.5 -26.499s-23.5 -12.5 -37.5 -12.5h-137zM380.004 913.001l143.998 -212l28 -43
c8.66699 -12.667 16.5 -25 23.5 -37s12.833 -24 17.5 -36s8 -24.667 10 -38c5.33301 13.333 11.833 26 19.5 38s16.334 24 26.001 36s20.334 24.5 32.001 37.5l39.5 42.5l196 212h-536z" />
    <glyph glyph-name="uni046C" unicode="&#x46c;" horiz-adv-x="2128" 
d="M99 0l181.001 1466h192l-81 -652h784l-411 651h150h6h1223l-572 -652c54 -2 100 -10 138 -24s70.333 -34 97 -60s48.5 -57.833 65.5 -95.5s31.5 -81.167 43.5 -130.5l116 -503h-154c-16.667 0 -29.834 4.66699 -39.501 14s-16.167 19.666 -19.5 30.999l-87 440
c-7.33301 37.333 -15.833 68.333 -25.5 93s-22.667 44.334 -39 59.001s-36.5 25 -60.5 31s-54.667 9 -92 9h-63l-2 -3h-4l-82 -674h-182l82 674l-1 3h-81c-28 -0.666992 -53.333 -4.16699 -76 -10.5s-43.667 -17 -63 -32s-37.5 -34.5 -54.5 -58.5s-33.833 -54.333 -50.5 -91
l-197 -440c-5.33301 -11.333 -14.333 -21.666 -27 -30.999s-27 -14 -43 -14h-154l239 499c19.333 40.667 44.833 75.834 76.5 105.501s67.167 53.834 106.5 72.501h-563l-83 -677h-193zM1050 1327l228 -377l33 -50.5c10 -15 18.833 -29.5 26.5 -43.5s14 -28 19 -42
s8.83301 -29 11.5 -45c6 16 13.333 31 22 45s18.667 28 30 42s23.833 28.667 37.5 44l44.5 50l321 377h-773z" />
    <glyph glyph-name="uni046D" unicode="&#x46d;" horiz-adv-x="1659" 
d="M58 0l128.005 1036h170l-55 -449h559l-303 449h947h5h135l-418 -452c35.333 -3.33301 66.333 -11 93 -23s49.5 -28.333 68.5 -49s35.167 -45.167 48.5 -73.5s25 -60.5 35 -96.5l92 -342h-138c-13.333 0 -24.5 4.16699 -33.5 12.5s-15.167 17.166 -18.5 26.499l-62 288
c-6 28 -13.167 50.833 -21.5 68.5s-18.833 31.667 -31.5 42s-27.834 17.333 -45.501 21s-38.834 5.5 -63.501 5.5h-34l-2 -2h-5l-56 -462h-160l56 462h-3l-2 2h-38c-20.667 0 -39.667 -1.83301 -57 -5.5s-33.5 -10.667 -48.5 -21s-29.333 -24.333 -43 -42
s-26.834 -40.5 -39.501 -68.5l-136 -288c-4.66699 -9.33301 -12.334 -18.166 -23.001 -26.499s-23.334 -12.5 -38.001 -12.5h-136l174 342c13.333 28 31 51.833 53 71.5s47 36.5 75 50.5h-400l-57 -464h-171zM817.005 913l145 -212c21.333 -32 38.5 -59.167 51.5 -81.5
s21.5 -47.166 25.5 -74.499c10.667 27.333 25.667 52.166 45 74.499l72 81.5l197 212h-536z" />
    <glyph glyph-name="uni046E" unicode="&#x46e;" horiz-adv-x="1069" 
d="M-51 -96c0 90 27.002 158.829 81.002 206.496s129.333 71.5 226 71.5c20 0 38.833 -1 56.5 -3l51.5 -6l50 -6c16.667 -2 34 -3 52 -3c47.333 0 89.5 7.83301 126.5 23.5s68.667 37.334 95 65.001s46.5 59.834 60.5 96.501s21 76.667 21 120c0 35.333 -6 67.333 -18 96
s-29.333 53 -52 73s-50.5 35.167 -83.5 45.5s-70.167 15.5 -111.5 15.5h-186l19 158h177c42 0 81.167 5.83301 117.5 17.5s67.833 28.667 94.5 51s47.5 49.833 62.5 82.5s22.5 69.667 22.5 111c0 30 -5.5 57.5 -16.5 82.5s-27 46.5 -48 64.5s-47 32 -78 42
s-66.5 15 -106.5 15c-50.667 0 -94.167 -5.83301 -130.5 -17.5s-67.666 -24.667 -93.999 -39s-48 -27.333 -65 -39s-31.5 -17.5 -43.5 -17.5c-10 0 -18 2.5 -24 7.5s-11.667 12.5 -17 22.5l-34 90c57.333 49.333 121.5 86.833 192.5 112.5s149.167 38.5 234.5 38.5
c64.667 0 122.5 -8.33301 173.5 -25s94.167 -40 129.5 -70s62.333 -65.167 81 -105.5s28 -84.833 28 -133.5c0 -83.333 -20.833 -156.833 -62.5 -220.5s-99.167 -112.167 -172.5 -145.5c58.667 -28 105.167 -67.167 139.5 -117.5s51.5 -111.833 51.5 -184.5
c0 -61.333 -11.167 -120.5 -33.5 -177.5s-55.5 -107.5 -99.5 -151.5s-98.667 -79.333 -164 -106s-140.666 -40 -225.999 -40c-22 0 -41.333 0.833008 -58 2.5s-32.167 3.66699 -46.5 6l-40 6.5c-12.333 2 -24.833 3 -37.5 3c-38.667 0 -67.5 -9.16699 -86.5 -27.5
s-28.5 -44.166 -28.5 -77.499c0 -16 3.16699 -29.833 9.5 -41.5s17.166 -21.667 32.499 -30s35.166 -14.5 59.499 -18.5s54.833 -6 91.5 -6c43.333 0 84 1.66699 122 5s73 5 105 5c37.333 0 68.833 -3.66699 94.5 -11s46.167 -17.833 61.5 -31.5s26.333 -30.167 33 -49.5
s10 -40.333 10 -63c0 -30.667 -3.66699 -53.667 -11 -69s-21 -23 -41 -23h-49c1.33301 19.333 0.5 35.5 -2.5 48.5s-9.33301 23.333 -19 31s-22.5 13.334 -38.5 17.001s-36.333 5.5 -61 5.5c-16 0 -30.5 -0.5 -43.5 -1.5s-26.667 -2.33301 -41 -4s-30.333 -3 -48 -4
s-38.834 -1.5 -63.501 -1.5c-132.667 0 -229.334 19.333 -290.001 58s-91 95.667 -91 171z" />
    <glyph glyph-name="uni046F" unicode="&#x46f;" horiz-adv-x="838" 
d="M-62 -112c0 34.667 5.32812 66.832 15.9951 96.499s26.5 55.334 47.5 77.001s46.833 38.667 77.5 51s66 18.5 106 18.5c21.333 0 43.166 -1.5 65.499 -4.5s44.5 -4.5 66.5 -4.5c35.333 0 67.5 5.33301 96.5 16s53.333 25.167 73 43.5s34.834 40.166 45.501 65.499
s16 52.333 16 81c0 47.333 -17.333 85 -52 113s-88 42 -160 42h-109l16 119h107c36.667 0 70 4.5 100 13.5s55.333 21.167 76 36.5s36.667 33.666 48 54.999s17 44.666 17 69.999c0 18.667 -3.83301 36.334 -11.5 53.001s-19.167 31.334 -34.5 44.001s-34.5 22.667 -57.5 30
s-50.167 11 -81.5 11c-36.667 0 -68.5 -4 -95.5 -12s-49.833 -16.833 -68.5 -26.5s-34.334 -18.5 -47.001 -26.5s-23 -12 -31 -12s-14.833 1.5 -20.5 4.5s-11.167 9.83301 -16.5 20.5l-32 68c35.333 32 76.5 58.5 123.5 79.5s100.833 34.5 161.5 40.5l-165 246h102
c12.667 0 23.334 -1.83301 32.001 -5.5s16 -10.167 22 -19.5l83 -131c3.33301 -5.33301 6.33301 -10.833 9 -16.5l8 -17.5c7.33301 10.667 16.333 22 27 34l91 112c16 20 33.833 34.167 53.5 42.5s40.5 12.5 62.5 12.5c12.667 0 24.167 -1.33301 34.5 -4
s20.166 -5.66699 29.499 -9l-10 -83h-19c-17.333 0 -32 -4.33301 -44 -13s-23 -19 -33 -31l-118 -130c34.667 -8.66699 65 -20.834 91 -36.501s47.667 -34 65 -55s30.5 -43.333 39.5 -67s13.5 -48.167 13.5 -73.5c0 -22.667 -3.83301 -46.334 -11.5 -71.001
s-19.667 -48.5 -36 -71.5s-37.666 -44.5 -63.999 -64.5s-58.5 -35.667 -96.5 -47c28.667 -10 53.667 -23 75 -39s39 -33.667 53 -53s24.5 -40.166 31.5 -62.499s10.5 -45.166 10.5 -68.499c0 -47.333 -9.5 -91.666 -28.5 -132.999s-45.667 -77.166 -80 -107.499
s-76 -54.333 -125 -72s-103.833 -26.5 -164.5 -26.5c-28.667 0 -55.167 1.66699 -79.5 5s-45.5 5 -63.5 5c-30 0 -53.333 -7.66699 -70 -23s-25 -39 -25 -71c0 -31.333 11.833 -54.833 35.5 -70.5s56.167 -23.5 97.5 -23.5c13.333 0 28.833 0.5 46.5 1.5
s35.834 2.16699 54.501 3.5s37.167 2.5 55.5 3.5s35.5 1.5 51.5 1.5c37.333 0 68.833 -3.83301 94.5 -11.5s46.167 -18.5 61.5 -32.5s26.5 -30.333 33.5 -49s10.5 -39.334 10.5 -62.001c0 -30.667 -3.66699 -53.667 -11 -69s-21.333 -23 -42 -23h-49
c3.33301 38 -3.66699 64.333 -21 79s-50.666 22 -99.999 22c-32 0 -64.167 -1.66699 -96.5 -5s-63.166 -5 -92.499 -5c-39.333 0 -75.666 4.83301 -108.999 14.5s-62.166 24 -86.499 43s-43 42.167 -56 69.5s-19.5 59 -19.5 95z" />
    <glyph glyph-name="uni0470" unicode="&#x470;" horiz-adv-x="1548" 
d="M134 943l64.999 523.001h127c21.333 0 36.666 -6.5 45.999 -19.5s13 -28.5 11 -46.5l-56 -457c-8 -66 -8 -124.833 0 -176.5s25.5 -95.5 52.5 -131.5s63.667 -64.333 110 -85s103.833 -32.667 172.5 -36l117 952h193l-118 -952c69.333 3.33301 130 15.166 182 35.499
s96 48.5 132 84.5s64.667 80 86 132s36 111 44 177l57 457c2 18.667 9.33301 34.334 22 47.001s29.334 19 50.001 19h128l-64 -523c-10.667 -86.667 -32.834 -165.167 -66.501 -235.5s-78.167 -130.666 -133.5 -180.999s-121 -89.833 -197 -118.5s-162 -45.334 -258 -50.001
l-44 -358h-193l44 358c-94.667 4 -176.5 20.667 -245.5 50s-124.667 69.166 -167 119.499s-71.666 110.5 -87.999 180.5s-19.166 148.333 -8.49902 235z" />
    <glyph glyph-name="uni0471" unicode="&#x471;" horiz-adv-x="1452" 
d="M104 486l68.001 550.998h122c15.333 0 27.333 -7.33301 36 -22s12 -30.334 10 -47.001l-59 -482c-6 -52 -3.83301 -98.5 6.5 -139.5s28.5 -76.333 54.5 -106s59 -53.834 99 -72.501s86.333 -31 139 -37l164 1335h177l-164 -1336c59.333 5.33301 114.333 18.5 165 39.5
s94.667 53.333 132 97s66.833 100.667 88.5 171s32.5 158.166 32.5 263.499c0 50.667 -2.16699 98.834 -6.5 144.501s-5.83301 89.167 -4.5 130.5c2 22 8.83301 37.667 20.5 47s23.834 14 36.501 14h127c0.666992 -20 1.5 -41.667 2.5 -65l3 -70
c1 -23.333 1.66699 -45.666 2 -66.999s0.5 -39.666 0.5 -54.999c0 -98.667 -7.83301 -186.5 -23.5 -263.5s-37.334 -144 -65.001 -201s-60.834 -105.167 -99.501 -144.5s-80.834 -71.666 -126.501 -96.999s-94.167 -44.666 -145.5 -57.999s-103.666 -22 -156.999 -26
l-42 -341h-176l41 340c-171.333 11.333 -295 59.5 -371 144.5s-105 202.5 -87 352.5z" />
    <glyph glyph-name="afii10147" unicode="&#x472;" horiz-adv-x="1526" 
d="M100 628c0 124.667 19.501 239.334 58.501 344.001s93 195 162 271s150.5 135.167 244.5 177.5s195.667 63.5 305 63.5c90 0 171.167 -16.333 243.5 -49s133.666 -77.667 183.999 -135s89 -125.333 116 -204s40.5 -164.667 40.5 -258
c0 -124.667 -19.333 -239.334 -58 -344.001s-92.167 -194.667 -160.5 -270s-149.5 -134 -243.5 -176s-196.333 -63 -307 -63c-90 0 -171 16 -243 48s-133.5 76.5 -184.5 133.5s-90 124.667 -117 203s-40.5 164.5 -40.5 258.5zM297.001 633
c0 -74.667 9.33105 -142.001 27.998 -202.001s45.834 -111.167 81.501 -153.5s78.834 -75 129.501 -98s107.667 -34.5 171 -34.5c70 0 135.167 12.167 195.5 36.5s114 59.333 161 105s86 101.334 117 167.001s52.5 139.5 64.5 221.5h-947
c-0.666992 -7.33301 -1 -14.333 -1 -21v-21zM312.999 819.999l944 0.00195312v14c0 74.667 -9.5 142 -28.5 202s-46 111.167 -81 153.5s-78 75.166 -129 98.499s-108.167 35 -171.5 35c-67.333 0 -130.5 -11.667 -189.5 -35s-111.5 -56.833 -157.5 -100.5
s-85 -96.334 -117 -158.001s-55.333 -131.5 -70 -209.5z" />
    <glyph glyph-name="afii10195" unicode="&#x473;" horiz-adv-x="1062" 
d="M60 417c0 58 6.16699 114 18.5 168s30 104.5 53 151.5s50.5 90 82.5 129s67.667 72.333 107 100s81.666 49.167 126.999 64.5s93 23 143 23c56.667 0 108.5 -9.83301 155.5 -29.5s87.667 -47.834 122 -84.501s61 -81.667 80 -135s28.5 -113.666 28.5 -180.999
c0 -86.667 -13.667 -168.667 -41 -246s-64.666 -145 -111.999 -203s-103.5 -103.833 -168.5 -137.5s-134.833 -50.5 -209.5 -50.5c-56.667 0 -108.5 9.66699 -155.5 29s-87.5 47.5 -121.5 84.5s-60.667 82 -80 135s-29 113.833 -29 182.5zM237 414
c0 -97.333 19.167 -171.167 57.5 -221.5s94.166 -75.5 167.499 -75.5c40.667 0 78.334 8.83301 113.001 26.5s65.667 42.167 93 73.5s50.833 68 70.5 110s34.5 87.667 44.5 137h-545c-0.666992 -8 -1 -16.333 -1 -25v-25zM255 582.999l545 -0.00195312
c0 6.66699 0.166992 13.334 0.5 20.001s0.5 14 0.5 22c0 98 -19.167 171.833 -57.5 221.5s-93.833 74.5 -166.5 74.5c-40 0 -77.333 -8.83301 -112 -26.5s-65.667 -41.5 -93 -71.5s-51 -65.667 -71 -107s-35.333 -85.666 -46 -132.999z" />
    <glyph glyph-name="afii10148" unicode="&#x474;" horiz-adv-x="1331" 
d="M111 1466l148.003 0.000976562c17.333 0 30.833 -4.16699 40.5 -12.5s16.167 -19.5 19.5 -33.5l245 -1046c5.33301 -22.667 10.5 -47.167 15.5 -73.5s9.16699 -53.833 12.5 -82.5c9.33301 28.667 19.166 56.167 29.499 82.5s21.166 50.833 32.499 73.5l384 904
c28.667 66 65.667 115 111 147s101 48 167 48c20 0 36 -0.833008 48 -2.5s21.167 -4.33398 27.5 -8.00098s10.166 -8.66699 11.499 -15s1.33301 -14.833 0 -25.5l-12 -107h-53c-27.333 0 -52.5 -9 -75.5 -27s-42.833 -45.333 -59.5 -82l-550 -1206h-173z" />
    <glyph glyph-name="afii10196" unicode="&#x475;" horiz-adv-x="1021" 
d="M71 1036h143.999c13.333 0 24.5 -3.66699 33.5 -11s14.167 -16 15.5 -26l154 -676c8 -41.333 14 -81.666 18 -120.999l43 121l241 546c15.333 37.333 31.833 67.666 49.5 90.999s36.5 41.5 56.5 54.5s41 21.833 63 26.5s44.333 7 67 7
c16.667 0 30.334 -1.16699 41.001 -3.5s19 -4.83301 25 -7.5s10 -5.5 12 -8.5s2.66699 -5.83301 2 -8.5l-12 -98h-28c-27.333 0 -50.833 -6.33301 -70.5 -19s-36.167 -34 -49.5 -64l-388 -839h-159z" />
    <glyph glyph-name="uni0476" unicode="&#x476;" horiz-adv-x="1331" 
d="M111 1466l148.003 0.000976562c17.333 0 30.833 -4.16699 40.5 -12.5s16.167 -19.5 19.5 -33.5l245 -1046c5.33301 -22.667 10.5 -47.167 15.5 -73.5s9.16699 -53.833 12.5 -82.5c9.33301 28.667 19.166 56.167 29.499 82.5s21.166 50.833 32.499 73.5l384 904
c28.667 66 65.667 115 111 147s101 48 167 48c20 0 36 -0.833008 48 -2.5s21.167 -4.33398 27.5 -8.00098s10.166 -8.66699 11.499 -15s1.33301 -14.833 0 -25.5l-12 -107h-53c-27.333 0 -52.5 -9 -75.5 -27s-42.833 -45.333 -59.5 -82l-550 -1206h-173zM299.003 1862
h127.002c20.667 0 37.167 -4 49.5 -12s23.166 -19 32.499 -33l148 -234h-92c-12.667 0 -23.334 2.16699 -32.001 6.5s-17.667 11.5 -27 21.5zM649.005 1862h110.998c20.667 0 37 -4 49 -12s21.333 -19 28 -33l112 -234h-79c-13.333 0 -23.666 2.16699 -30.999 6.5
s-15.666 11.5 -24.999 21.5z" />
    <glyph glyph-name="uni0477" unicode="&#x477;" horiz-adv-x="1021" 
d="M72 1036h143.999c13.333 0 24.5 -3.66699 33.5 -11s14.167 -16 15.5 -26l154 -676c8 -41.333 14 -81.666 18 -120.999l43 121l241 546c15.333 37.333 31.833 67.666 49.5 90.999s36.5 41.5 56.5 54.5s41 21.833 63 26.5s44.333 7 67 7
c16.667 0 30.334 -1.16699 41.001 -3.5s19 -4.83301 25 -7.5s10 -5.5 12 -8.5s2.66699 -5.83301 2 -8.5l-12 -98h-28c-27.333 0 -50.833 -6.33301 -70.5 -19s-36.167 -34 -49.5 -64l-388 -839h-159zM150.999 1484l123 0.000976562c21.333 0 36.5 -3.83301 45.5 -11.5
s17.167 -18.834 24.5 -33.501l141 -248h-80c-13.333 0 -24 2.16699 -32 6.5s-15.667 11.833 -23 22.5zM446.999 1484l111 -0.000976562c20.667 0 35.834 -3.66699 45.501 -11s17.5 -18.666 23.5 -33.999l103 -248h-71c-12.667 0 -23.334 2 -32.001 6s-16 11.667 -22 23z" />
    <glyph glyph-name="uni0478" unicode="&#x478;" horiz-adv-x="2493" 
d="M100 628c0 124.667 19.501 239.334 58.501 344.001s93 195 162 271s150.5 135.167 244.5 177.5s195.667 63.5 305 63.5c90 0 171.167 -16.333 243.5 -49s133.666 -77.667 183.999 -135s89 -125.333 116 -204s40.5 -164.667 40.5 -258
c0 -124.667 -19.333 -239.334 -58 -344.001s-92.167 -194.667 -160.5 -270s-149.5 -134 -243.5 -176s-196.333 -63 -307 -63c-90 0 -171 16 -243 48s-133.5 76.5 -184.5 133.5s-90 124.667 -117 203s-40.5 164.5 -40.5 258.5zM297.001 633
c0 -74.667 9.33203 -141.999 27.999 -201.999s45.834 -111.167 81.501 -153.5s78.667 -75 129 -98s107.5 -34.5 171.5 -34.5c81.333 0 155.666 16.167 222.999 48.5s125.333 78.333 174 138s86.334 132 113.001 217s40 180.167 40 285.5c0 74.667 -9.5 142 -28.5 202
s-46 111.167 -81 153.5s-78 75.166 -129 98.499s-108.167 35 -171.5 35c-80.667 0 -154.667 -16.167 -222 -48.5s-125.333 -78.5 -174 -138.5s-86.5 -132.5 -113.5 -217.5s-40.5 -180.167 -40.5 -285.5zM1585 1037l150.003 -0.000976562c15.333 0 26.333 -3.5 33 -10.5
s11.667 -16.167 15 -27.5l167 -653c3.33301 -14.667 6.16602 -29 8.49902 -43s4.16602 -28.333 5.49902 -43c5.33301 14.667 11.166 29.334 17.499 44.001s12.833 29 19.5 43l328 654c5.33301 10.667 13 19.334 23 26.001s20 10 30 10h145l-701 -1346
c-7.33301 -14.667 -16 -25.334 -26 -32.001s-22.333 -10 -37 -10h-134l225 412z" />
    <glyph glyph-name="uni0479" unicode="&#x479;" horiz-adv-x="2053" 
d="M60 417c0 87.333 13.666 169.499 40.999 246.499s65 144.333 113 202s104.167 103.334 168.5 137.001s133.833 50.5 208.5 50.5c56.667 0 108.5 -9.83301 155.5 -29.5s87.667 -47.834 122 -84.501s61 -81.667 80 -135s28.5 -113.666 28.5 -180.999
c0 -86.667 -13.667 -168.667 -41 -246s-64.666 -145 -111.999 -203s-103.5 -103.833 -168.5 -137.5s-134.833 -50.5 -209.5 -50.5c-56.667 0 -108.5 9.66699 -155.5 29s-87.5 47.5 -121.5 84.5s-60.667 82 -80 135s-29 113.833 -29 182.5zM243.999 417.999
c0 -95.333 18.6689 -167.497 56.002 -216.497s92 -73.5 164 -73.5c50 0 95.167 13.667 135.5 41s75.166 63.666 104.499 108.999s51.833 97.666 67.5 156.999s23.5 121.666 23.5 186.999c0 95.333 -19 167 -57 215s-92.667 72 -164 72c-50.667 0 -96.167 -13.5 -136.5 -40.5
s-74.833 -63 -103.5 -108s-50.834 -97.167 -66.501 -156.5s-23.5 -121.333 -23.5 -186zM1145 1037l150.003 -0.000976562c15.333 0 26.333 -3.5 33 -10.5s11.667 -16.167 15 -27.5l167 -653c3.33301 -14.667 6.16602 -29 8.49902 -43s4.16602 -28.333 5.49902 -43
c5.33301 14.667 11.166 29.334 17.499 44.001s12.833 29 19.5 43l328 654c5.33301 10.667 13 19.334 23 26.001s20 10 30 10h145l-701 -1346c-7.33301 -14.667 -16 -25.334 -26 -32.001s-22.333 -10 -37 -10h-134l225 412z" />
    <glyph glyph-name="uni047A" unicode="&#x47a;" horiz-adv-x="1611" 
d="M100 628c0 114.667 16.6709 221.165 50.0039 319.498s79.666 184.5 138.999 258.5s130 134.5 212 181.5s171.333 76.833 268 89.5c13.333 24.667 32.166 44.667 56.499 60s50.833 23 79.5 23c30 0 57.5 -7.83301 82.5 -23.5s44.5 -35.167 58.5 -58.5
c76.667 -10 145.334 -33.167 206.001 -69.5s112.167 -82.5 154.5 -138.5s75 -120.667 98 -194s34.5 -152.666 34.5 -237.999c0 -114 -16.333 -219.833 -49 -317.5s-78.334 -183.334 -137.001 -257.001s-128.334 -134 -209.001 -181s-169 -76.833 -265 -89.5
c-13.333 -25.333 -32.833 -46 -58.5 -62s-53.834 -24 -84.501 -24c-29.333 0 -56 7.83301 -80 23.5s-43 35.834 -57 60.501c-78 9.33301 -147.667 31.833 -209 67.5s-113.5 81.334 -156.5 137.001s-76 120.167 -99 193.5s-34.5 153 -34.5 239zM297.004 632.998
c0 -64 7.16602 -122.835 21.499 -176.502s34.833 -101 61.5 -142s59.334 -75 98.001 -102s82.334 -45.833 131.001 -56.5c14.667 20.667 33 37 55 49s46 18 72 18c28 0 53.667 -6.66699 77 -20s42 -30.666 56 -51.999c70 10 134.333 33 193 69s108.667 83.5 150 142.5
s73.333 128.167 96 207.5s34 167.333 34 264c0 63.333 -7 121.666 -21 174.999s-34 100.333 -60 141s-58 74.667 -96 102s-81 47 -129 59c-15.333 -20.667 -34.333 -37.167 -57 -49.5s-47.334 -18.5 -74.001 -18.5c-27.333 0 -52.5 6.83301 -75.5 20.5
s-41.833 31.834 -56.5 54.501c-70.667 -9.33301 -135.167 -32.166 -193.5 -68.499s-108.333 -84 -150 -143s-74.167 -128.5 -97.5 -208.5s-35 -168.333 -35 -265z" />
    <glyph glyph-name="uni047B" unicode="&#x47b;" horiz-adv-x="1196" 
d="M60 417c0 79.333 11.665 154.833 34.998 226.5s55.5 135.667 96.5 192s89.5 103.166 145.5 140.499s116.667 61.333 182 72c12.667 26 31.5 47.333 56.5 64s52.833 25 83.5 25s58.667 -8.5 84 -25.5s45 -38.5 59 -64.5c46 -8 87.833 -23.5 125.5 -46.5
s70.167 -52.5 97.5 -88.5s48.333 -78.333 63 -127s22 -102.667 22 -162c0 -80 -11.667 -155.833 -35 -227.5s-55.333 -135.667 -96 -192s-89 -103.166 -145 -140.499s-117 -61 -183 -71c-13.333 -25.333 -32.5 -45.833 -57.5 -61.5s-52.833 -23.5 -83.5 -23.5
c-30 0 -57.167 7.83301 -81.5 23.5s-43.166 36.167 -56.499 61.5c-46.667 8 -89.167 23.333 -127.5 46s-71.166 52 -98.499 88s-48.5 78.5 -63.5 127.5s-22.5 103.5 -22.5 163.5zM243.998 418c0 -74 11.1699 -133.833 33.5029 -179.5s55.166 -77.5 98.499 -95.5
c13.333 24 31.833 43.333 55.5 58s49.834 22 78.501 22c30.667 0 58.834 -8.33301 84.501 -25s45.167 -38 58.5 -64c41.333 10 79.166 30.167 113.499 60.5s63.333 67.5 87 111.5s42 93.167 55 147.5s19.5 110.5 19.5 168.5c0 74 -11.5 133.5 -34.5 178.5
s-55.833 76.5 -98.5 94.5c-14.667 -22.667 -33.834 -41 -57.501 -55s-49.834 -21 -78.501 -21c-30 0 -57 7.83301 -81 23.5s-43 36.167 -57 61.5c-42 -9.33301 -80.333 -28.833 -115 -58.5s-63.834 -66.5 -87.501 -110.5s-42 -93.333 -55 -148s-19.5 -111 -19.5 -169z" />
    <glyph glyph-name="uni047C" unicode="&#x47c;" horiz-adv-x="2051" 
d="M110 586c0 78 4.83691 154.166 14.5039 228.499s24.667 144.666 45 210.999s46.166 127.333 77.499 183s68.666 103.834 111.999 144.501s92.666 72.334 147.999 95.001s117.333 34 186 34c34 0 65 -3.16699 93 -9.5s53.5 -14.833 76.5 -25.5s43.667 -23.834 62 -39.501
s35.5 -32.167 51.5 -49.5l-52 -94c-7.33301 -10.667 -14.166 -17.667 -20.499 -21s-13.5 -5 -21.5 -5s-16.667 4.16699 -26 12.5s-20.833 17.166 -34.5 26.499s-30.834 18.166 -51.501 26.499s-46.334 12.5 -77.001 12.5c-62 0 -117.333 -17.333 -166 -52
s-89.834 -83.667 -123.501 -147s-59.334 -140.166 -77.001 -230.499s-26.5 -191.166 -26.5 -302.499c0 -140 24.833 -247.667 74.5 -323s120.834 -113 213.501 -113c73.333 0 137.5 19.5 192.5 58.5s101.833 90.833 140.5 155.5h146c10.667 -32 24.5 -61 41.5 -87
s37 -48.5 60 -67.5s49.167 -33.667 78.5 -44s62.333 -15.5 99 -15.5c60.667 0 117.334 14.667 170.001 44s98.5 74.5 137.5 135.5s69.833 138.333 92.5 232s34 205.167 34 334.5c0 65.333 -5.33301 124.166 -16 176.499s-26.667 96.5 -48 132.5s-47.666 63.833 -78.999 83.5
s-67.666 29.5 -108.999 29.5c-30.667 0 -57.334 -4.16699 -80.001 -12.5s-41.834 -17.166 -57.501 -26.499s-29.167 -18.166 -40.5 -26.499s-21 -12.5 -29 -12.5c-8.66699 0 -15.667 1.5 -21 4.5s-10.666 10.167 -15.999 21.5l-29 94c20 18 41.167 34.667 63.5 50
s46.166 28.333 71.499 39s53 19.167 83 25.5s62 9.5 96 9.5c72 0 133.333 -15.167 184 -45.5s92.167 -71.666 124.5 -123.999s56 -113.333 71 -183s22.5 -143.834 22.5 -222.501c0 -142.667 -14.667 -271 -44 -385s-71.166 -210.833 -125.499 -290.5
s-120.166 -140.834 -197.499 -183.501s-164.333 -64 -261 -64c-81.333 0 -152.833 15.667 -214.5 47s-114.834 75.333 -159.501 132c-58.667 -56.667 -123 -100.667 -193 -132s-145.333 -47 -226 -47c-70 0 -132.333 13.833 -187 41.5s-100.834 67.334 -138.501 119.001
s-66.167 114.667 -85.5 189s-29 158.5 -29 252.5zM846.004 1694c4.66699 37.333 14.165 70.999 28.498 100.999s32.833 55.5 55.5 76.5s49 36.833 79 47.5s63 16 99 16c30 0 57.833 -3.5 83.5 -10.5s50.5 -16.167 74.5 -27.5s47.5 -23.333 70.5 -36s47.333 -24.667 73 -36
s53 -20.5 82 -27.5s61.167 -10.5 96.5 -10.5l-11 -94c-59.333 0 -111.166 7.5 -155.499 22.5s-84.666 31.667 -120.999 50l-101 50c-31 15 -63.167 22.5 -96.5 22.5c-40 0 -73.167 -12.667 -99.5 -38s-42.5 -60.666 -48.5 -105.999h-109zM1072 1411l4.00195 31.9971
c2 10.667 13.667 18.334 35 23.001s38 13.334 50 26.001s20 32.334 24 59.001c-6 -2.66699 -14 -4 -24 -4c-28.667 0 -48.834 6.66699 -60.501 20s-17.5 29 -17.5 47c0 26.667 8.83301 49 26.5 67s41.167 27 70.5 27c27.333 0 48.166 -9 62.499 -27s21.5 -42.333 21.5 -73
c0 -26 -4 -50.833 -12 -74.5s-19.833 -44.667 -35.5 -63s-35.5 -32.833 -59.5 -43.5s-52.333 -16 -85 -16z" />
    <glyph glyph-name="uni047D" unicode="&#x47d;" horiz-adv-x="1486" 
d="M70 413c0 82 7.67188 161.169 23.0049 237.502s39.833 143.833 73.5 202.5s76.834 105.667 129.501 141s116.334 53 191.001 53c51.333 0 93.666 -8.66699 126.999 -26s61 -39 83 -65l-46 -85c-6.66699 -9.33301 -12.5 -15.333 -17.5 -18s-11.5 -4 -19.5 -4
c-6.66699 0 -13.334 2.66699 -20.001 8s-14.667 11.166 -24 17.499s-20.5 12.166 -33.5 17.499s-29.5 8 -49.5 8c-38.667 0 -73.5 -11 -104.5 -33s-57.5 -54.167 -79.5 -96.5s-38.667 -94.166 -50 -155.499s-17 -130.666 -17 -207.999
c0 -86.667 15.667 -153.834 47 -201.501s77 -71.5 137 -71.5c48.667 0 90.5 13.333 125.5 40s65.833 63.667 92.5 111h128c15.333 -47.333 37.166 -84.333 65.499 -111s67.166 -40 116.499 -40c40.667 0 78 9.83301 112 29.5s63.167 49.667 87.5 90
s43.333 91.666 57 153.999s20.5 136.166 20.5 221.499c0 86.667 -13.167 153.5 -39.5 200.5s-65.166 70.5 -116.499 70.5c-20 0 -37.333 -2.66699 -52 -8s-27.334 -11.166 -38.001 -17.499l-28.5 -17.5c-8.33301 -5.33301 -15.833 -8 -22.5 -8s-12.5 1.33301 -17.5 4
s-9.83301 8.66699 -14.5 18l-25 85c29.333 26 62.666 47.667 99.999 65s81.666 26 132.999 26c52 0 96.333 -10.833 133 -32.5s66.667 -51 90 -88s40.333 -80 51 -129s16 -101.167 16 -156.5c0 -98.667 -10 -188.167 -30 -268.5s-49 -149 -87 -206
s-84.833 -100.833 -140.5 -131.5s-119.167 -46 -190.5 -46c-57.333 0 -107.833 10.333 -151.5 31s-81.834 50.667 -114.501 90c-42 -38.667 -87.333 -68.5 -136 -89.5s-101.334 -31.5 -158.001 -31.5c-52 0 -97.833 9.83301 -137.5 29.5s-72.667 48 -99 85
s-46.166 81.5 -59.499 133.5s-20 110.667 -20 176zM515.005 1309c9.33301 76.667 37.498 136.167 84.498 178.5s106.5 63.5 178.5 63.5c30 0 57.833 -3.5 83.5 -10.5s50.5 -16.167 74.5 -27.5s47.5 -23.333 70.5 -36s47.333 -24.667 73 -36s53 -20.5 82 -27.5
s61.167 -10.5 96.5 -10.5l-11 -94c-59.333 0 -111.166 7.5 -155.499 22.5s-84.666 31.667 -120.999 50l-101 50c-31 15 -63.167 22.5 -96.5 22.5c-40.667 0 -74 -12.667 -100 -38s-41.667 -61 -47 -107h-111zM742.003 1027l4 32c0.666992 10.667 12 18.334 34 23.001
s39 13.5 51 26.5s20 32.833 24 59.5c-3.33301 -1.33301 -7 -2.33301 -11 -3s-8.66699 -1 -14 -1c-28 0 -47.667 6.33301 -59 19s-17 28 -17 46c0 27.333 8.5 49.833 25.5 67.5s40.5 26.5 70.5 26.5c26.667 0 47.334 -8.83301 62.001 -26.5s22 -41.834 22 -72.501
c0 -25.333 -4 -50 -12 -74s-19.833 -45 -35.5 -63s-35.334 -32.5 -59.001 -43.5s-52.167 -16.5 -85.5 -16.5z" />
    <glyph glyph-name="uni047E" unicode="&#x47e;" horiz-adv-x="2050" 
d="M110 586c0 78 4.66895 154.166 14.002 228.499s24.333 144.666 45 210.999s46.667 127.333 78 183s68.5 103.834 111.5 144.501s92.333 72.334 148 95.001s117.834 34 186.501 34c34 0 64.833 -3.16699 92.5 -9.5s53 -14.833 76 -25.5s43.667 -23.834 62 -39.501
s35.5 -32.167 51.5 -49.5l-51 -94c-7.33301 -10.667 -14.333 -17.667 -21 -21s-14 -5 -22 -5s-16.667 4.16699 -26 12.5s-20.833 17.166 -34.5 26.499s-30.834 18.166 -51.501 26.499s-46.334 12.5 -77.001 12.5c-62 0 -117.333 -17.333 -166 -52
s-89.834 -83.667 -123.501 -147s-59.334 -140.166 -77.001 -230.499s-26.5 -191.166 -26.5 -302.499c0 -140 25 -247.667 75 -323s121.333 -113 214 -113c58 0 112 12.667 162 38s96 60 138 104l63 518h193l-64 -518c30.667 -44 67.834 -78.667 111.501 -104
s95.167 -38 154.5 -38c60.667 0 117.334 14.667 170.001 44s98.5 74.5 137.5 135.5s69.833 138.333 92.5 232s34 205.167 34 334.5c0 65.333 -5.5 124.166 -16.5 176.499s-27.167 96.5 -48.5 132.5s-47.666 63.833 -78.999 83.5s-67.333 29.5 -108 29.5
c-30.667 0 -57.334 -4.16699 -80.001 -12.5s-42 -17.166 -58 -26.499s-29.667 -18.166 -41 -26.499s-21 -12.5 -29 -12.5s-14.667 1.5 -20 4.5s-10.666 10.167 -15.999 21.5l-30 94c20.667 18 42.167 34.667 64.5 50s46.166 28.333 71.499 39s52.833 19.167 82.5 25.5
s61.5 9.5 95.5 9.5c72 0 133.5 -15.167 184.5 -45.5s92.5 -71.666 124.5 -123.999s55.5 -113.333 70.5 -183s22.5 -143.834 22.5 -222.501c0 -142.667 -14.667 -271 -44 -385s-71.166 -210.833 -125.499 -290.5s-120.166 -140.834 -197.499 -183.501s-164.333 -64 -261 -64
c-80.667 0 -151.834 15.667 -213.501 47s-114.834 75.666 -159.501 132.999c-59.333 -57.333 -123.833 -101.666 -193.5 -132.999s-144.834 -47 -225.501 -47c-70.667 0 -133.334 13.833 -188.001 41.5s-100.667 67.334 -138 119.001s-65.666 114.667 -84.999 189
s-29 158.5 -29 252.5zM777.502 1790c-0.333008 6 0.164062 12.667 1.49707 20h806c-1.33301 -7.33301 -2.66602 -13.5 -3.99902 -18.5s-2.66602 -11.5 -3.99902 -19.5l-63 -173c-2.66699 -7.33301 -6.5 -12.833 -11.5 -16.5s-10.333 -5.5 -16 -5.5s-10.667 1.83301 -15 5.5
s-6.83301 9.16699 -7.5 16.5l-14 117h-227l-40 -117c-3.33301 -7.33301 -7.66602 -12.833 -12.999 -16.5s-10.5 -5.5 -15.5 -5.5s-9.83301 1.83301 -14.5 5.5s-7.33398 9.16699 -8.00098 16.5l-14 117h-227l-42 -117c-2.66699 -7.33301 -6.66699 -12.833 -12 -16.5
s-10.666 -5.5 -15.999 -5.5s-10 1.83301 -14 5.5s-6.33301 9.16699 -7 16.5l-22 173c0 6 -0.166992 12 -0.5 18z" />
    <glyph glyph-name="uni047F" unicode="&#x47f;" horiz-adv-x="1476" 
d="M112 453c-6.66699 58 -6.00684 117.669 1.99316 179.002l50 404h118c18.667 0 31.334 -5.66699 38.001 -17s9.33398 -23.666 8.00098 -36.999l-41 -331c-12 -102 -6.66699 -192.833 16 -272.5s59.334 -150.5 110.001 -212.5c29.333 28.667 57.5 61.667 84.5 99
s51.333 77 73 119s40 86 55 132s25.167 91.333 30.5 136l47 384h118c18.667 0 31.334 -5.66699 38.001 -17s9.33398 -23.666 8.00098 -36.999l-40 -324c-5.33301 -44.667 -6.66602 -89.5 -3.99902 -134.5s9.5 -88.833 20.5 -131.5s25.333 -83.334 43 -122.001
s38.834 -73.334 63.501 -104.001c36 34.667 70.5 73 103.5 115s61.833 89 86.5 141s44.334 109.333 59.001 172s22 132.334 22 209.001c0 45.333 -2.33301 83.333 -7 114s-7 52.667 -7 66c0 14.667 4.16699 27.167 12.5 37.5s19.166 15.5 32.499 15.5h131
c1.33301 -12.667 2.66602 -27.5 3.99902 -44.5s2.5 -34.333 3.5 -52s1.66699 -34.834 2 -51.501s0.5 -31 0.5 -43c0 -94.667 -8.83301 -182 -26.5 -262s-42.667 -154.167 -75 -222.5s-71.833 -132 -118.5 -191s-99.334 -115.5 -158.001 -169.5h-105
c-9.33301 0 -16.833 2 -22.5 6s-12.167 10.333 -19.5 19c-34.667 44 -66.167 97.833 -94.5 161.5s-49.833 131.834 -64.5 204.501c-32.667 -72.667 -71 -140.834 -115 -204.501s-89 -117.834 -135 -162.501c-8.66699 -8 -15.667 -14 -21 -18s-12.666 -6 -21.999 -6h-108
c-34.667 40.667 -65.667 85.167 -93 133.5s-49.666 99.166 -66.999 152.499s-29.333 109 -36 167zM439.493 1360c-0.333008 6 0.164062 12.667 1.49707 20h806c-1.33301 -7.33301 -2.66602 -13.5 -3.99902 -18.5s-2.66602 -11.5 -3.99902 -19.5l-63 -173
c-2.66699 -7.33301 -6.5 -12.833 -11.5 -16.5s-10.333 -5.5 -16 -5.5s-10.667 1.83301 -15 5.5s-6.83301 9.16699 -7.5 16.5l-14 117h-227l-40 -117c-3.33301 -7.33301 -7.66602 -12.833 -12.999 -16.5s-10.5 -5.5 -15.5 -5.5s-9.83301 1.83301 -14.5 5.5
s-7.33398 9.16699 -8.00098 16.5l-14 117h-227l-42 -117c-2.66699 -7.33301 -6.66699 -12.833 -12 -16.5s-10.666 -5.5 -15.999 -5.5s-10 1.83301 -14 5.5s-6.33301 9.16699 -7 16.5l-22 173c0 6 -0.166992 12 -0.5 18z" />
    <glyph glyph-name="uni0480" unicode="&#x480;" horiz-adv-x="1226" 
d="M100 621c0 85.333 9.17188 165.669 27.5049 241.002s44 145 77 209s72.667 121.5 119 172.5s98 94.167 155 129.5s118.667 62.666 185 81.999s135.166 29 206.499 29c52 0 99.167 -4.5 141.5 -13.5s80.833 -22 115.5 -39s66.167 -37.5 94.5 -61.5s54.5 -50.667 78.5 -80
l-64 -80c-5.33301 -6.66699 -11.5 -12.167 -18.5 -16.5s-15.833 -6.5 -26.5 -6.5c-7.33301 0 -15.333 3.16699 -24 9.5s-18.667 14.333 -30 24s-24.666 20.167 -39.999 31.5s-33.833 21.666 -55.5 30.999s-47.334 17.333 -77.001 24s-64.5 10 -104.5 10
c-79.333 0 -153.166 -15.833 -221.499 -47.5s-127.833 -77.167 -178.5 -136.5s-90.5 -130.833 -119.5 -214.5s-43.5 -177.834 -43.5 -282.501c0 -76 9.66699 -144 29 -204s46.666 -111.167 81.999 -153.5s77.166 -74.833 125.499 -97.5s101.5 -34 159.5 -34
c31.333 0 57 1.5 77 4.5s36.667 6.16699 50 9.5s24.666 6.33301 33.999 9s19.666 4 30.999 4h54l-58 -477c-2 -17.333 -8.5 -30.666 -19.5 -39.999s-24.167 -14 -39.5 -14h-108l43 350c-16.667 -1.33301 -33.667 -2.33301 -51 -3s-31.666 -1 -42.999 -1
c-87.333 0 -165.833 15.333 -235.5 46s-128.834 74 -177.501 130s-85.834 122.5 -111.501 199.5s-38.5 162.5 -38.5 256.5z" />
    <glyph glyph-name="uni0481" unicode="&#x481;" horiz-adv-x="889" 
d="M59 410c0 84 13.165 164.5 39.498 241.5s63.166 145.167 110.499 204.5s103.5 106.833 168.5 142.5s136.167 53.5 213.5 53.5c68.667 0 126.334 -12.167 173.001 -36.5s87.334 -59.833 122.001 -106.5l-58 -68c-4.66699 -5.33301 -9.83398 -9.83301 -15.501 -13.5
s-12.167 -5.5 -19.5 -5.5c-9.33301 0 -18.666 4.33301 -27.999 13s-21.5 18.334 -36.5 29.001s-33.667 20.167 -56 28.5s-50.833 12.5 -85.5 12.5c-47.333 0 -91.833 -12.833 -133.5 -38.5s-78.167 -60.667 -109.5 -105s-56 -96.833 -74 -157.5s-27 -125.667 -27 -195
c0 -44 4.83301 -83.5 14.5 -118.5s24 -65 43 -90s42.5 -44.333 70.5 -58s60.333 -20.5 97 -20.5c20.667 0 39.334 1.33301 56.001 4s31.5 5.66699 44.5 9s23.5 6.33301 31.5 9s14 4 18 4h68l-55 -451c-2.66699 -17.333 -9.33398 -30.833 -20.001 -40.5
s-23.667 -14.5 -39 -14.5h-108l42 350c-13.333 -2 -26.666 -3.5 -39.999 -4.5s-25.333 -1.5 -36 -1.5h-1c-60 0 -113 10.167 -159 30.5s-84.5 49.166 -115.5 86.499s-54.667 82 -71 134s-24.5 109.667 -24.5 173z" />
    <glyph glyph-name="uni0482" unicode="&#x482;" horiz-adv-x="1378" 
d="M61 715l103 131l323 -265l310 408l-328 268l102 132l325 -267l271 359l136 -99l-277 -366l319 -260l-103 -130l-316 258l-310 -409l321 -262l-102 -131l-319 260l-270 -358l-134 98l275 365z" />
    <glyph glyph-name="uni0483" unicode="&#x483;" horiz-adv-x="753" 
d="M127 1231c4.66699 40 18.498 68.5 41.498 85.5s49.833 25.5 80.5 25.5h508l11 93h50c14.667 0 28.167 -2.33301 40.5 -7s23 -11.5 32 -20.5s15.833 -20.333 20.5 -34s5.66699 -29.834 3 -48.501c-4.66699 -40 -18.5 -68.667 -41.5 -86s-49.5 -26 -79.5 -26h-508l-11 -92
h-50c-14.667 0 -28.167 2.33301 -40.5 7s-23.166 11.5 -32.499 20.5s-16.166 20.333 -20.499 34s-5.5 29.834 -3.5 48.501z" />
    <glyph glyph-name="uni0484" unicode="&#x484;" horiz-adv-x="753" 
d="M140 1181l12.9951 111c37.333 0 71.833 4 103.5 12s62 17.833 91 29.5s57 24.334 84 38.001s54.333 26.167 82 37.5s56.334 21 86.001 29s61.167 12 94.5 12c80.667 0 137.167 -23.333 169.5 -70s43.833 -113 34.5 -199h-120c2.66699 28 1.83398 51.833 -2.49902 71.5
s-11.666 35.667 -21.999 48s-22.666 21.166 -36.999 26.499s-30.166 8 -47.499 8c-27.333 0 -53.333 -3.66699 -78 -11s-49.5 -16.833 -74.5 -28.5l-77 -37.5c-26.333 -13.333 -54.5 -25.833 -84.5 -37.5s-62.5 -21.167 -97.5 -28.5s-74.167 -11 -117.5 -11z" />
    <glyph glyph-name="uni0485" unicode="&#x485;" horiz-adv-x="753" 
d="M439 1370c5.33301 44.667 18.833 78 40.5 100s50.5 33 86.5 33c30.667 0 53.5 -9.33301 68.5 -28s20.833 -42.667 17.5 -72c-2.66699 -24 -12.334 -44.833 -29.001 -62.5s-42.667 -26.5 -78 -26.5h-15c-4.66699 0 -8.66699 0.666992 -12 2
c-1.33301 -26 3.16699 -46 13.5 -60s26.5 -23.667 48.5 -29c24 -5.33301 34.667 -15.333 32 -30l-4 -39c-32.667 0 -60.5 5.83301 -83.5 17.5s-41.167 27.167 -54.5 46.5s-22.666 41.833 -27.999 67.5s-6.33301 52.5 -3 80.5z" />
    <glyph glyph-name="uni0486" unicode="&#x486;" horiz-adv-x="753" 
d="M431 1153l3.99805 38.999c0.666992 8 4.33398 14.333 11.001 19s16.334 8.66699 29.001 12c24 5.33301 42.667 14.5 56 27.5s22 33.833 26 62.5c-4 -1.33301 -8.16699 -2.33301 -12.5 -3s-9.16602 -1 -14.499 -1c-18 0 -32.833 2.33301 -44.5 7s-21 11.167 -28 19.5
s-11.667 17.833 -14 28.5s-2.83301 22 -1.5 34c3.33301 29.333 14.666 53.333 33.999 72s44.333 28 75 28c35.333 0 61.5 -12.833 78.5 -38.5s22.833 -60.834 17.5 -105.501c-3.33301 -28 -10.166 -54.167 -20.499 -78.5s-24.5 -45.666 -42.5 -63.999
s-39.833 -32.666 -65.5 -42.999s-54.834 -15.5 -87.501 -15.5z" />
    <glyph glyph-name="uni0488" unicode="&#x488;" horiz-adv-x="2277" 
d="M99 582c0 36 5.16797 68.833 15.501 98.5s25.5 54.834 45.5 75.501s45.333 36.834 76 48.501s66 17.5 106 17.5s75.333 -5.83301 106 -17.5s56.167 -27.834 76.5 -48.501s35.666 -45.834 45.999 -75.501s15.5 -62.5 15.5 -98.5h-129c0 40.667 -8.33301 71.667 -25 93
s-46.667 32 -90 32s-73.333 -10.667 -90 -32s-25 -52.333 -25 -93h-128zM295.001 119c0 36 5.16895 68.833 15.502 98.5s25.666 55 45.999 76s45.833 37.167 76.5 48.5s66 17 106 17s75.167 -5.66699 105.5 -17s55.833 -27.5 76.5 -48.5s36 -46.333 46 -76
s15 -62.5 15 -98.5h-129c0 40.667 -8.33301 71.667 -25 93s-46.334 32 -89.001 32c-43.333 0 -73.333 -10.667 -90 -32s-25 -52.333 -25 -93h-129zM295.003 1044c0 36 5.16895 69.002 15.502 99.002s25.666 55.333 45.999 76s45.833 36.834 76.5 48.501s66 17.5 106 17.5
s75.167 -5.83301 105.5 -17.5s55.833 -27.834 76.5 -48.501s36 -45.834 46 -75.501s15 -62.834 15 -99.501h-129c0 40.667 -8.33301 71.667 -25 93s-46.334 32 -89.001 32c-43.333 0 -73.333 -10.5 -90 -31.5s-25 -52.167 -25 -93.5h-129zM898.005 -212.998
c0 36 5.16797 68.833 15.501 98.5s25.666 55 45.999 76s45.833 37.333 76.5 49s66 17.5 106 17.5s75.167 -5.83301 105.5 -17.5s55.833 -28 76.5 -49s36 -46.333 46 -76s15 -62.5 15 -98.5h-129c0 40.667 -8.5 71.667 -25.5 93s-46.5 32 -88.5 32
c-43.333 0 -73.333 -10.667 -90 -32s-25 -52.333 -25 -93h-129zM898.006 1376c0 36 5.16797 69.002 15.501 99.002s25.666 55.333 45.999 76s45.833 36.834 76.5 48.501s66 17.5 106 17.5s75.167 -5.83301 105.5 -17.5s55.833 -27.834 76.5 -48.501s36 -45.834 46 -75.501
s15 -62.834 15 -99.501h-129c0 40.667 -8.5 71.667 -25.5 93s-46.5 32 -88.5 32c-43.333 0 -73.333 -10.5 -90 -31.5s-25 -52.167 -25 -93.5h-129zM1501.01 119.004c0 36 5.16797 68.833 15.501 98.5s25.666 55 45.999 76s45.833 37.167 76.5 48.5s66 17 106 17
s75.167 -5.66699 105.5 -17s55.833 -27.5 76.5 -48.5s36.167 -46.333 46.5 -76s15.5 -62.5 15.5 -98.5h-129c0 40.667 -8.66699 71.667 -26 93s-47 32 -89 32c-43.333 0 -73.333 -10.667 -90 -32s-25 -52.333 -25 -93h-129zM1501.01 1044c0 36 5.16797 69.002 15.501 99.002
s25.666 55.333 45.999 76s45.833 36.834 76.5 48.501s66 17.5 106 17.5s75.167 -5.83301 105.5 -17.5s55.833 -27.834 76.5 -48.501s36.167 -45.834 46.5 -75.501s15.5 -62.834 15.5 -99.501h-129c0 40.667 -8.66699 71.667 -26 93s-47 32 -89 32
c-43.333 0 -73.333 -10.5 -90 -31.5s-25 -52.167 -25 -93.5h-129zM1698.01 582.006c0 36 5.16797 68.833 15.501 98.5s25.5 54.834 45.5 75.501s45.167 36.834 75.5 48.501s65.5 17.5 105.5 17.5s75.333 -5.83301 106 -17.5s56.167 -27.834 76.5 -48.501
s35.666 -45.834 45.999 -75.501s15.5 -62.5 15.5 -98.5h-128c0 40.667 -8.5 71.667 -25.5 93s-47.167 32 -90.5 32c-42 0 -71.333 -10.667 -88 -32s-25 -52.333 -25 -93h-129z" />
    </font>
</defs>
</svg>
